<?xml version="1.0" encoding="utf-8"?>
<!-- Generator: Adobe Illustrator 18.1.1, SVG Export Plug-In . SVG Version: 6.00 Build 0)  -->
<svg version="1.1" id="Layer_1" xmlns="http://www.w3.org/2000/svg" xmlns:xlink="http://www.w3.org/1999/xlink" x="0px" y="0px"
	 viewBox="0 0 25 25" style="enable-background:new 0 0 25 25;" xml:space="preserve">
<path id="bolt-line.svg" d="M21.914,4.308c-0.386-0.442-1.063-0.474-1.478-0.059c-0.369,0.369-0.396,0.962-0.052,1.353
	c1.758,1.998,2.778,4.657,2.596,7.562c-0.308,4.918-4.158,9.059-9.039,9.736c-1.29,0.179-2.534,0.1-3.71-0.163l11.291-11.213
	c0.269-0.268,0.056-0.726-0.324-0.69l-9.484,0.896c-0.314,0.03-0.541-0.297-0.402-0.581L16.7,0.739
	c-2.222-0.794-4.716-1.015-7.342-0.332C4.546,1.659,0.832,5.744,0.131,10.668c-0.523,3.674,0.558,7.089,2.64,9.663
	c0.377,0.466,1.076,0.508,1.5,0.084l0.005-0.005c0.355-0.355,0.403-0.927,0.085-1.316c-1.792-2.198-2.724-5.119-2.229-8.268
	c0.633-4.028,3.651-7.385,7.586-8.45c1.935-0.524,3.798-0.468,5.497-0.008L3.467,15.248c-0.25,0.269-0.039,0.705,0.327,0.679
	l8.588-0.625c0.317-0.023,0.536,0.311,0.388,0.593l-3.466,7.02l-0.717,1.452l0,0L8.585,24.37l0.003-0.003
	c1.73,0.57,3.621,0.788,5.599,0.518c5.662-0.773,10.181-5.423,10.748-11.109C25.3,10.136,24.087,6.793,21.914,4.308z"/>
</svg>
