<?xml version="1.0" encoding="utf-8"?>
<!-- Generator: Adobe Illustrator 18.1.1, SVG Export Plug-In . SVG Version: 6.00 Build 0)  -->
<svg version="1.1" id="Layer_1" xmlns="http://www.w3.org/2000/svg" xmlns:xlink="http://www.w3.org/1999/xlink" x="0px" y="0px"
	 viewBox="0 0 27 19.983" style="enable-background:new 0 0 27 19.983;" xml:space="preserve">
<g id="code-line.svg">
	<g>
		<g>
			<path d="M19.445,17.241c-0.702,0-1.363-0.273-1.859-0.771c-1.023-1.027-1.023-2.695,0-3.719l2.762-2.762l-2.761-2.761
				c-1.023-1.027-1.023-2.695,0-3.719c0.995-0.994,2.727-0.994,3.72,0l5.14,5.14C26.803,9.008,27,9.485,27,9.992
				c0,0.506-0.198,0.981-0.556,1.339l-5.139,5.14C20.809,16.967,20.148,17.241,19.445,17.241z M19.445,4.74
				c-0.168,0-0.326,0.065-0.445,0.185c-0.245,0.245-0.244,0.646,0.001,0.892l4.175,4.174L19,14.165
				c-0.245,0.245-0.244,0.646,0.001,0.892c0.235,0.236,0.651,0.237,0.889-0.001l5.066-5.066l-5.066-5.065
				C19.771,4.805,19.613,4.74,19.445,4.74z"/>
		</g>
		<g>
			<path d="M7.555,17.241c-0.702,0-1.363-0.273-1.859-0.771l-5.14-5.141C0.198,10.973,0,10.497,0,9.992
				C0,9.485,0.197,9.008,0.555,8.65l5.14-5.14c0.993-0.994,2.726-0.994,3.719,0c1.024,1.027,1.023,2.694,0,3.719L6.653,9.99
				l2.761,2.762c1.024,1.027,1.023,2.694,0,3.719C8.917,16.967,8.257,17.241,7.555,17.241z M2.043,9.99l5.066,5.066
				c0.238,0.238,0.652,0.238,0.891,0c0.245-0.245,0.245-0.646-0.001-0.892L3.825,9.99L8,5.815C8.245,5.57,8.245,5.169,7.999,4.923
				c-0.236-0.236-0.651-0.237-0.89,0.001L2.043,9.99z"/>
		</g>
	</g>
	<g>
		<path d="M11.579,19.983L11.579,19.983c-0.223,0-0.447-0.028-0.664-0.085c-1.404-0.369-2.247-1.809-1.881-3.209l3.843-14.726
			c0.359-1.373,1.824-2.243,3.208-1.881c1.403,0.369,2.246,1.808,1.881,3.208l-3.843,14.727
			C13.821,19.174,12.775,19.983,11.579,19.983z M15.421,1.997c-0.286,0-0.537,0.193-0.609,0.472L10.97,17.195
			c-0.088,0.335,0.115,0.68,0.452,0.769c0.317,0.08,0.681-0.121,0.766-0.451l3.843-14.727c0.087-0.335-0.115-0.68-0.452-0.769
			C15.528,2.004,15.475,1.997,15.421,1.997z"/>
	</g>
</g>
</svg>
