<?xml version="1.0" encoding="utf-8"?>
<!-- Generator: Adobe Illustrator 18.1.1, SVG Export Plug-In . SVG Version: 6.00 Build 0)  -->
<svg version="1.1" id="Layer_1" xmlns="http://www.w3.org/2000/svg" xmlns:xlink="http://www.w3.org/1999/xlink" x="0px" y="0px"
	 viewBox="0 0 25 21.193" style="enable-background:new 0 0 25 21.193;" xml:space="preserve">
<path id="folder-empty.svg" d="M23.836,21.193H1.164C0.521,21.193,0,20.672,0,20.029V1.164C0,0.521,0.521,0,1.164,0h8.566
	c0.409,0,0.789,0.215,0.999,0.566l0.86,1.435c0.399,0.666,1.119,1.074,1.896,1.074h10.349C24.479,3.075,25,3.597,25,4.24v15.789
	C25,20.672,24.479,21.193,23.836,21.193z M3.107,19.194h18.785c0.654,0,1.185-0.53,1.185-1.185V6.381
	c0-0.654-0.53-1.185-1.185-1.185H11.538c-0.426,0-0.82-0.223-1.039-0.588L9.279,2.574c-0.214-0.357-0.6-0.575-1.016-0.575H3.107
	c-0.654,0-1.185,0.53-1.185,1.185V18.01C1.923,18.664,2.453,19.194,3.107,19.194z"/>
</svg>
