<?xml version="1.0" encoding="utf-8"?>
<!-- Generator: Adobe Illustrator 18.1.1, SVG Export Plug-In . SVG Version: 6.00 Build 0)  -->
<svg version="1.1" id="Layer_1" xmlns="http://www.w3.org/2000/svg" xmlns:xlink="http://www.w3.org/1999/xlink" x="0px" y="0px"
	 viewBox="0 0 24.999 19.999" style="enable-background:new 0 0 24.999 19.999;" xml:space="preserve">
<path id="libraries.svg" d="M3.584,3.753l4.319,1.435c0.356,0.154,2.045,0.764,5.04,0.031c3.784-0.928,11.974-2.533,12.056-2.55
	l-0.305-1.521c-0.003,0-0.026,0.005-0.055,0.011l-7.806-1.087c-0.859-0.12-2.245-0.085-3.096,0.079l-10.436,2
	C1.943,2.081,0.652,2.905,0.219,4.241c-0.249,0.771-0.18,1.592,0.195,2.31c0.192,0.368,0.454,0.684,0.766,0.941
	c-0.47,0.362-0.839,0.861-1.034,1.462c-0.249,0.77-0.18,1.592,0.195,2.31c0.204,0.389,0.488,0.716,0.824,0.979
	c-0.462,0.361-0.826,0.858-1.019,1.452c-0.249,0.771-0.179,1.593,0.195,2.31c0.376,0.719,1.013,1.25,1.791,1.496l7.524,2.376
	c0.412,0.13,1.09,0.16,1.512,0.063l13.209-2.99c0,0-0.079-0.338-0.175-0.755c-0.096-0.417-0.517-0.679-0.94-0.582l-12.025,2.72
	c-0.423,0.096-1.099,0.067-1.512-0.063l-7.114-2.245c-0.381-0.12-0.691-0.38-0.875-0.73c-0.184-0.35-0.217-0.751-0.095-1.126
	c0.251-0.777,1.095-1.202,1.881-0.959c0.001-0.007,4.352,1.366,6.135,1.927c0.413,0.13,1.09,0.16,1.513,0.063l13.209-2.989
	c0,0-0.079-0.339-0.175-0.756c-0.096-0.417-0.517-0.679-0.94-0.582l-12.025,2.721c-0.422,0.095-1.099,0.066-1.512-0.063
	l-7.115-2.249c-0.381-0.12-0.691-0.38-0.875-0.73c-0.184-0.35-0.217-0.751-0.095-1.126c0.251-0.778,1.095-1.204,1.881-0.96
	c0-0.002,4.411,1.39,6.207,1.956c0.413,0.13,1.09,0.16,1.512,0.063l13.209-2.99c0,0-0.079-0.338-0.175-0.756
	c-0.097-0.416-0.519-0.679-0.94-0.583l-12.025,2.72c-0.422,0.096-1.099,0.068-1.512-0.063L2.683,6.57
	C2.302,6.45,1.992,6.19,1.808,5.839c-0.183-0.35-0.216-0.75-0.094-1.126C1.966,3.938,2.808,3.505,3.584,3.753z"/>
</svg>
