<?xml version="1.0" encoding="utf-8"?>
<!-- Generator: Adobe Illustrator 18.1.1, SVG Export Plug-In . SVG Version: 6.00 Build 0)  -->
<svg version="1.1" id="Layer_1" xmlns="http://www.w3.org/2000/svg" xmlns:xlink="http://www.w3.org/1999/xlink" x="0px" y="0px"
	 viewBox="0 0 25 25" style="enable-background:new 0 0 25 25;" xml:space="preserve">
<path id="plus.svg" d="M1.417,13.917h9.667v9.666c0,0.783,0.634,1.417,1.417,1.417c0.783,0,1.415-0.635,1.417-1.417v-9.666h9.667
	c0.783,0,1.415-0.635,1.417-1.417c0-0.783-0.634-1.417-1.417-1.417h-9.667V1.417C13.917,0.634,13.283,0,12.5,0
	c-0.783,0-1.415,0.635-1.417,1.417v9.667H1.417c-0.783,0-1.415,0.635-1.417,1.417C0.001,13.282,0.634,13.917,1.417,13.917z"/>
</svg>
