<?xml version="1.0" encoding="utf-8"?>
<!-- Generator: Adobe Illustrator 18.1.1, SVG Export Plug-In . SVG Version: 6.00 Build 0)  -->
<svg version="1.1" id="Layer_1" xmlns="http://www.w3.org/2000/svg" xmlns:xlink="http://www.w3.org/1999/xlink" x="0px" y="0px"
	 viewBox="0 0 18.508 18.507" style="enable-background:new 0 0 18.508 18.507;" xml:space="preserve">
<path id="remove.svg" d="M0.415,2.418L7.25,9.254l-6.835,6.835c-0.553,0.553-0.553,1.45,0,2.003s1.45,0.552,2.003,0l6.835-6.835
	l6.836,6.836c0.553,0.553,1.45,0.552,2.003,0c0.553-0.553,0.553-1.45,0-2.003l-6.836-6.836l6.836-6.836
	c0.553-0.553,0.553-1.45,0-2.003s-1.45-0.552-2.003,0L9.254,7.25L2.418,0.415c-0.553-0.553-1.45-0.552-2.003,0
	C-0.137,0.968-0.139,1.865,0.415,2.418z"/>
</svg>
