<?xml version="1.0" encoding="utf-8"?>
<!-- Generator: Adobe Illustrator 18.1.1, SVG Export Plug-In . SVG Version: 6.00 Build 0)  -->
<svg version="1.1" id="Layer_1" xmlns="http://www.w3.org/2000/svg" xmlns:xlink="http://www.w3.org/1999/xlink" x="0px" y="0px"
	 viewBox="0 0 24.507 24.544" style="enable-background:new 0 0 24.507 24.544;" xml:space="preserve">
<path id="search.svg" d="M9.905,0C4.442,0,0,4.341,0,9.68s4.442,9.68,9.905,9.68c2.161,0,4.16-0.681,5.79-1.833l6.864,6.692
	c0.446,0.435,1.157,0.434,1.602-0.001l0,0c0.46-0.449,0.46-1.189,0.001-1.639l-6.737-6.6c1.488-1.694,2.385-3.895,2.385-6.299
	C19.811,4.341,15.369,0,9.905,0z M9.905,1.536c4.609,0,8.334,3.64,8.334,8.144s-3.725,8.144-8.334,8.144s-8.334-3.64-8.334-8.144
	S5.296,1.536,9.905,1.536z"/>
</svg>
