<?xml version="1.0" encoding="utf-8"?>
<!-- Generator: Adobe Illustrator 18.1.1, SVG Export Plug-In . SVG Version: 6.00 Build 0)  -->
<svg version="1.1" id="Layer_1" xmlns="http://www.w3.org/2000/svg" xmlns:xlink="http://www.w3.org/1999/xlink" x="0px" y="0px"
	 viewBox="0 0 25 25" style="enable-background:new 0 0 25 25;" xml:space="preserve">
<path id="setting-line.svg" d="M13.247,1c0.284,0.607,0.774,1.784,1.172,2.795l0.156,0.396l0.393,0.162l1.53,0.631l0.406,0.167
	l0.398-0.185c0.966-0.45,2.109-0.955,2.731-1.198l1.129,1.126c-0.228,0.631-0.713,1.81-1.147,2.808l-0.168,0.388l0.161,0.391
	l0.631,1.532l0.168,0.409l0.415,0.151c1.001,0.363,2.165,0.812,2.777,1.079v1.596c-0.608,0.284-1.785,0.774-2.798,1.173
	l-0.396,0.156l-0.162,0.393l-0.63,1.529l-0.167,0.406l0.186,0.398c0.451,0.965,0.957,2.107,1.2,2.729l-1.129,1.128
	c-0.63-0.229-1.807-0.714-2.803-1.148l-0.389-0.169l-0.392,0.162l-1.531,0.632l-0.407,0.168l-0.151,0.414
	c-0.365,1.002-0.815,2.167-1.083,2.779h-1.596c-0.284-0.606-0.775-1.782-1.173-2.793l-0.156-0.395l-0.393-0.162l-1.53-0.632
	l-0.406-0.168l-0.398,0.185c-0.966,0.45-2.108,0.955-2.73,1.199l-1.128-1.128c0.229-0.631,0.714-1.81,1.147-2.809l0.168-0.388
	l-0.161-0.391l-0.63-1.527l-0.168-0.407l-0.414-0.151C2.779,14.067,1.612,13.615,1,13.347v-1.596
	c0.608-0.284,1.784-0.772,2.796-1.17l0.396-0.156l0.162-0.393l0.631-1.53l0.167-0.406L4.967,7.698
	C4.518,6.733,4.013,5.591,3.77,4.969L4.898,3.84c0.631,0.228,1.81,0.713,2.809,1.147l0.389,0.169l0.392-0.163l1.525-0.632
	l0.406-0.168l0.15-0.413C10.934,2.778,11.385,1.612,11.653,1H13.247 M12.501,17.505c1.562,0,3.007-0.712,3.965-1.952
	c0.957-1.24,1.274-2.836,0.869-4.381c-0.436-1.667-1.795-3.037-3.46-3.49c-0.454-0.123-0.916-0.186-1.374-0.186
	c-1.569,0-3.019,0.717-3.977,1.966c-0.955,1.246-1.264,2.847-0.849,4.393c0.449,1.67,1.818,3.034,3.489,3.475
	C11.605,17.446,12.055,17.505,12.501,17.505 M13.814,0h-2.744C10.881,0,9.63,3.437,9.63,3.437L8.105,4.07
	c0,0-3.099-1.346-3.479-1.346c-0.017,0-0.029,0.003-0.034,0.008l-1.94,1.941c-0.135,0.132,1.41,3.447,1.41,3.447L3.43,9.651
	c0,0-3.43,1.349-3.43,1.531v2.746c0,0.191,3.439,1.444,3.439,1.444l0.63,1.527c0,0-1.467,3.381-1.339,3.512l1.944,1.942
	c0.005,0.005,0.016,0.008,0.031,0.008c0.365,0,3.415-1.42,3.415-1.42l1.53,0.632c0,0,1.35,3.426,1.537,3.426h2.744
	c0.19,0,1.441-3.437,1.441-3.437l1.531-0.632c0,0,3.098,1.348,3.473,1.348c0.016,0,0.028-0.003,0.033-0.008l1.942-1.941
	c0.136-0.135-1.412-3.449-1.412-3.449l0.63-1.529c0,0,3.431-1.351,3.431-1.535v-2.747c0-0.19-3.436-1.436-3.436-1.436l-0.631-1.532
	c0,0,1.469-3.382,1.337-3.514L20.328,2.65c-0.006-0.006-0.017-0.008-0.033-0.008c-0.373,0-3.416,1.418-3.416,1.418l-1.53-0.631
	C15.349,3.429,13.999,0,13.814,0L13.814,0z M12.501,16.505c-0.352,0-0.714-0.046-1.082-0.143c-1.337-0.353-2.419-1.432-2.778-2.767
	c-0.719-2.677,1.297-5.1,3.86-5.1c0.362,0,0.734,0.048,1.112,0.151c1.331,0.362,2.406,1.444,2.755,2.778
	C17.066,14.093,15.06,16.505,12.501,16.505L12.501,16.505z"/>
</svg>
