<?xml version="1.0" encoding="utf-8"?>
<!-- Generator: Adobe Illustrator 18.1.1, SVG Export Plug-In . SVG Version: 6.00 Build 0)  -->
<svg version="1.1" id="Layer_1" xmlns="http://www.w3.org/2000/svg" xmlns:xlink="http://www.w3.org/1999/xlink" x="0px" y="0px"
	 viewBox="0 0 25 25" style="enable-background:new 0 0 25 25;" xml:space="preserve">
<g id="setting.svg">
	<path d="M21.564,9.633l-0.631-1.532c0,0,1.469-3.382,1.337-3.514L20.328,2.65c-0.136-0.134-3.449,1.41-3.449,1.41l-1.53-0.631
		c0,0-1.35-3.429-1.535-3.429h-2.744C10.881,0,9.63,3.437,9.63,3.437L8.105,4.07c0,0-3.382-1.469-3.514-1.337l-1.94,1.941
		c-0.135,0.132,1.41,3.447,1.41,3.447L3.43,9.651c0,0-3.43,1.349-3.43,1.531v2.746c0,0.191,3.439,1.444,3.439,1.444l0.63,1.527
		c0,0-1.467,3.381-1.339,3.512l1.944,1.942c0.131,0.131,3.446-1.412,3.446-1.412l1.53,0.632c0,0,1.35,3.426,1.537,3.426h2.744
		c0.19,0,1.441-3.437,1.441-3.437l1.531-0.632c0,0,3.376,1.469,3.506,1.34l1.942-1.941c0.136-0.135-1.412-3.449-1.412-3.449
		l0.63-1.529c0,0,3.431-1.351,3.431-1.535v-2.747C25,10.879,21.564,9.633,21.564,9.633z M16.368,11.425
		c0.794,3.035-1.911,5.739-4.949,4.938c-1.337-0.353-2.419-1.432-2.778-2.767c-0.821-3.055,1.921-5.779,4.972-4.949
		C14.944,9.009,16.018,10.09,16.368,11.425z"/>
</g>
</svg>
