<?xml version="1.0" encoding="utf-8"?>
<!-- Generator: Adobe Illustrator 18.1.1, SVG Export Plug-In . SVG Version: 6.00 Build 0)  -->
<svg version="1.1" id="Layer_1" xmlns="http://www.w3.org/2000/svg" xmlns:xlink="http://www.w3.org/1999/xlink" x="0px" y="0px"
	 viewBox="0 0 22.826 25" style="enable-background:new 0 0 22.826 25;" xml:space="preserve">
<g id="shutdown.svg">
	<defs>
		<path id="SVGID_1_" d="M14.13,2.499c4.991,1.219,8.696,5.721,8.696,11.088C22.826,19.89,17.716,25,11.413,25
			C5.11,25,0,19.89,0,13.587C0,8.22,3.704,3.719,8.696,2.499v2.255c-3.776,1.16-6.522,4.676-6.522,8.833
			c0,5.103,4.137,9.239,9.239,9.239c5.103,0,9.239-4.137,9.239-9.239c0-4.157-2.745-7.673-6.522-8.833V2.499L14.13,2.499
			L14.13,2.499z M10.326,1.082C10.326,0.484,10.809,0,11.413,0c0.6,0,1.087,0.484,1.087,1.082v9.792
			c0,0.598-0.482,1.082-1.087,1.082c-0.6,0-1.087-0.484-1.087-1.082V1.082L10.326,1.082z"/>
	</defs>
	<use xlink:href="#SVGID_1_"  style="overflow:visible;"/>
	<clipPath id="SVGID_2_">
		<use xlink:href="#SVGID_1_"  style="overflow:visible;"/>
	</clipPath>
</g>
</svg>
