<?xml version="1.0" encoding="utf-8"?>
<!-- Generator: Adobe Illustrator 18.1.1, SVG Export Plug-In . SVG Version: 6.00 Build 0)  -->
<svg version="1.1" id="Layer_1" xmlns="http://www.w3.org/2000/svg" xmlns:xlink="http://www.w3.org/1999/xlink" x="0px" y="0px"
	 viewBox="0 0 23.537 23.88" style="enable-background:new 0 0 23.537 23.88;" xml:space="preserve">
<g id="view-list-line.svg">
	<path d="M21.803,23.88c0.951,0,1.734-0.781,1.734-1.73v-1.153c0-0.949-0.783-1.73-1.734-1.73H10.034
		c-0.951,0-1.734,0.781-1.734,1.73v1.153c0,0.949,0.783,1.73,1.734,1.73H21.803z M9.456,22.15v-1.153
		c0-0.326,0.251-0.577,0.578-0.577h11.768c0.327,0,0.578,0.251,0.578,0.577v1.153c0,0.326-0.251,0.577-0.578,0.577h-9.926
		c-0.077-0.016-0.157-0.016-0.235,0h-1.608C9.708,22.727,9.456,22.476,9.456,22.15z"/>
	<path d="M21.803,14.247c0.951,0,1.734-0.781,1.734-1.73v-1.153c0-0.949-0.783-1.73-1.734-1.73H10.034
		c-0.951,0-1.734,0.781-1.734,1.73v1.153c0,0.949,0.783,1.73,1.734,1.73H21.803z M9.456,12.517v-1.153
		c0-0.326,0.251-0.577,0.578-0.577h11.768c0.327,0,0.578,0.251,0.578,0.577v1.153c0,0.326-0.251,0.577-0.578,0.577h-9.926
		c-0.077-0.016-0.157-0.016-0.235,0h-1.608C9.708,13.094,9.456,12.843,9.456,12.517z"/>
	<path d="M21.803,4.613c0.951,0,1.734-0.781,1.734-1.73V1.73c0-0.949-0.783-1.73-1.734-1.73L10.034,0C9.083,0,8.3,0.781,8.3,1.73
		v1.153c0,0.949,0.783,1.73,1.734,1.73H21.803z M9.456,2.883V1.73c0-0.326,0.251-0.577,0.578-0.577h11.768
		c0.327,0,0.578,0.251,0.578,0.577v1.153c0,0.326-0.251,0.577-0.578,0.577h-9.926c-0.077-0.016-0.157-0.016-0.235,0h-1.608
		C9.708,3.46,9.456,3.209,9.456,2.883z"/>
	<path d="M5.203,23.88c0.951,0,1.734-0.781,1.734-1.73v-1.153c0-0.949-0.783-1.73-1.734-1.73H1.734C0.783,19.267,0,20.048,0,20.997
		l0,1.153c0,0.949,0.783,1.73,1.734,1.73H5.203z M1.156,22.15v-1.153c0-0.326,0.251-0.577,0.578-0.577h3.468
		c0.327,0,0.578,0.251,0.578,0.577v1.153c0,0.326-0.251,0.577-0.578,0.577H3.577c-0.077-0.016-0.157-0.016-0.235,0H1.734
		C1.408,22.727,1.156,22.476,1.156,22.15z"/>
	<path d="M5.203,14.247c0.951,0,1.734-0.781,1.734-1.73v-1.153c0-0.949-0.783-1.73-1.734-1.73H1.734C0.783,9.634,0,10.415,0,11.364
		l0,1.153c0,0.949,0.783,1.73,1.734,1.73H5.203z M1.156,12.517v-1.153c0-0.326,0.251-0.577,0.578-0.577h3.468
		c0.327,0,0.578,0.251,0.578,0.577v1.153c0,0.326-0.251,0.577-0.578,0.577H3.577c-0.077-0.016-0.157-0.016-0.235,0H1.734
		C1.408,13.094,1.156,12.843,1.156,12.517z"/>
	<path d="M5.203,4.613c0.951,0,1.734-0.781,1.734-1.73V1.73C6.937,0.781,6.154,0,5.203,0L1.734,0C0.783,0,0,0.781,0,1.73l0,1.153
		c0,0.949,0.783,1.73,1.734,1.73H5.203z M1.156,2.883V1.73c0-0.326,0.251-0.577,0.578-0.577h3.468c0.327,0,0.578,0.251,0.578,0.577
		v1.153c0,0.326-0.251,0.577-0.578,0.577H3.577c-0.077-0.016-0.157-0.016-0.235,0H1.734C1.408,3.46,1.156,3.209,1.156,2.883z"/>
</g>
</svg>
