<?xml version="1.0" encoding="utf-8"?>
<!-- Generator: Adobe Illustrator 18.1.1, SVG Export Plug-In . SVG Version: 6.00 Build 0)  -->
<svg version="1.1" id="Layer_1" xmlns="http://www.w3.org/2000/svg" xmlns:xlink="http://www.w3.org/1999/xlink" x="0px" y="0px"
	 viewBox="957 335 20 22.2" enable-background="new 957 335 20 22.2" xml:space="preserve">
<g>
	<g>
		<rect x="967.7" y="354.6" width="1.8" height="2.7"/>
		<rect x="962.4" y="354.6" opacity="0.4" width="1.8" height="2.7"/>
		<rect x="957" y="354.6" opacity="0.1" width="1.8" height="2.7"/>
		<rect x="967.7" y="349.2" opacity="0.1" width="1.8" height="2.7"/>
		<rect x="962.4" y="349.2" opacity="0.4" width="1.8" height="2.7"/>
		<rect x="957" y="349.2" width="1.8" height="2.7"/>
	</g>
	<g>
		<polygon points="958.4,345.1 958.4,335.3 957,335.3 957,345.9 962.3,345.9 962.6,345.1 		"/>
		<path d="M967.2,335.4l-4.2,10.5h1l1.4-3.8h4l4.8,15.2h2.7l-8.6-22.2L967.2,335.4z M965.8,341.3l1.8-5l1.7,5H965.8z"/>
	</g>
</g>
</svg>
