<?xml version="1.0" encoding="UTF-8"?>
<svg enable-background="new 0 0 60 30" overflow="scroll" version="1.1" viewBox="0 0 60 30" xml:space="preserve" xmlns="http://www.w3.org/2000/svg">
<style type="text/css">
    .st0{fill:#036CB5;}
    .st1{fill:#FFFFFF;}
    .st2{filter:url(#b);}
    .st3{mask:url(#a);fill:#FFFFFF;}
    .st4{fill:#C0DAEC;}
    .st5{filter:url(#Adobe_OpacityMaskFilter_1_);}
    .st6{mask:url(#mask-2_2_);fill:#FFFFFF;}
</style>
    <path class="st0" d="m55.2 30h-50.4c-2.6 0-4.8-2.2-4.8-4.8v-20.4c0-2.6 2.2-4.8 4.8-4.8h50.3c2.7 0 4.9 2.2 4.9 4.8v20.3c0 2.7-2.2 4.9-4.8 4.9z"/>
    <path class="st1" d="m50.6 6.5c1.4 0 2.7 0.3 3.8 0.9l0.6 0.3-0.8 0.7-1.2-1.2-2.1 1.8-1.2-1.3-3.8 3.3 2.4 2.7-1 0.8 2.4 2.7-1 0.8 3.4 3.8 2-1.8 1.8 2c-0.4 0.3-0.7 0.5-1.2 0.8-1.3 0.7-2.7 1.1-4.3 1.1-4.8 0-8.7-3.9-8.7-8.6 0.1-4.9 4-8.8 8.9-8.8zm-1.6 8.1l2.1-1.8 1.9 2.1-2.1 1.8-1.9-2.1zm1.4 3.6l2.1-1.9 1.9 2.1-2.1 1.8-1.9-2zm-2.9-7.1l2.1-1.8 1.9 2.1-2.1 1.8-1.9-2.1zm3.8-1l1.6-1.4 1.4 1.5-1.6 1.4-1.4-1.5zm2.8 6.3l1.6-1.4 1.4 1.5-1.6 1.5-1.4-1.6zm1.3 3.2l1.6-1.4 1.4 1.5-1.6 1.4-1.4-1.5zm0.7-7.2l1-0.9 0.9 1-1 0.9-0.9-1zm-1.4-3l1-0.9 0.9 1-1 0.9-0.9-1zm2.7 6.1l1-0.9 1 1-1.1 0.9-0.9-1zm-4.7-2.3l1.6-1.4 1.4 1.5-1.6 1.4-1.4-1.5z"/>
        <g transform="translate(0 2.6088)">
            <defs>
                <filter id="b" x="2.2" y="8.8" width="6.7" height="5.9" filterUnits="userSpaceOnUse">
                    <feColorMatrix values="1 0 0 0 0  0 1 0 0 0  0 0 1 0 0  0 0 0 1 0"/>
                </filter>
            </defs>
            <mask id="a" x="2.2" y="8.8" width="6.7" height="5.9" maskUnits="userSpaceOnUse">
                <g class="st2">
                    <polygon class="st1" points="2.2 8.8 2.2 14.7 8.9 14.7 8.9 8.8"/>
                </g>
            </mask>
            <polygon class="st3" points="5.5 10.5 5.5 10.5 4.4 14.7 3.5 14.7 2.2 8.8 3.1 8.8 4 13.2 4.1 13.2 5.2 8.8 5.9 8.8 7 13.2 7.1 13.2 7.9 8.8 8.9 8.8 7.6 14.7 6.7 14.7"/>
        </g>
        <path class="st1" d="m10.1 14.8h1.9c0-0.9-0.5-1.2-0.9-1.2-0.5 0-0.9 0.4-1 1.2m2.5 1.5v0.7c-0.4 0.2-0.9 0.4-1.5 0.4-1.4 0-2-0.9-2-2.2s0.6-2.2 1.9-2.2c1 0 1.7 0.7 1.7 2v0.3h-2.7c0 1 0.4 1.4 1.3 1.4 0.5 0.1 0.9-0.1 1.3-0.4"/>
        <path class="st1" d="m14.7 16.7c0.3 0.1 0.6 0.1 0.8 0.1 0.6 0 1.1-0.4 1.1-1.7 0-1.1-0.4-1.4-0.9-1.4-0.3 0-0.6 0.1-0.9 0.3v2.7zm0-3.3c0.2-0.1 0.7-0.3 1.1-0.3 1 0 1.6 0.7 1.6 2 0 1.6-0.7 2.3-1.9 2.3-0.4 0-1.1-0.1-1.6-0.4v-5.8l0.9-0.2v2.4z"/>
        <polygon class="st1" points="21.1 16 21.2 16 22.9 11.4 23.9 11.4 23.9 17.3 23.1 17.3 23.1 13 23 13 21.3 17.3 20.8 17.3 19.1 13.1 19 13.1 19 17.3 18.3 17.3 18.3 11.4 19.3 11.4"/>
        <path class="st1" d="m27.6 15.2c0-1.1-0.5-1.6-1-1.6s-1 0.5-1 1.6 0.4 1.6 1 1.6 1-0.5 1-1.6m-2.9 0c0-1.5 0.8-2.2 1.9-2.2s1.9 0.7 1.9 2.2c0 1.4-0.8 2.2-1.9 2.2-1.2 0-1.9-0.8-1.9-2.2"/>
        <path class="st1" d="m29.1 13.6c0.4-0.2 1.2-0.6 2.1-0.6 1 0 1.4 0.4 1.4 1.2v3h-0.9v-2.8c0-0.7-0.3-0.8-0.7-0.8-0.3 0-0.8 0.1-1 0.3v3.3h-0.9v-3.6z"/>
        <path class="st1" d="m34.4 14.8h1.9c0-0.9-0.5-1.2-0.9-1.2-0.5 0-0.9 0.4-1 1.2m2.6 1.5v0.7c-0.4 0.2-0.9 0.4-1.5 0.4-1.4 0-2-0.9-2-2.2s0.6-2.2 1.9-2.2c1 0 1.7 0.7 1.7 2v0.3h-2.7c0 1 0.4 1.4 1.3 1.4 0.4 0.1 0.8-0.1 1.3-0.4"/>
        <path class="st1" d="m40.5 13h0.9l-1.5 4.2c-0.4 1.1-0.9 1.7-1.9 1.7v-0.7c0.6 0 0.9-0.4 1.1-1.1l-1.5-4.1h0.9l1.1 3.1 0.9-3.1z"/>
            <path class="st4" d="m11.1 21.1v-0.4c0.3 0.2 0.6 0.2 0.9 0.2 0.2 0 0.4 0 0.5-0.1s0.2-0.2 0.2-0.3-0.1-0.3-0.2-0.3c-0.1-0.1-0.3-0.2-0.6-0.3-0.1 0-0.2-0.1-0.2-0.1s-0.1 0-0.2-0.1c-0.1 0-0.1-0.1-0.2-0.1 0 0-0.1 0-0.1-0.1-0.1 0-0.1-0.1-0.1-0.1s0-0.1-0.1-0.1l-0.1-0.1v-0.1-0.2c0-0.2 0.1-0.4 0.3-0.6 0.2-0.1 0.4-0.2 0.7-0.2s0.5 0 0.8 0.2v0.4c-0.3-0.1-0.5-0.2-0.8-0.2-0.2 0-0.3 0-0.4 0.1s-0.1 0.2-0.1 0.3 0 0.2 0.1 0.3 0.3 0.1 0.5 0.2c0.4 0.1 0.7 0.3 0.8 0.4 0.2 0.1 0.2 0.3 0.2 0.5s-0.1 0.5-0.3 0.6c-0.2 0.2-0.5 0.2-0.9 0.2-0.1 0.2-0.4 0.2-0.7 0zm4.2 0.2h-0.4v-0.2c-0.2 0.2-0.5 0.3-0.7 0.3s-0.3-0.1-0.5-0.2c-0.1-0.1-0.2-0.2-0.2-0.4v-0.2c0-0.1 0.1-0.2 0.2-0.2 0.1-0.1 0.2-0.1 0.3-0.2 0.1 0 0.3-0.1 0.5-0.1h0.3v-0.1c0-0.2 0-0.3-0.1-0.4s-0.2-0.1-0.3-0.1c-0.2 0-0.4 0.1-0.7 0.2v-0.3c0.3-0.1 0.6-0.2 0.9-0.2s0.5 0.1 0.6 0.2 0.2 0.3 0.2 0.5v1.4h-0.1zm-0.4-1h-0.2c-0.4 0-0.7 0.1-0.7 0.4 0 0.1 0 0.2 0.1 0.2s0.1 0.1 0.2 0.1 0.2 0 0.3-0.1 0.2-0.1 0.2-0.2v-0.4zm1 1.8v-2.7c0.1-0.1 0.3-0.2 0.4-0.2 0.2-0.1 0.3-0.1 0.5-0.1 0.6 0 0.9 0.3 0.9 1 0 0.4-0.1 0.6-0.2 0.8s-0.4 0.3-0.6 0.3-0.4 0-0.5-0.1v1h-0.5zm0.5-2.5v1.3c0.1 0.1 0.1 0.1 0.2 0.1h0.2c0.2 0 0.3-0.1 0.4-0.2s0.1-0.3 0.1-0.6 0-0.4-0.1-0.6c-0.1-0.1-0.2-0.2-0.3-0.2-0.3 0-0.4 0.1-0.5 0.2zm2.3-0.5v2.1h-0.4v-2l0.4-0.1zm-0.5-0.6c0-0.1 0-0.1 0.1-0.2s0.1-0.1 0.2-0.1 0.1 0 0.2 0.1 0.1 0.1 0.1 0.2 0 0.1-0.1 0.2-0.1 0.1-0.2 0.1-0.1 0-0.2-0.1c-0.1 0-0.1-0.1-0.1-0.2zm2.1 2.5c0.2 0 0.4-0.1 0.7-0.2v0.3c-0.2 0.1-0.5 0.2-0.7 0.2-0.3 0-0.6-0.1-0.7-0.3-0.2-0.2-0.2-0.5-0.2-0.8s0.1-0.6 0.2-0.8c0.2-0.2 0.4-0.3 0.7-0.3s0.5 0.1 0.6 0.3 0.2 0.4 0.2 0.8v0.2h-1.3c0 0.2 0.1 0.4 0.2 0.5-0.1 0.1 0.1 0.1 0.3 0.1zm-0.1-1.6c-0.1 0-0.2 0.1-0.3 0.2s-0.1 0.3-0.2 0.5h0.9c0-0.2-0.1-0.4-0.1-0.5-0.1-0.1-0.2-0.2-0.3-0.2zm1.4 1.9v-1.8c0.3-0.2 0.7-0.3 1-0.3 0.2 0 0.4 0.1 0.5 0.2s0.2 0.3 0.2 0.5v1.5h-0.4v-1.4c0-0.2 0-0.3-0.1-0.3-0.1-0.1-0.2-0.1-0.3-0.1-0.2 0-0.3 0.1-0.5 0.2v1.7h-0.4zm2.8-2.1h0.6l-0.1 0.3h-0.5v1.1c0 0.3 0.1 0.4 0.4 0.4 0.1 0 0.2 0 0.3-0.1v0.3c-0.1 0.1-0.3 0.1-0.5 0.1s-0.4-0.1-0.5-0.2-0.1-0.3-0.1-0.5v-1.6l0.4-0.3v0.5zm1.4-0.1v2.1h-0.4v-2l0.4-0.1zm-0.5-0.6c0-0.1 0-0.1 0.1-0.2s0.1-0.1 0.2-0.1 0.1 0 0.2 0.1 0.1 0.1 0.1 0.2 0 0.1-0.1 0.2-0.1 0.1-0.2 0.1-0.1 0-0.2-0.1c0 0-0.1-0.1-0.1-0.2zm3.4 0.8v0.3c-0.2-0.1-0.4-0.2-0.6-0.2-0.1 0-0.2 0-0.3 0.1-0.1 0-0.1 0.1-0.1 0.2s0 0.2 0.1 0.2c0.1 0.1 0.2 0.1 0.4 0.2 0.1 0 0.2 0.1 0.2 0.1s0.1 0 0.2 0.1c0.1 0 0.1 0.1 0.2 0.1 0 0 0.1 0.1 0.1 0.2v0.2c0 0.2-0.1 0.3-0.2 0.5-0.2 0.1-0.4 0.2-0.6 0.2-0.3 0-0.5-0.1-0.7-0.2v-0.3c0.2 0.1 0.5 0.2 0.7 0.2 0.3 0 0.5-0.1 0.5-0.3v-0.1s0-0.1-0.1-0.1c0 0-0.1 0-0.1-0.1-0.1 0-0.1 0-0.1-0.1 0 0-0.1 0-0.2-0.1-0.1 0-0.2-0.1-0.3-0.1s-0.1-0.1-0.2-0.1-0.1-0.1-0.1-0.2v-0.2c0-0.1 0-0.2 0.1-0.3l0.2-0.2c0.1 0 0.2-0.1 0.2-0.1h0.2c0.1-0.1 0.3 0 0.5 0.1zm2.3 2h-0.4v-0.2c-0.2 0.2-0.5 0.3-0.7 0.3s-0.3-0.1-0.5-0.2c-0.1-0.1-0.2-0.2-0.2-0.4v-0.2c0-0.1 0.1-0.2 0.2-0.2 0.1-0.1 0.2-0.1 0.3-0.2 0.1 0 0.3-0.1 0.5-0.1h0.3v-0.1c0-0.2 0-0.3-0.1-0.4s-0.2-0.1-0.3-0.1c-0.2 0-0.4 0.1-0.7 0.2v-0.3c0.3-0.1 0.6-0.2 0.9-0.2s0.5 0.1 0.6 0.2 0.2 0.3 0.2 0.5v1.4h-0.1zm-0.4-1h-0.2c-0.4 0-0.7 0.1-0.7 0.4 0 0.1 0 0.2 0.1 0.2s0.1 0.1 0.2 0.1 0.2 0 0.3-0.1 0.2-0.1 0.2-0.2v-0.4h0.1zm1.5-1.1h0.6l-0.1 0.3h-0.5v1.1c0 0.3 0.1 0.4 0.4 0.4 0.1 0 0.2 0 0.3-0.1v0.3c-0.1 0.1-0.3 0.1-0.5 0.1s-0.4-0.1-0.5-0.2-0.1-0.3-0.1-0.5v-1.6l0.4-0.3v0.5z"/>
</svg>
