<?xml version="1.0" encoding="UTF-8"?><svg enable-background="new 0 0 229.565 100" version="1.1" viewBox="0 0 229.565 100" xml:space="preserve" xmlns="http://www.w3.org/2000/svg"><path d="M0.001,49.605c0-5.615,0.471-9.179,12.099-17.859C21.728,24.558,52.587,0,52.587,0v40.996h23.467    V100H7.331C3.3,100,0,96.7,0,92.669L0.001,49.605z" fill="#F5D500"/><polygon points="52.587 40.996 52.587 64.751 9.464 94.128 63.985 76.389 63.985 40.996" fill="#CEB300"/><path d="m32.881 39.767c2.522-3.005 6.205-4.066 8.227-2.369s1.618 5.509-0.904 8.514c-2.52 3.005-6.204 4.064-8.227 2.367-2.022-1.696-1.617-5.507 0.904-8.512"/><path d="m116.05 68.934v0.595c0 4.576-0.337 7.007-0.751 8.74-0.362 1.603-0.879 2.973-1.706 4.472h7.782v-13.807h-5.325zm-4.888 13.808c0.414-0.749 1.371-2.559 1.913-4.861 0.492-2.171 0.595-4.679 0.595-8.196v-2.896h10.187v15.953h2.172v6.155h-2.326v-4.009h-12.179v4.009h-2.327v-6.155h1.965z"/><path d="m136.44 77.415c-0.076-0.776-0.44-1.707-0.957-2.249-0.621-0.647-1.345-0.776-2.016-0.776-0.75 0-1.398 0.155-1.992 0.724-0.543 0.517-1.008 1.396-1.137 2.301h6.102zm2.172 5.844c-0.958 1.113-2.327 1.914-4.706 1.914-1.448 0-2.974-0.207-4.319-1.603-1.06-1.112-1.731-2.793-1.731-4.628 0-1.654 0.569-3.543 1.731-4.809 0.958-1.034 2.225-1.603 3.905-1.603 1.319 0 2.56 0.336 3.568 1.292 1.499 1.422 1.888 3.801 1.862 5.455h-8.688c0.026 1.138 0.465 2.379 1.189 3.129 0.75 0.749 1.63 0.905 2.379 0.905 0.725 0 2.069-0.104 3.361-1.318l1.449 1.266z"/><polygon points="144.3 84.888 142.15 84.888 142.15 72.812 144.3 72.812 144.3 77.441 150.06 77.441 150.06 72.812 152.21 72.812 152.21 84.888 150.06 84.888 150.06 79.303 144.3 79.303"/><path d="m160.38 83.026c0.517 0 1.474-0.052 2.069-0.517 0.337-0.259 0.75-0.751 0.75-1.63 0-0.827-0.388-1.318-0.698-1.576-0.595-0.465-1.603-0.517-2.197-0.517h-1.914v4.24h1.99zm-4.136-10.214h2.146v4.112h2.172c1.681 0 2.974 0.336 3.854 1.163 0.957 0.905 1.111 2.069 1.111 2.844 0 1.5-0.594 2.354-1.085 2.819-1.034 0.983-2.612 1.138-4.215 1.138h-3.982v-12.076z"/><polygon points="170.58 84.888 168.44 84.888 168.44 72.812 176.17 72.812 176.17 74.726 170.58 74.726"/><polygon points="186.78 74.028 186.78 72.812 188.93 72.812 188.93 84.888 186.78 84.888 186.78 76.665 181.04 83.647 181.04 84.888 178.89 84.888 178.89 72.812 181.04 72.812 181.04 81.01"/><path d="m122.98 34.926h-4.12c-4.046 0-7.479 3.081-7.479 9.062 0 3.588 1.663 6.234 4.625 7.539l-5.527 10.004c-0.181 0.327 0 0.58 0.288 0.58h2.566c0.217 0 0.362-0.073 0.433-0.253l5.023-9.824h1.807v9.824c0 0.108 0.109 0.253 0.252 0.253h2.242c0.216 0 0.289-0.108 0.289-0.289v-26.533c-2e-3 -0.254-0.147-0.363-0.399-0.363m-2.385 14.789h-1.518c-2.385 0-4.698-1.739-4.698-6.089 0-4.532 2.168-6.38 4.371-6.38h1.844v12.469z" fill="#DF1422"/><path d="m136.56 43.938h-2.241c-0.181 0-0.288 0.145-0.288 0.253v6.923h-4.157v-6.923c0-0.18-0.071-0.253-0.252-0.253h-2.241c-0.179 0-0.288 0.109-0.288 0.253v17.616c0 0.182 0.073 0.29 0.252 0.29h2.277c0.145 0 0.252-0.108 0.252-0.29v-8.409h4.157v8.409c0 0.182 0.108 0.29 0.288 0.29h2.241c0.181 0 0.253-0.144 0.253-0.29v-17.616c0-0.145-0.108-0.253-0.253-0.253"/><path d="m187.71 60.937l-0.289-1.232c-0.036-0.109-0.072-0.145-0.179-0.145-0.181 0-1.157 0.398-2.566 0.398-2.746 0-4.084-2.645-4.084-6.85 0-3.698 1.121-7.358 3-7.358 0.506 0 1.121 0.145 2.095 1.052 0.109 0.108 0.181 0.145 0.289 0.145 0.109 0 0.217-0.073 0.326-0.254l0.976-1.594c0.072-0.11 0.108-0.22 0.108-0.328 0-0.145-0.144-0.253-0.362-0.361-1.481-0.762-2.492-0.907-3.36-0.907-3.397 0-6.035 4.059-6.035 10.402 0 5.473 2.53 8.627 6.143 8.627 1.519 0 3.144-0.725 3.795-1.197 0.143-0.108 0.178-0.253 0.143-0.398"/><path d="m172 52.129l4.336-7.938c0.073-0.109 0.036-0.253-0.109-0.253h-2.132c-0.615 0-0.831 0.217-1.047 0.688l-3.254 6.778c-0.179 0.399-0.361 0.652-0.541 0.761v-7.974c0-0.145-0.072-0.253-0.217-0.253h-2.349c-0.108 0-0.217 0.108-0.217 0.253v17.652c0 0.108 0.073 0.253 0.217 0.253h2.349c0.144 0 0.217-0.11 0.217-0.253v-9.098c0.108 0.073 0.181 0.181 0.253 0.327l4.119 8.48c0.217 0.435 0.542 0.544 1.013 0.544h2.312c0.144 0 0.181-0.145 0.108-0.253l-5.058-9.714z"/><path d="m151.3 59.813h-0.434c-0.542 0-0.687-0.217-0.687-0.652v-14.97c0-0.181-0.072-0.253-0.217-0.253h-7.226c-0.181 0-0.289 0.109-0.289 0.253v1.305c0 4.386-0.253 10.04-2.566 14.318h-0.796c-0.217 0-0.289 0.11-0.289 0.29v5.292c0 0.182 0.145 0.253 0.253 0.253h1.734c0.397 0 0.542-0.289 0.542-0.544v-3.008h7.733v3.299c0 0.144 0.107 0.253 0.252 0.253h1.844c0.216 0 0.432-0.181 0.432-0.544v-5.001c1e-3 -0.181-0.107-0.291-0.286-0.291m-3.904 0h-5.239c1.844-3.153 2.566-6.705 2.818-11.055 0.073-0.943 0.109-1.922 0.109-2.537h2.312v13.592z"/><path d="m158.67 43.503c-3.901 0-5.637 4.929-5.637 10.293 0 5.474 2.457 8.735 6.071 8.735 1.77 0 3.324-0.687 4.118-1.196 0.145-0.072 0.181-0.181 0.145-0.326l-0.289-1.232c-0.037-0.145-0.109-0.217-0.289-0.217-0.143 0-1.192 0.397-2.674 0.397-2.782 0-4.083-2.427-4.083-5.617v-0.858s1.409 0.169 2.24 0.169h5.276v-1.523c0-5.616-1.989-8.625-4.878-8.625m-0.398 7.866c-0.831 0-2.132 0.144-2.132 0.144s0-0.544 0.073-1.124c0.324-3.081 1.083-4.639 2.348-4.639 1.157 0 1.879 1.594 2.059 4.385 0.036 0.579 0.036 1.233 0.036 1.233h-2.384z"/><path d="m93.735 30.098h109.29l18.377 31.728-18.38 31.748h-109.29v-63.476zm-7.174-6.445v76.347h120.96l22.039-38.173-22.039-38.173h-120.96z" fill="#F5D500"/></svg>