<?xml version="1.0" encoding="utf-8"?>
<!-- Generator: Adobe Illustrator 18.1.1, SVG Export Plug-In . SVG Version: 6.00 Build 0)  -->
<svg version="1.1" id="Layer_1" xmlns="http://www.w3.org/2000/svg" xmlns:xlink="http://www.w3.org/1999/xlink" x="0px" y="0px"
	 viewBox="0 0 25 22" style="enable-background:new 0 0 25 22;" xml:space="preserve">
<path id="barcode-line.svg" d="M0,0.867v20.266C0,21.612,0.388,22,0.867,22h23.266C24.612,22,25,21.612,25,21.133V0.867
	C25,0.388,24.612,0,24.133,0H0.867C0.388,0,0,0.388,0,0.867z M3,19.55C3,19.799,2.799,20,2.55,20h-1.1C1.201,20,1,19.799,1,19.55
	V2.45C1,2.201,1.201,2,1.45,2h1.1C2.799,2,3,2.201,3,2.45V19.55z M7,19.55C7,19.799,6.799,20,6.55,20h-1.1
	C5.201,20,5,19.799,5,19.55V2.45C5,2.201,5.201,2,5.45,2h1.1C6.799,2,7,2.201,7,2.45V19.55z M9,19.55C9,19.799,8.799,20,8.55,20
	h-0.1C8.201,20,8,19.799,8,19.55V2.45C8,2.201,8.201,2,8.45,2h0.1C8.799,2,9,2.201,9,2.45V19.55z M15,19.55
	c0,0.249-0.201,0.45-0.45,0.45h-3.1C11.201,20,11,19.799,11,19.55V2.45C11,2.201,11.201,2,11.45,2h3.1C14.799,2,15,2.201,15,2.45
	V19.55z M19,19.55c0,0.249-0.201,0.45-0.45,0.45h-0.1C18.201,20,18,19.799,18,19.55V2.45C18,2.201,18.201,2,18.45,2h0.1
	C18.799,2,19,2.201,19,2.45V19.55z M22,19.55c0,0.249-0.201,0.45-0.45,0.45h-1.1C20.201,20,20,19.799,20,19.55V2.45
	C20,2.201,20.201,2,20.45,2h1.1C21.799,2,22,2.201,22,2.45V19.55z"/>
</svg>
