<?xml version="1.0" encoding="utf-8"?>
<!-- Generator: Adobe Illustrator 18.1.1, SVG Export Plug-In . SVG Version: 6.00 Build 0)  -->
<svg version="1.1" id="Layer_1" xmlns="http://www.w3.org/2000/svg" xmlns:xlink="http://www.w3.org/1999/xlink" x="0px" y="0px"
	 viewBox="0 0 24.931 25" style="enable-background:new 0 0 24.931 25;" xml:space="preserve">
<path id="checkmark-circle.svg" d="M6.5,11L6.5,11c-0.483,0.483-0.483,1.267,0,1.75l4.266,4.266c0.268,0.268,0.701,0.268,0.969,0
	L22.875,5.875c0.483-0.483,0.483-1.267,0-1.75l0,0c-0.483-0.483-1.267-0.483-1.75,0l-9.391,9.391c-0.268,0.268-0.701,0.268-0.969,0
	L8.25,11C7.767,10.517,6.983,10.517,6.5,11z M22.44,13.597c-0.626,5.675-6.051,9.959-12.097,8.674
	c-3.856-0.82-6.915-3.954-7.657-7.826C1.472,8.102,6.364,2.5,12.5,2.5c0.75,0,1.43,0.07,2.092,0.211
	c0.412,0.087,0.84-0.018,1.138-0.316l0.064-0.064c0.669-0.669,0.339-1.824-0.586-2.023C14.319,0.118,13.41,0,12.5,0
	C5.447,0-0.291,5.92,0.011,13.037c0.266,6.262,5.332,11.484,11.583,11.931c6.804,0.486,12.6-4.56,13.328-11.08
	c0.083-0.739-0.506-1.388-1.25-1.388h0C23.042,12.5,22.509,12.97,22.44,13.597z"/>
</svg>
