<?xml version="1.0" encoding="utf-8"?>
<!-- Generator: Adobe Illustrator 18.1.1, SVG Export Plug-In . SVG Version: 6.00 Build 0)  -->
<svg version="1.1" id="Layer_1" xmlns="http://www.w3.org/2000/svg" xmlns:xlink="http://www.w3.org/1999/xlink" x="0px" y="0px"
	 viewBox="0 0 25 21.366" style="enable-background:new 0 0 25 21.366;" xml:space="preserve">
<g id="code-editor-line.svg">
	<path d="M5.204,0C4.125,0,3.21,0.83,3.12,1.905L3.055,2.638C2.136,2.81,1.416,3.584,1.329,4.543l-1.319,14.38
		c-0.119,1.303,0.906,2.443,2.215,2.443H12.5h10.276c1.308,0,2.334-1.14,2.215-2.443l-1.319-14.38
		c-0.088-0.959-0.808-1.734-1.726-1.905L21.88,1.905C21.79,0.83,20.875,0,19.796,0H5.204z M5.204,1.042h14.591
		c0.547,0,0.997,0.416,1.042,0.961L21.88,14.51c0.003,0.033,0,0.065,0,0.098c0,0.043,0.005,0.089,0,0.13
		c-0.065,0.51-0.502,0.896-1.042,0.896H4.162c-0.54,0-0.977-0.386-1.042-0.896c-0.005-0.042,0-0.087,0-0.13
		c0-0.032-0.003-0.065,0-0.098L4.162,2.003C4.208,1.458,4.658,1.042,5.204,1.042z M2.957,3.762l-0.879,10.65
		c-0.006,0.067-0.001,0.13,0,0.195v2.589c0,1.145,0.939,2.084,2.084,2.084h16.676c1.145,0,2.084-0.939,2.084-2.084v-2.589
		c0.001-0.066,0.006-0.128,0-0.195l-0.879-10.65c0.332,0.159,0.567,0.472,0.603,0.863l1.319,14.396
		c0.065,0.709-0.477,1.303-1.189,1.303H12.5H2.224c-0.711,0-1.254-0.594-1.189-1.303L2.355,4.625C2.39,4.234,2.625,3.92,2.957,3.762
		z M3.12,16.383c0.309,0.182,0.66,0.293,1.042,0.293h16.676c0.382,0,0.734-0.111,1.042-0.293v0.814c0,0.582-0.46,1.042-1.042,1.042
		H4.162c-0.582,0-1.042-0.46-1.042-1.042V16.383z"/>
	<g>
		<path d="M9.991,11.727h1.076l-0.061,1.92h-3.12L8.851,3.003h2.493l-0.061,1.92h-0.932L9.991,11.727z"/>
		<path d="M14.712,4.923h-0.932l-0.047-1.92h2.493l0.889,10.644h-3.12l-0.047-1.92h1.076L14.712,4.923z"/>
	</g>
</g>
</svg>
