<?xml version="1.0" encoding="utf-8"?>
<!-- Generator: Adobe Illustrator 18.1.1, SVG Export Plug-In . SVG Version: 6.00 Build 0)  -->
<svg version="1.1" id="Layer_1" xmlns="http://www.w3.org/2000/svg" xmlns:xlink="http://www.w3.org/1999/xlink" x="0px" y="0px"
	 viewBox="0 0 25 17.986" style="enable-background:new 0 0 25 17.986;" xml:space="preserve">
<g id="code.svg">
	<g>
		<path d="M19.598,3.22c-0.637-0.637-1.668-0.637-2.305,0c-0.637,0.637-0.635,1.668,0,2.305l3.468,3.468l-3.468,3.468
			c-0.637,0.637-0.635,1.668,0,2.305c0.637,0.637,1.668,0.637,2.305,0l5.14-5.14c0.349-0.349,0.349-0.916,0-1.266L19.598,3.22z"/>
		<path d="M5.402,14.766c0.637,0.637,1.668,0.637,2.305,0s0.635-1.668,0-2.305L4.238,8.993l3.468-3.468
			c0.637-0.637,0.635-1.668,0-2.305c-0.637-0.637-1.668-0.637-2.305,0l-5.14,5.14c-0.349,0.349-0.349,0.916,0,1.266L5.402,14.766z"
			/>
	</g>
	<path d="M15.998,2.041c0.227-0.871-0.296-1.76-1.165-1.988c-0.871-0.227-1.761,0.294-1.988,1.165L9.002,15.944
		c-0.227,0.871,0.296,1.76,1.165,1.988c0.871,0.227,1.761-0.294,1.988-1.165L15.998,2.041z"/>
</g>
</svg>
