<?xml version="1.0" encoding="utf-8"?>
<!-- Generator: Adobe Illustrator 18.1.1, SVG Export Plug-In . SVG Version: 6.00 Build 0)  -->
<svg version="1.1" id="Layer_1" xmlns="http://www.w3.org/2000/svg" xmlns:xlink="http://www.w3.org/1999/xlink" x="0px" y="0px"
	 viewBox="0 0 24.332 25" style="enable-background:new 0 0 24.332 25;" xml:space="preserve">
<g id="export.svg">
	<path d="M22.931,14.642c-0.774,0-1.401,0.627-1.401,1.401v6.154H2.803v-6.154c0-0.774-0.627-1.401-1.401-1.401
		C0.627,14.642,0,15.269,0,16.044v7.555C0,24.373,0.627,25,1.401,25h21.529c0.774,0,1.401-0.627,1.401-1.401v-7.555
		C24.332,15.269,23.705,14.642,22.931,14.642z"/>
	<path d="M13.158,0.411C12.895,0.148,12.538,0,12.167,0s-0.728,0.147-0.991,0.411L5.525,6.061c-0.547,0.547-0.547,1.434,0,1.981
		c0.547,0.547,1.435,0.547,1.981,0l3.259-3.259v12.028c0,0.774,0.627,1.401,1.401,1.401s1.401-0.627,1.401-1.401V4.784l3.258,3.258
		c0.547,0.547,1.435,0.547,1.982,0c0.547-0.547,0.547-1.435,0-1.982L13.158,0.411z"/>
</g>
</svg>
