<?xml version="1.0" encoding="utf-8"?>
<!-- Generator: Adobe Illustrator 18.1.1, SVG Export Plug-In . SVG Version: 6.00 Build 0)  -->
<svg version="1.1" id="Layer_1" xmlns="http://www.w3.org/2000/svg" xmlns:xlink="http://www.w3.org/1999/xlink" x="0px" y="0px"
	 viewBox="0 0 24.511 25" style="enable-background:new 0 0 24.511 25;" xml:space="preserve">
<g id="export-line.svg">
	<g>
		<path d="M22.232,25H2.279C1.023,25,0,23.98,0,22.727v-6.969c0-1.253,1.023-2.273,2.279-2.273s2.279,1.02,2.279,2.273v4.696h15.394
			v-4.696c0-1.253,1.023-2.273,2.279-2.273s2.279,1.02,2.279,2.273v6.969C24.511,23.98,23.488,25,22.232,25z M2.279,15.446
			c-0.176,0-0.318,0.14-0.318,0.312v6.969c0,0.172,0.143,0.312,0.318,0.312h19.953c0.176,0,0.318-0.14,0.318-0.312v-6.969
			c0-0.172-0.143-0.312-0.318-0.312s-0.318,0.14-0.318,0.312v6.657H2.598v-6.657C2.598,15.585,2.455,15.446,2.279,15.446z"/>
	</g>
	<g>
		<path d="M12.256,18.74c-1.257,0-2.279-1.02-2.279-2.273V7.73L8.629,9.073c-0.859,0.856-2.359,0.857-3.22,0
			C4.978,8.643,4.74,8.072,4.74,7.464c0-0.609,0.237-1.18,0.669-1.609l5.237-5.212c0.852-0.855,2.359-0.858,3.221,0.001l5.235,5.211
			c0.431,0.43,0.668,1.001,0.668,1.608c0,0.608-0.237,1.18-0.668,1.609c-0.861,0.858-2.359,0.857-3.22,0.001l-1.348-1.341v8.736
			C14.535,17.72,13.513,18.74,12.256,18.74z M11.938,3.012v13.455c0,0.172,0.143,0.312,0.318,0.312c0.176,0,0.318-0.14,0.318-0.312
			V3.013l4.692,4.67c0.161,0.162,0.29,0.162,0.453,0.001c0.076-0.076,0.091-0.162,0.091-0.22c0-0.058-0.016-0.144-0.091-0.219
			l-5.236-5.211c-0.122-0.123-0.334-0.12-0.451-0.003L6.793,7.245C6.717,7.32,6.701,7.406,6.701,7.464
			c0,0.057,0.016,0.144,0.091,0.218c0.162,0.163,0.291,0.162,0.453,0.001L11.938,3.012z"/>
	</g>
</g>
</svg>
