<?xml version="1.0" encoding="utf-8"?>
<!-- Generator: Adobe Illustrator 18.1.1, SVG Export Plug-In . SVG Version: 6.00 Build 0)  -->
<svg version="1.1" id="Layer_1" xmlns="http://www.w3.org/2000/svg" xmlns:xlink="http://www.w3.org/1999/xlink" x="0px" y="0px"
	 viewBox="0 0 20 25" style="enable-background:new 0 0 20 25;" xml:space="preserve">
<g id="file-code-line.svg">
	<g>
		<g>
			<path d="M14.05,11.425c-0.356-0.356-0.934-0.356-1.29,0s-0.355,0.934,0,1.29l1.942,1.942L12.759,16.6
				c-0.356,0.356-0.355,0.934,0,1.29c0.356,0.356,0.934,0.356,1.29,0l2.878-2.878c0.196-0.196,0.196-0.513,0-0.709L14.05,11.425z"/>
			<path d="M6.101,17.89c0.356,0.356,0.934,0.356,1.29,0c0.356-0.356,0.355-0.934,0-1.29l-1.942-1.942l1.942-1.942
				c0.356-0.356,0.355-0.934,0-1.29c-0.356-0.356-0.934-0.356-1.29,0l-2.878,2.878c-0.196,0.196-0.196,0.513,0,0.709L6.101,17.89z"
				/>
		</g>
		<path d="M12.034,10.765c0.127-0.488-0.166-0.986-0.653-1.113c-0.488-0.127-0.986,0.165-1.113,0.653L8.117,18.55
			c-0.127,0.488,0.166,0.986,0.653,1.113c0.488,0.127,0.986-0.165,1.113-0.653L12.034,10.765z"/>
	</g>
	<path d="M19.252,6.37c-1.912-1.912-4.22-4.317-5.411-5.508C13.336,0.357,12.674,0,11.96,0H1.347C0.645,0,0,0.725,0,1.428v22.456
		C0,24.586,0.645,25,1.347,25h17.456C19.506,25,20,24.586,20,23.884V8.271C20,7.557,19.757,6.875,19.252,6.37z M18,21.884
		C18,22.586,17.506,23,16.804,23H3.347C2.645,23,2,22.586,2,21.884V3.428C2,2.725,2.645,2,3.347,2h7.785
		c0.307,0,0.608,0.13,0.892,0.23l0.002,4.436c0,0.811,0.657,1.487,1.468,1.487l4.381,0.013C17.981,8.459,18,8.781,18,9.099V21.884z"
		/>
</g>
</svg>
