<?xml version="1.0" encoding="utf-8"?>
<!-- Generator: Adobe Illustrator 18.1.1, SVG Export Plug-In . SVG Version: 6.00 Build 0)  -->
<svg version="1.1" id="Layer_1" xmlns="http://www.w3.org/2000/svg" xmlns:xlink="http://www.w3.org/1999/xlink" x="0px" y="0px"
	 viewBox="0 0 25 25" style="enable-background:new 0 0 25 25;" xml:space="preserve">
<g id="globe.svg">
	<defs>
		<path id="SVGID_1_" d="M19.203,20.859c-1.835,1.474-4.166,2.355-6.703,2.355c-1.432,0-2.798-0.281-4.046-0.79
			c0.006-0.014,0.009-0.031,0.006-0.05c-0.047-0.375-1.331-1.289-1.87-1.959s-0.085-0.522-0.085-0.9
			c0-0.379-0.165-0.964-0.398-1.459c-0.233-0.495,0.233-0.993,0.233-1.474s-0.75-0.811-1.328-0.811s-0.702-1.066-1.102-1.549
			c-0.327-0.395-1.647-1.104-2.119-1.35l0,0c-0.004-0.123-0.006-0.247-0.006-0.371c0-1.47,0.296-2.87,0.832-4.146l0,0l0.48-0.039
			c0,0,0.961-0.622,1.207-0.622c0.245,0,1.003,0.315,1.536-0.348S6.911,6.802,7.382,5.79s0-1.759,0-1.759L7.041,3.279
			C8.64,2.33,10.506,1.786,12.5,1.786c2.243,0,4.324,0.689,6.045,1.867c-0.337,0.15-0.618,0.4-0.764,0.498
			c-0.314,0.21-1.375,0.688-1.72,0.688c-0.345,0-0.049-0.501-0.519-0.898c-0.471-0.397-1.911,0.068-2.579,0.397
			c-0.669,0.329-0.909,1.425-0.785,1.911c0.123,0.486-0.699,0.585-0.777,0.253c-0.079-0.333-0.498-0.983-0.637-1.074
			c-0.139-0.091-0.353,0.126-0.946,0.522c-0.592,0.396-0.115,0.682,0.189,0.682c0.304,0,0.657,0.214,0.657,0.493
			c0,0.279-0.455,0.232-0.846,0.415C9.426,7.722,9.331,8.693,9.844,8.771c0.325,0.05,0.693,0.167,1.024-0.046
			c0.192-0.123,0.68-0.38,0.856-0.426c0.479-0.126,0.658,0.598,1.6,0.78c0.942,0.183,1.433-0.13,1.802-0.271
			c0.369-0.141,1.082,0.105,1.5,0.601c0.418,0.496,1.154,2.19,1.515,2.973c0.361,0.783,1.289-0.068,1.289-0.068s0,0.185,0.277-0.335
			c0.277-0.52,0.29-0.875,0.42-1.157s0.204-0.041,0.823,0.114s0.73,2.076,1.038,2.531c0.178,0.263,0.716,0.323,1.165,0.18
			c-0.173,1.622-0.707,3.135-1.521,4.459c-0.414-0.2-1.245-0.487-1.747,0.1c-0.689,0.806,0.005,0.911-0.403,1.719
			C19.317,20.251,19.227,20.581,19.203,20.859L19.203,20.859z M12.5,25C19.404,25,25,19.404,25,12.5S19.404,0,12.5,0S0,5.596,0,12.5
			S5.596,25,12.5,25L12.5,25z M15.469,10.068c-0.74-0.24-1.162-0.091-1.867,0.084s-1.257-0.978-2.377-0.978
			c-1.12,0-2.052,0.529-2.85,1.398C7.79,11.209,7.66,12.091,7.79,12.945c0.172,1.134,0.188,2.028,1.231,2.028
			s2.611-0.572,2.791,0.019c0.18,0.591,0.959,1.285,0.631,2.121c-0.328,0.835,0.065,1.845,0.243,2.115
			c0.178,0.269,0.267,1.042,0.649,1.275c0.382,0.233,1.581,0.054,1.975-0.405s1.345-1.361,1.52-2.261
			c0.175-0.901,0.078-1.448,0.802-2.377c0.725-0.929,0.15-1.513-0.1-1.862c-0.25-0.35-0.666-2.03-0.666-2.388
			C16.866,10.851,16.21,10.308,15.469,10.068L15.469,10.068z"/>
	</defs>
	<use xlink:href="#SVGID_1_"  style="overflow:visible;fill-rule:evenodd;clip-rule:evenodd;"/>
	<clipPath id="SVGID_2_">
		<use xlink:href="#SVGID_1_"  style="overflow:visible;"/>
	</clipPath>
</g>
</svg>
