<?xml version="1.0" encoding="utf-8"?>
<!-- Generator: Adobe Illustrator 18.1.1, SVG Export Plug-In . SVG Version: 6.00 Build 0)  -->
<svg version="1.1" id="Layer_1" xmlns="http://www.w3.org/2000/svg" xmlns:xlink="http://www.w3.org/1999/xlink" x="0px" y="0px"
	 viewBox="0 0 25 25" style="enable-background:new 0 0 25 25;" xml:space="preserve">
<g id="question-line.svg">
	<path d="M12.5,2C18.29,2,23,6.71,23,12.5S18.29,23,12.5,23S2,18.29,2,12.5S6.71,2,12.5,2 M12.5,0C5.607,0,0,5.607,0,12.5
		S5.607,25,12.5,25S25,19.393,25,12.5S19.392,0,12.5,0L12.5,0z"/>
	<path d="M13.398,18.467c0,0.108-0.072,0.18-0.179,0.18h-1.363c-0.108,0-0.179-0.072-0.179-0.18v-1.542
		c0-0.108,0.071-0.18,0.179-0.18h1.363c0.108,0,0.179,0.072,0.179,0.18V18.467z"/>
	<path d="M14.976,11.635l-1.201,1.649c-0.358,0.484-0.467,0.735-0.467,1.345v0.573c0,0.108-0.071,0.179-0.179,0.179h-1.184
		c-0.108,0-0.179-0.072-0.179-0.179v-0.735c0-0.717,0.161-1.094,0.538-1.614l1.202-1.65c0.627-0.861,0.842-1.273,0.842-1.883
		c0-1.022-0.717-1.667-1.74-1.667c-1.004,0-1.649,0.609-1.865,1.703c-0.018,0.108-0.09,0.161-0.197,0.144l-1.13-0.198
		C9.31,9.285,9.256,9.214,9.274,9.106c0.269-1.721,1.507-2.851,3.372-2.851c1.936,0,3.245,1.273,3.245,3.048
		C15.89,10.165,15.586,10.792,14.976,11.635z"/>
</g>
</svg>
