<?xml version="1.0" encoding="utf-8"?>
<!-- Generator: Adobe Illustrator 18.1.1, SVG Export Plug-In . SVG Version: 6.00 Build 0)  -->
<svg version="1.1" id="Layer_1" xmlns="http://www.w3.org/2000/svg" xmlns:xlink="http://www.w3.org/1999/xlink" x="0px" y="0px"
	 viewBox="0 0 24.167 23.032" style="enable-background:new 0 0 24.167 23.032;" xml:space="preserve">
<g id="star-line.svg">
	<path d="M23.925,8.616l-8.561-0.48l-3.04-7.971c-0.084-0.22-0.396-0.22-0.48,0l-3.04,7.971l-8.561,0.48
		C0.009,8.629-0.087,8.923,0.095,9.071l6.591,5.393l-2.134,8.246c-0.059,0.226,0.192,0.407,0.388,0.28l7.143-4.626l7.143,4.626
		c0.196,0.127,0.447-0.053,0.388-0.28l-2.134-8.246l6.591-5.393C24.254,8.923,24.158,8.629,23.925,8.616z M12.523,16.685
		l-0.439-0.284l-0.439,0.284L7.6,19.298c-0.196,0.127-0.446-0.053-0.388-0.28l1.204-4.658l0.129-0.517l-0.413-0.336l-3.72-3.017
		c-0.182-0.148-0.087-0.442,0.147-0.456l4.838-0.273L9.94,9.738l0.181-0.491l1.723-4.467c0.085-0.219,0.394-0.219,0.479,0
		l1.723,4.467l0.181,0.491l0.542,0.026l4.838,0.273c0.234,0.013,0.329,0.308,0.147,0.456l-3.72,3.017l-0.413,0.336l0.129,0.517
		l1.204,4.658c0.059,0.226-0.191,0.407-0.388,0.28L12.523,16.685z"/>
</g>
</svg>
