<?xml version="1.0" encoding="utf-8"?>
<!-- Generator: Adobe Illustrator 18.1.1, SVG Export Plug-In . SVG Version: 6.00 Build 0)  -->
<svg version="1.1" id="Layer_1" xmlns="http://www.w3.org/2000/svg" xmlns:xlink="http://www.w3.org/1999/xlink" x="0px" y="0px"
	 viewBox="0 0 24.935 25" style="enable-background:new 0 0 24.935 25;" xml:space="preserve">
<g id="to-back.svg">
	<path d="M23.045,14.15h-7.508l-0.01,1.973c-0.002,1.001-0.739,1.395-1.647,0.88l-6.225-3.531c-0.903-0.512-0.904-1.353-0.004-1.869
		L13.934,8c0.902-0.519,1.631-0.127,1.629,0.874l-0.008,1.498h7.49c1.044,0,1.889,0.846,1.889,1.889v0
		C24.935,13.304,24.089,14.15,23.045,14.15z"/>
	<path d="M21.318,5.302c0,0.795-0.645,1.44-1.44,1.44h0c-0.795,0-1.44-0.645-1.44-1.44V2.88H2.88V22.12h15.558v-2.422
		c0-0.795,0.645-1.44,1.44-1.44h0c0.795,0,1.44,0.645,1.44,1.44l0,3.653c0,0.911-0.738,1.649-1.649,1.649H1.44
		C0.645,25,0,24.355,0,23.56L0,1.44C0,0.645,0.645,0,1.44,0l18.229,0c0.911,0,1.649,0.738,1.649,1.649L21.318,5.302z"/>
</g>
</svg>
