<?xml version="1.0" encoding="utf-8"?>
<!-- Generator: Adobe Illustrator 18.1.1, SVG Export Plug-In . SVG Version: 6.00 Build 0)  -->
<svg version="1.1" id="Layer_1" xmlns="http://www.w3.org/2000/svg" xmlns:xlink="http://www.w3.org/1999/xlink" x="0px" y="0px"
	 viewBox="0 0 19.599 25" style="enable-background:new 0 0 19.599 25;" xml:space="preserve">
<path id="trash-line.svg" d="M7.635,0c-0.894,0-1.63,0.736-1.63,1.63v1.087H1.758c-0.073-0.015-0.148-0.015-0.221,0H0.57
	c-0.017-0.001-0.034-0.001-0.051,0c-0.3,0.014-0.532,0.269-0.518,0.569S0.269,3.818,0.57,3.804h0.543V23.37
	c0,0.894,0.736,1.63,1.63,1.63h14.13c0.894,0,1.63-0.736,1.63-1.63V3.804h0.543c0.3,0.004,0.547-0.236,0.551-0.536
	c0.004-0.3-0.236-0.547-0.536-0.551c-0.005,0-0.01,0-0.015,0h-0.985h-0.221h-4.229V1.63c0-0.894-0.736-1.63-1.63-1.63H7.635z
	 M7.635,1.087h4.348c0.301,0,0.543,0.242,0.543,0.543v1.087H7.091V1.63C7.091,1.329,7.333,1.087,7.635,1.087z M2.2,3.804h15.217
	V23.37c0,0.301-0.242,0.543-0.543,0.543H2.743c-0.301,0-0.543-0.242-0.543-0.543V3.804z M6.497,6.505
	c-0.023,0.004-0.046,0.01-0.068,0.017C6.176,6.578,5.998,6.806,6.004,7.065v13.587C6,20.952,6.24,21.199,6.54,21.203
	c0.3,0.004,0.547-0.236,0.551-0.536c0-0.005,0-0.01,0-0.015V7.065c0.011-0.3-0.224-0.552-0.524-0.563
	C6.544,6.502,6.52,6.503,6.497,6.505z M9.758,6.505C9.735,6.509,9.712,6.515,9.69,6.522C9.437,6.578,9.259,6.806,9.265,7.065v13.587
	c-0.004,0.3,0.236,0.547,0.536,0.551c0.3,0.004,0.547-0.236,0.551-0.536c0-0.005,0-0.01,0-0.015V7.065
	c0.011-0.3-0.224-0.552-0.524-0.563C9.805,6.502,9.781,6.503,9.758,6.505z M13.019,6.505c-0.023,0.004-0.046,0.01-0.068,0.017
	c-0.253,0.057-0.431,0.284-0.425,0.543v13.587c-0.004,0.3,0.236,0.547,0.536,0.551c0.3,0.004,0.547-0.236,0.551-0.536
	c0-0.005,0-0.01,0-0.015V7.065c0.011-0.3-0.224-0.552-0.524-0.563C13.066,6.502,13.042,6.503,13.019,6.505z"/>
</svg>
