<?xml version="1.0" encoding="utf-8"?>
<!-- Generator: Adobe Illustrator 18.1.1, SVG Export Plug-In . SVG Version: 6.00 Build 0)  -->
<svg version="1.1" id="Layer_1" xmlns="http://www.w3.org/2000/svg" xmlns:xlink="http://www.w3.org/1999/xlink" x="0px" y="0px"
	 viewBox="0 0 23.537 25" style="enable-background:new 0 0 23.537 25;" xml:space="preserve">
<g id="view-tree.svg">
	<path d="M11.19,20.675c-0.005,0.318,0.251,0.58,0.57,0.585c0.319,0.005,0.582-0.25,0.586-0.569c0-0.005,0-0.011,0-0.016l0-16.587
		c0.005-0.318-0.251-0.58-0.57-0.585c-0.319-0.005-0.582,0.25-0.586,0.569c0,0.005,0,0.011,0,0.016L11.19,20.675z"/>
	<path d="M19.49,20.675c-0.005,0.318,0.251,0.58,0.57,0.585c0.319,0.005,0.582-0.25,0.586-0.569c0-0.005,0-0.011,0-0.016v-8.287
		c0.005-0.318-0.251-0.58-0.57-0.585c-0.319-0.005-0.582,0.25-0.586,0.569c0,0.005,0,0.011,0,0.016V20.675z"/>
	<path d="M2.89,20.675c-0.005,0.318,0.251,0.58,0.57,0.585c0.319,0.005,0.582-0.25,0.586-0.569c0-0.005,0-0.011,0-0.016l0-8.287
		c0.005-0.318-0.251-0.58-0.57-0.585c-0.319-0.005-0.582,0.25-0.586,0.569c0,0.005,0,0.011,0,0.016L2.89,20.675z"/>
	<path d="M20.062,12.959c0.318,0.005,0.58-0.251,0.585-0.57c0.005-0.319-0.25-0.582-0.569-0.586c-0.005,0-0.011,0-0.016,0l-16.587,0
		c-0.318-0.005-0.58,0.251-0.585,0.57c-0.005,0.319,0.25,0.582,0.569,0.586c0.005,0,0.011,0,0.016,0L20.062,12.959z"/>
	<path d="M13.503,4.613c0.951,0,1.734-0.781,1.734-1.73V1.73c0-0.949-0.783-1.73-1.734-1.73l-3.468,0C9.083,0,8.3,0.781,8.3,1.73
		v1.153c0,0.949,0.783,1.73,1.734,1.73H13.503z"/>
	<path d="M13.503,25c0.951,0,1.734-0.781,1.734-1.73v-1.153c0-0.949-0.783-1.73-1.734-1.73h-3.468c-0.951,0-1.734,0.781-1.734,1.73
		v1.153c0,0.949,0.783,1.73,1.734,1.73H13.503z"/>
	<path d="M21.803,25c0.951,0,1.734-0.781,1.734-1.73v-1.153c0-0.949-0.783-1.73-1.734-1.73h-3.468c-0.951,0-1.734,0.781-1.734,1.73
		v1.153c0,0.949,0.783,1.73,1.734,1.73H21.803z"/>
	<path d="M5.203,25c0.951,0,1.734-0.781,1.734-1.73v-1.153c0-0.949-0.783-1.73-1.734-1.73H1.734C0.783,20.387,0,21.168,0,22.117
		l0,1.153C0,24.219,0.783,25,1.734,25H5.203z"/>
</g>
</svg>
