<svg width='200' height='200' fill="#000000" xmlns:dc="http://purl.org/dc/elements/1.1/" xmlns:cc="http://creativecommons.org/ns#" xmlns:rdf="http://www.w3.org/1999/02/22-rdf-syntax-ns#" xmlns:svg="http://www.w3.org/2000/svg" xmlns="http://www.w3.org/2000/svg" xmlns:sodipodi="http://sodipodi.sourceforge.net/DTD/sodipodi-0.dtd" xmlns:inkscape="http://www.inkscape.org/namespaces/inkscape" version="1.1" x="0px" y="0px" viewBox="0 0 100 100"><g transform="translate(0,-952.36218)"><path style="font-size:medium;font-style:normal;font-variant:normal;font-weight:normal;font-stretch:normal;text-indent:0;text-align:start;text-decoration:none;line-height:normal;letter-spacing:normal;word-spacing:normal;text-transform:none;direction:ltr;block-progression:tb;writing-mode:lr-tb;text-anchor:start;baseline-shift:baseline;opacity:1;color:#000000;fill:#000000;fill-opacity:1;stroke:none;stroke-width:4;marker:none;visibility:visible;display:inline;overflow:visible;enable-background:accumulate;font-family:Sans;-inkscape-font-specification:Sans" d="M 23 17 C 19.710596 17 17 19.7106 17 23 L 17 31 C 17 34.2894 19.710596 37 23 37 L 31 37 C 34.289404 37 37 34.2894 37 31 L 37 23 C 37 19.7106 34.289404 17 31 17 L 23 17 z M 46 17 C 42.710596 17 40 19.7106 40 23 L 40 31 C 40 34.2894 42.710596 37 46 37 L 54 37 C 57.289404 37 60 34.2894 60 31 L 60 23 C 60 19.7106 57.289404 17 54 17 L 46 17 z M 69 17 C 65.710596 17 63 19.7106 63 23 L 63 31 C 63 34.2894 65.710596 37 69 37 L 77 37 C 80.289404 37 83 34.2894 83 31 L 83 23 C 83 19.7106 80.289404 17 77 17 L 69 17 z M 23 21 L 31 21 C 32.142593 21 33 21.85741 33 23 L 33 31 C 33 32.14259 32.142593 33 31 33 L 23 33 C 21.857407 33 21 32.14259 21 31 L 21 23 C 21 21.85741 21.857407 21 23 21 z M 46 21 L 54 21 C 55.142593 21 56 21.85741 56 23 L 56 31 C 56 32.14259 55.142593 33 54 33 L 46 33 C 44.857407 33 44 32.14259 44 31 L 44 23 C 44 21.85741 44.857407 21 46 21 z M 69 21 L 77 21 C 78.142593 21 79 21.85741 79 23 L 79 31 C 79 32.14259 78.142593 33 77 33 L 69 33 C 67.857407 33 67 32.14259 67 31 L 67 23 C 67 21.85741 67.857407 21 69 21 z M 23 40 C 19.710596 40 17 42.7106 17 46 L 17 54 C 17 57.2894 19.710596 60 23 60 L 31 60 C 34.289404 60 37 57.2894 37 54 L 37 46 C 37 42.7106 34.289404 40 31 40 L 23 40 z M 46 40 C 42.710596 40 40 42.7106 40 46 L 40 54 C 40 57.2894 42.710596 60 46 60 L 54 60 C 57.289404 60 60 57.2894 60 54 L 60 46 C 60 42.7106 57.289404 40 54 40 L 46 40 z M 69 40 C 65.710596 40 63 42.7106 63 46 L 63 54 C 63 57.2894 65.710596 60 69 60 L 77 60 C 80.289404 60 83 57.2894 83 54 L 83 46 C 83 42.7106 80.289404 40 77 40 L 69 40 z M 23 44 L 31 44 C 32.142593 44 33 44.85741 33 46 L 33 54 C 33 55.1426 32.142593 56 31 56 L 23 56 C 21.857407 56 21 55.1426 21 54 L 21 46 C 21 44.85741 21.857407 44 23 44 z M 46 44 L 54 44 C 55.142593 44 56 44.85741 56 46 L 56 54 C 56 55.1426 55.142593 56 54 56 L 46 56 C 44.857407 56 44 55.1426 44 54 L 44 46 C 44 44.85741 44.857407 44 46 44 z M 69 44 L 77 44 C 78.142593 44 79 44.85741 79 46 L 79 54 C 79 55.1426 78.142593 56 77 56 L 69 56 C 67.857407 56 67 55.1426 67 54 L 67 46 C 67 44.85741 67.857407 44 69 44 z M 23 63 C 19.710594 63 17 65.7106 17 69 L 17 77 C 17 80.2894 19.710594 83 23 83 L 77 83 C 80.289406 83 83 80.2894 83 77 L 83 69 C 83 65.7106 80.289406 63 77 63 L 23 63 z M 23 67 L 77 67 C 78.142594 67 79 67.8574 79 69 L 79 77 C 79 78.1426 78.142594 79 77 79 L 23 79 C 21.857406 79 21 78.1426 21 77 L 21 69 C 21 67.8574 21.857406 67 23 67 z " transform="translate(0,952.36218)"/></g></svg>