<svg width='200' height='200' fill="#000000" xmlns:dc="http://purl.org/dc/elements/1.1/" xmlns:cc="http://creativecommons.org/ns#" xmlns:rdf="http://www.w3.org/1999/02/22-rdf-syntax-ns#" xmlns:svg="http://www.w3.org/2000/svg" xmlns="http://www.w3.org/2000/svg" xmlns:sodipodi="http://sodipodi.sourceforge.net/DTD/sodipodi-0.dtd" xmlns:inkscape="http://www.inkscape.org/namespaces/inkscape" version="1.1" x="0px" y="0px" viewBox="0 0 100 100"><g transform="translate(0,-952.36218)"><path style="font-size:medium;font-style:normal;font-variant:normal;font-weight:normal;font-stretch:normal;text-indent:0;text-align:start;text-decoration:none;line-height:normal;letter-spacing:normal;word-spacing:normal;text-transform:none;direction:ltr;block-progression:tb;writing-mode:lr-tb;text-anchor:start;baseline-shift:baseline;opacity:1;color:#000000;fill:#000000;fill-opacity:1;stroke:none;stroke-width:1.99999964000000000;marker:none;visibility:visible;display:inline;overflow:visible;enable-background:accumulate;font-family:Sans;-inkscape-font-specification:Sans" d="M 23 18 C 20.247297 18 18 20.2473 18 23 L 18 31 C 18 33.7527 20.247297 36 23 36 L 77 36 C 79.752703 36 82 33.7527 82 31 L 82 23 C 82 20.2473 79.752703 18 77 18 L 23 18 z M 23 20 L 77 20 C 78.679297 20 80 21.3207 80 23 L 80 31 C 80 32.6793 78.679297 34 77 34 L 23 34 C 21.320703 34 20 32.6793 20 31 L 20 23 C 20 21.3207 21.320703 20 23 20 z M 23 41 C 20.247299 41 18 43.2473 18 46 L 18 54 C 18 56.7527 20.247299 59 23 59 L 31 59 C 33.752701 59 36 56.7527 36 54 L 36 46 C 36 43.2473 33.752701 41 31 41 L 23 41 z M 46 41 C 43.247299 41 41 43.2473 41 46 L 41 54 C 41 56.7527 43.247299 59 46 59 L 54 59 C 56.752701 59 59 56.7527 59 54 L 59 46 C 59 43.2473 56.752701 41 54 41 L 46 41 z M 69 41 C 66.247299 41 64 43.2473 64 46 L 64 54 C 64 56.7527 66.247299 59 69 59 L 77 59 C 79.752701 59 82 56.7527 82 54 L 82 46 C 82 43.2473 79.752701 41 77 41 L 69 41 z M 23 43 L 31 43 C 32.679296 43 34 44.3207 34 46 L 34 54 C 34 55.6793 32.679296 57 31 57 L 23 57 C 21.320704 57 20 55.6793 20 54 L 20 46 C 20 44.3207 21.320704 43 23 43 z M 46 43 L 54 43 C 55.679296 43 57 44.3207 57 46 L 57 54 C 57 55.6793 55.679296 57 54 57 L 46 57 C 44.320704 57 43 55.6793 43 54 L 43 46 C 43 44.3207 44.320704 43 46 43 z M 69 43 L 77 43 C 78.679296 43 80 44.3207 80 46 L 80 54 C 80 55.6793 78.679296 57 77 57 L 69 57 C 67.320704 57 66 55.6793 66 54 L 66 46 C 66 44.3207 67.320704 43 69 43 z M 23 64 C 20.247299 64 18 66.2473 18 69 L 18 77 C 18 79.7527 20.247299 82 23 82 L 31 82 C 33.752701 82 36 79.7527 36 77 L 36 69 C 36 66.2473 33.752701 64 31 64 L 23 64 z M 46 64 C 43.247299 64 41 66.2473 41 69 L 41 77 C 41 79.7527 43.247299 82 46 82 L 54 82 C 56.752701 82 59 79.7527 59 77 L 59 69 C 59 66.2473 56.752701 64 54 64 L 46 64 z M 69 64 C 66.247299 64 64 66.2473 64 69 L 64 77 C 64 79.7527 66.247299 82 69 82 L 77 82 C 79.752701 82 82 79.7527 82 77 L 82 69 C 82 66.2473 79.752701 64 77 64 L 69 64 z M 23 66 L 31 66 C 32.679296 66 34 67.3207 34 69 L 34 77 C 34 78.6793 32.679296 80 31 80 L 23 80 C 21.320704 80 20 78.6793 20 77 L 20 69 C 20 67.3207 21.320704 66 23 66 z M 46 66 L 54 66 C 55.679296 66 57 67.3207 57 69 L 57 77 C 57 78.6793 55.679296 80 54 80 L 46 80 C 44.320704 80 43 78.6793 43 77 L 43 69 C 43 67.3207 44.320704 66 46 66 z M 69 66 L 77 66 C 78.679296 66 80 67.3207 80 69 L 80 77 C 80 78.6793 78.679296 80 77 80 L 69 80 C 67.320704 80 66 78.6793 66 77 L 66 69 C 66 67.3207 67.320704 66 69 66 z " transform="translate(0,952.36218)"/></g></svg>