<?xml version="1.0" encoding="utf-8"?>
<!-- Generator: Adobe Illustrator 18.1.1, SVG Export Plug-In . SVG Version: 6.00 Build 0)  -->
<svg version="1.1" id="Layer_1" xmlns="http://www.w3.org/2000/svg" xmlns:xlink="http://www.w3.org/1999/xlink" x="0px" y="0px"
	 viewBox="948.7 -134.3 20 22.2" enable-background="new 948.7 -134.3 20 22.2" xml:space="preserve">
<g>
	<g>
		<rect x="959.4" y="-114.7" fill="#FFFFFF" width="1.8" height="2.7"/>
		<rect x="954.1" y="-114.7" opacity="0.4" fill="#FFFFFF" width="1.8" height="2.7"/>
		<rect x="948.7" y="-114.7" opacity="0.1" fill="#FFFFFF" width="1.8" height="2.7"/>
		<rect x="959.4" y="-120" opacity="0.1" fill="#FFFFFF" width="1.8" height="2.7"/>
		<rect x="954.1" y="-120" opacity="0.4" fill="#FFFFFF" width="1.8" height="2.7"/>
		<rect x="948.7" y="-120" fill="#FFFFFF" width="1.8" height="2.7"/>
	</g>
	<g>
		<polygon fill="#FFFFFF" points="950.1,-124.2 950.1,-134 948.7,-134 948.7,-123.4 954,-123.4 954.3,-124.2 		"/>
		<path fill="#FFFFFF" d="M958.9-133.9l-4.2,10.5h1l1.4-3.8h4L966-112h2.7l-8.6-22.2L958.9-133.9z M957.5-128l1.8-5l1.7,5H957.5z"/>
	</g>
</g>
</svg>
