<svg xmlns="http://www.w3.org/2000/svg" viewBox="0 0 30 30"><path style="fill: #ffffff;" d="M 15 3 C 13.895 3 13 3.895 13 5 L 13 5.2929688 C 10.109011 6.1538292 8 8.8293311 8 12 L 8 14.757812 C 8 17.474812 6.921 20.079 5 22 A 1 1 0 0 0 4 23 A 1 1 0 0 0 5 24 L 25 24 A 1 1 0 0 0 26 23 A 1 1 0 0 0 25 22 C 23.079 20.079 22 17.474812 22 14.757812 L 22 12 C 22 8.8293311 19.890989 6.1538292 17 5.2929688 L 17 5 C 17 3.895 16.105 3 15 3 z M 12 26 C 12 27.657 13.343 29 15 29 C 16.657 29 18 27.657 18 26 L 12 26 z"></path></svg>