<?xml version="1.0" encoding="utf-8"?>
<!-- Generator: Adobe Illustrator 18.1.1, SVG Export Plug-In . SVG Version: 6.00 Build 0)  -->
<svg version="1.1" id="Layer_1" xmlns="http://www.w3.org/2000/svg" xmlns:xlink="http://www.w3.org/1999/xlink" x="0px" y="0px"
	 viewBox="0 0 25 21.366" style="enable-background:new 0 0 25 21.366;" xml:space="preserve">
<path id="code-editor.svg" style="fill:#FFFFFF;" d="M9.991,10.826h1.076l-0.061,1.92h-3.12L8.851,2.102h2.493l-0.061,1.92h-0.932
	L9.991,10.826z M14.712,4.022h-0.932l-0.047-1.92h2.493l0.889,10.644h-3.12l-0.047-1.92h1.076L14.712,4.022z M5.725,0
	C4.65,0,3.731,0.837,3.641,1.905L2.599,13.37c-0.048,0.579,0.16,1.169,0.554,1.596c0.394,0.427,0.95,0.668,1.531,0.668h15.634
	c0.581,0,1.138-0.24,1.531-0.668c0.394-0.427,0.602-1.012,0.554-1.596L21.359,1.905C21.27,0.833,20.35,0,19.275,0H5.725z
	 M2.517,2.817C1.861,3.13,1.399,3.77,1.329,4.543l-1.319,14.38c-0.057,0.625,0.147,1.246,0.57,1.71
	c0.423,0.464,1.017,0.733,1.645,0.733h20.552c0.627,0,1.222-0.27,1.645-0.733c0.423-0.463,0.627-1.086,0.57-1.71l-1.319-14.38
	c-0.071-0.773-0.533-1.414-1.189-1.726l0.961,10.227v1.042v2.589c0,1.724-1.403,3.127-3.127,3.127H4.683
	c-1.724,0-3.127-1.403-3.127-3.127v-2.589l0.016-1.042L2.517,2.817z M2.599,15.878v0.798c0,1.15,0.935,2.084,2.084,2.084h15.634
	c1.15,0,2.084-0.935,2.084-2.084v-0.798c-0.57,0.51-1.314,0.798-2.084,0.798H4.683C3.913,16.676,3.169,16.387,2.599,15.878z"/>
</svg>
