<?xml version="1.0" encoding="utf-8"?>
<!-- Generator: Adobe Illustrator 18.1.1, SVG Export Plug-In . SVG Version: 6.00 Build 0)  -->
<svg version="1.1" id="Layer_1" xmlns="http://www.w3.org/2000/svg" xmlns:xlink="http://www.w3.org/1999/xlink" x="0px" y="0px"
	 viewBox="0 0 20.035 25" style="enable-background:new 0 0 20.035 25;" xml:space="preserve">
<g id="edit-one.svg" sketch:type="MSPage">
	<g id="common_new_edit_compose_glyph">
		<g sketch:type="MSShapeGroup">
			<path id="path-1_3_" style="fill:#FFFFFF;" d="M0.08,20.939L0,25l3.921-1.06L18.427,5.373l-3.841-3.001L0.08,20.939z
				 M18.367,0.171c-0.652-0.51-2.281,0.28-2.281,0.28l-1,1.28l3.841,3.001l1-1.28c0,0,0.376-1.769-0.28-2.281L18.367,0.171z"/>
		</g>
		<g>
			<path id="path-1_2_" style="fill:#FFFFFF;" d="M0.08,20.939L0,25l3.921-1.06L18.427,5.373l-3.841-3.001L0.08,20.939z
				 M18.367,0.171c-0.652-0.51-2.281,0.28-2.281,0.28l-1,1.28l3.841,3.001l1-1.28c0,0,0.376-1.769-0.28-2.281L18.367,0.171z"/>
		</g>
	</g>
</g>
</svg>
