<?xml version="1.0" encoding="utf-8"?>
<!-- Generator: Adobe Illustrator 18.1.1, SVG Export Plug-In . SVG Version: 6.00 Build 0)  -->
<svg version="1.1" id="Layer_1" xmlns="http://www.w3.org/2000/svg" xmlns:xlink="http://www.w3.org/1999/xlink" x="0px" y="0px"
	 viewBox="0 0 20.035 25" style="enable-background:new 0 0 20.035 25;" xml:space="preserve">
<g id="edit-one-line.svg" sketch:type="MSPage">
	<g id="common_new_edit_compose_outline_stroke">
		<g sketch:type="MSShapeGroup">
			<path id="path-1" style="fill:#FFFFFF;" d="M14.586,2.372L0.08,20.939L0,25l3.921-1.06L18.427,5.373l-1.28-1L2.943,22.552
				l-1.443,0.527l0.162-1.527L15.866,3.372L14.586,2.372z M18.367,0.171c-0.652-0.51-2.281,0.28-2.281,0.28l-1,1.28l3.841,3.001
				l1-1.28c0,0,0.376-1.769-0.28-2.281L18.367,0.171z"/>
		</g>
		<g>
			<path id="path-1_1_" style="fill:#FFFFFF;" d="M14.586,2.372L0.08,20.939L0,25l3.921-1.06L18.427,5.373l-1.28-1L2.943,22.552
				l-1.443,0.527l0.162-1.527L15.866,3.372L14.586,2.372z M18.367,0.171c-0.652-0.51-2.281,0.28-2.281,0.28l-1,1.28l3.841,3.001
				l1-1.28c0,0,0.376-1.769-0.28-2.281L18.367,0.171z"/>
		</g>
	</g>
</g>
</svg>
