<?xml version="1.0" encoding="utf-8"?>
<!-- Generator: Adobe Illustrator 18.1.1, SVG Export Plug-In . SVG Version: 6.00 Build 0)  -->
<svg version="1.1" id="Layer_1" xmlns="http://www.w3.org/2000/svg" xmlns:xlink="http://www.w3.org/1999/xlink" x="0px" y="0px"
	 viewBox="0 0 24.856 24.855" style="enable-background:new 0 0 24.856 24.855;" xml:space="preserve">
<g id="edit.svg">
	<path style="fill:#FFFFFF;" d="M21.741,8.612l-5.497-5.497c-0.443-0.443-0.443-1.161,0-1.603l0.637-0.637
		c1.166-1.166,3.055-1.166,4.221,0l2.879,2.879c1.166,1.166,1.166,3.055,0,4.221l-0.637,0.637
		C22.901,9.054,22.184,9.054,21.741,8.612z"/>
	<path style="fill:#FFFFFF;" d="M20.371,9.81L20.371,9.81c0.49,0.49,0.49,1.285,0,1.775L10.313,21.642
		c-0.49,0.49-1.285,0.49-1.775,0l0,0c-0.49-0.49-0.49-1.285,0-1.775L18.595,9.81C19.085,9.32,19.88,9.32,20.371,9.81z"/>
	<path style="fill:#FFFFFF;" d="M17.708,7.148L17.708,7.148c0.49,0.49,0.49,1.285,0,1.775L7.651,18.98
		c-0.49,0.49-1.285,0.49-1.775,0l0,0c-0.49-0.49-0.49-1.285,0-1.775L15.933,7.148C16.423,6.657,17.218,6.657,17.708,7.148z"/>
	<path style="fill:#FFFFFF;" d="M15.046,4.485L15.046,4.485c0.49,0.49,0.49,1.285,0,1.775L4.988,16.318
		c-0.49,0.49-1.285,0.49-1.775,0l0,0c-0.49-0.49-0.49-1.285,0-1.775L13.27,4.485C13.761,3.995,14.555,3.995,15.046,4.485z"/>
	<path style="fill:#FFFFFF;" d="M0.008,23.934l0.844-5.914c0.077-0.537,0.733-0.756,1.116-0.372l5.239,5.238
		c0.383,0.383,0.165,1.04-0.372,1.116l-5.914,0.846C0.389,24.923-0.068,24.466,0.008,23.934z"/>
</g>
</svg>
