<?xml version="1.0" encoding="utf-8"?>
<!-- Generator: Adobe Illustrator 18.1.1, SVG Export Plug-In . SVG Version: 6.00 Build 0)  -->
<svg version="1.1" id="Layer_1" xmlns="http://www.w3.org/2000/svg" xmlns:xlink="http://www.w3.org/1999/xlink" x="0px" y="0px"
	 viewBox="0 0 20.227 25" style="enable-background:new 0 0 20.227 25;" xml:space="preserve">
<g id="file-code.svg">
	<path style="fill:#FFFFFF;" d="M19.791,6.37c-1.912-1.912-3.951-4.317-5.142-5.508C14.144,0.357,13.752,0,13.038,0H2.425
		C1.722,0,0,0.725,0,1.428v22.456C0,24.586,1.722,25,2.425,25h17.456C20.583,25,20,24.586,20,23.884V8.271
		C20,7.557,20.296,6.875,19.791,6.37z M7.668,15.599c0.355,0.356,0.356,0.934,0,1.29s-0.934,0.356-1.291,0l-2.878-2.878
		c-0.196-0.196-0.196-0.513,0-0.709l2.878-2.878c0.356-0.356,0.934-0.356,1.291,0c0.355,0.356,0.356,0.934,0,1.29l-1.942,1.942
		L7.668,15.599z M12.311,9.764l-2.152,8.246c-0.127,0.488-0.626,0.78-1.113,0.653c-0.487-0.128-0.78-0.626-0.653-1.113l2.152-8.246
		c0.127-0.488,0.626-0.78,1.113-0.653C12.145,8.779,12.438,9.276,12.311,9.764z M17.205,14.011l-2.878,2.878
		c-0.356,0.356-0.934,0.356-1.29,0c-0.355-0.356-0.356-0.934,0-1.29l1.942-1.942l-1.942-1.942c-0.355-0.356-0.356-0.934,0-1.29
		s0.934-0.356,1.29,0l2.878,2.878C17.4,13.498,17.4,13.815,17.205,14.011z M17.515,6.87l-2.862,0.001
		C13.842,6.872,13,6.215,13,5.404V3.021c0-0.408,0.669-0.621,0.97-0.345l3.77,3.381C18.053,6.346,17.941,6.87,17.515,6.87z"/>
</g>
</svg>
