<?xml version="1.0" encoding="utf-8"?>
<!-- Generator: Adobe Illustrator 18.1.1, SVG Export Plug-In . SVG Version: 6.00 Build 0)  -->
<svg version="1.1" id="Layer_1" xmlns="http://www.w3.org/2000/svg" xmlns:xlink="http://www.w3.org/1999/xlink" x="0px" y="0px"
	 viewBox="0 0 25 21.282" style="enable-background:new 0 0 25 21.282;" xml:space="preserve">
<path id="folder-opened.svg" style="fill:#FFFFFF;" d="M24.794,7.93c-0.183-0.282-0.462-0.446-0.757-0.446h-1.327V4.257
	c0-0.646-0.431-1.169-0.963-1.169h-8.22c-0.841,0-1.61-0.478-1.983-1.232l-0.636-1.288C10.734,0.215,10.421,0,10.082,0H2.998
	C2.466,0,2.035,0.524,2.035,1.169v6.314H0.963c-0.291,0-0.566,0.16-0.749,0.435C0.031,8.193-0.04,8.554,0.022,8.899l2.035,11.46
	c0.096,0.538,0.488,0.923,0.941,0.923h18.749c0.444,0,0.831-0.37,0.936-0.894l2.291-11.46C25.042,8.58,24.976,8.212,24.794,7.93z
	 M4.815,1.684h3.886c0.452,0,0.864,0.277,1.064,0.715l0.97,2.125c0.181,0.397,0.508,0.64,0.861,0.64h8.376
	c0.656,0,1.187,0.575,1.187,1.284v1.035H3.628V2.968C3.628,2.259,4.159,1.684,4.815,1.684z"/>
</svg>
