<?xml version="1.0" encoding="utf-8"?>
<!-- Generator: Adobe Illustrator 18.1.1, SVG Export Plug-In . SVG Version: 6.00 Build 0)  -->
<svg version="1.1" id="Layer_1" xmlns="http://www.w3.org/2000/svg" xmlns:xlink="http://www.w3.org/1999/xlink" x="0px" y="0px"
	 viewBox="0 0 25 21.22" style="enable-background:new 0 0 25 21.22;" xml:space="preserve">
<path id="folder-empty-opened.svg" style="fill:#FFFFFF;" d="M24.794,7.907c-0.183-0.281-0.462-0.445-0.757-0.445h-1.327V4.245
	c0-0.644-0.431-1.166-0.963-1.166h-9.594l-1.244-2.513C10.734,0.215,10.421,0,10.082,0H2.998C2.466,0,2.035,0.522,2.035,1.166v6.296
	H0.963c-0.291,0-0.566,0.159-0.749,0.433S-0.04,8.529,0.022,8.873L2.057,20.3c0.096,0.537,0.488,0.921,0.941,0.921h18.749
	c0.444,0,0.831-0.368,0.936-0.891l2.291-11.427C25.042,8.555,24.976,8.188,24.794,7.907z M4.842,2.332H8.99
	c0.335,0,0.641,0.19,0.79,0.49l1.001,2.023c0.174,0.352,0.488,0.566,0.826,0.566h8.295c0.487,0,0.881,0.395,0.881,0.881v1.17H3.961
	V3.213C3.961,2.726,4.355,2.332,4.842,2.332z M19.906,18.888H4.883c-0.641,0-1.189-0.459-1.301-1.09l-1.149-6.451
	c-0.144-0.81,0.479-1.553,1.301-1.553h17.466c0.834,0,1.46,0.763,1.296,1.581l-1.293,6.451
	C21.078,18.444,20.536,18.888,19.906,18.888z"/>
</svg>
