<?xml version="1.0" encoding="utf-8"?>
<!-- Generator: Adobe Illustrator 18.1.1, SVG Export Plug-In . SVG Version: 6.00 Build 0)  -->
<svg version="1.1" id="Layer_1" xmlns="http://www.w3.org/2000/svg" xmlns:xlink="http://www.w3.org/1999/xlink" x="0px" y="0px"
	 viewBox="0 0 27 27" style="enable-background:new 0 0 27 27;" xml:space="preserve">
<g id="globe-line.svg" style="fill: #FFFFFF;">
	<defs>
		<path id="SVGID_1_" d="M13.5,27C6.056,27,0,20.944,0,13.5S6.056,0,13.5,0S27,6.056,27,13.5S20.944,27,13.5,27z M2.054,14.614
			c0.383,3.964,2.785,7.345,6.163,9.099l0.097-0.209c-0.142-0.138-0.318-0.296-0.454-0.42c-0.378-0.342-0.77-0.695-1.049-1.042
			c-0.195-0.242-0.756-0.94-0.324-1.697c-0.036-0.209-0.128-0.531-0.285-0.862c-0.32-0.683-0.087-1.302,0.054-1.673
			c-0.076-0.022-0.164-0.039-0.244-0.039c-1.025,0-1.436-0.956-1.656-1.47c-0.064-0.149-0.161-0.375-0.216-0.441
			c-0.111-0.117-0.693-0.517-1.812-1.101L2.054,14.614z M10.214,22.645c1.051,0.379,2.154,0.57,3.286,0.57
			c2.111,0,4.103-0.658,5.783-1.908c0.066-0.279,0.17-0.561,0.306-0.831c0.03-0.104,0.022-0.136,0.016-0.167
			c-0.086-0.493-0.083-1.046,0.52-1.752c0.494-0.577,1.297-0.789,2.038-0.653c0.371-0.726,0.645-1.488,0.82-2.281
			c-0.349-0.113-0.635-0.315-0.822-0.592c-0.218-0.322-0.317-0.743-0.443-1.276c-0.024-0.104-0.056-0.237-0.091-0.374
			c-0.012,0.022-0.024,0.046-0.036,0.069c-0.142,0.267-0.359,0.674-0.771,0.832c-0.25,0.175-0.621,0.378-1.042,0.424
			c0.265,0.573,0.394,1.405-0.358,2.369c-0.396,0.508-0.435,0.785-0.511,1.336c-0.026,0.192-0.055,0.395-0.098,0.616
			c-0.199,1.027-0.999,1.902-1.527,2.481l-0.215,0.24c-0.507,0.592-1.48,0.856-2.22,0.856l0,0c-0.416,0-0.763-0.083-1.033-0.247
			c-0.564-0.344-0.771-0.975-0.909-1.393c-0.028-0.086-0.051-0.167-0.08-0.228c-0.224-0.335-0.821-1.7-0.314-2.99
			c0.044-0.112-0.091-0.355-0.271-0.663c-0.066-0.112-0.134-0.227-0.196-0.347c-0.22,0.018-0.458,0.056-0.69,0.093
			c-0.441,0.07-0.898,0.144-1.333,0.144c-1.812,0-2.039-1.607-2.175-2.567l-0.045-0.311c-0.192-1.267,0.105-2.403,0.837-3.2
			c0.326-0.355,0.668-0.656,1.024-0.902C9.588,9.844,9.536,9.677,9.51,9.497C9.445,9.046,9.545,8.514,9.83,8.111
			C9.724,7.986,9.64,7.838,9.587,7.665c-0.065-0.214-0.208-0.957,0.674-1.547c0.144-0.097,0.264-0.182,0.365-0.253
			c0.362-0.257,0.648-0.459,1.066-0.459h0.297l0.319,0.183c0.036,0.023,0.071,0.052,0.108,0.083
			c0.223-0.514,0.586-0.977,1.104-1.231c0.326-0.16,0.904-0.394,1.516-0.533c-1.91-0.303-3.938-0.021-5.693,0.811
			C9.533,5.134,9.82,6.07,9.289,7.212c-0.403,0.865-0.9,1.189-1.264,1.427C7.843,8.758,7.733,8.829,7.62,8.971
			C7.202,9.492,6.622,9.769,5.942,9.769c-0.202,0-0.391-0.026-0.548-0.053c-0.18,0.09-0.493,0.271-0.753,0.439L4.43,10.292
			L4.325,10.3c-0.333,0.954-0.513,1.95-0.537,2.972c1.477,0.812,1.784,1.182,1.892,1.312c0.239,0.289,0.385,0.628,0.514,0.928
			c0.036,0.083,0.082,0.189,0.123,0.276c1.024,0.112,2.024,0.777,2.024,1.795c0,0.374-0.118,0.685-0.213,0.935
			c-0.023,0.062-0.056,0.146-0.074,0.205c0.226,0.503,0.452,1.211,0.452,1.793c0,0.141-0.02,0.265-0.05,0.374
			c0.191,0.211,0.483,0.475,0.746,0.712C9.646,22.004,9.997,22.32,10.214,22.645z M21.574,19.954c0.057,0.341,0.11,0.809-0.2,1.422
			c-0.097,0.192-0.161,0.399-0.175,0.569l-0.008,0.098c0.587-0.529,1.12-1.118,1.588-1.756l-0.58-0.279
			c-0.195-0.095-0.388-0.15-0.516-0.15C21.628,19.899,21.595,19.932,21.574,19.954z M12.22,14.725c1.13,0,1.459,0.684,1.549,0.978
			c0.021,0.07,0.122,0.242,0.196,0.367c0.304,0.517,0.813,1.382,0.409,2.409c-0.157,0.399,0.046,1.031,0.15,1.204
			c0.133,0.2,0.209,0.433,0.283,0.657c0.024,0.074,0.059,0.178,0.091,0.264c0.287-0.011,0.59-0.111,0.674-0.18
			c0.05-0.062,0.137-0.157,0.235-0.265c0.355-0.388,0.949-1.039,1.042-1.514c0.035-0.184,0.058-0.351,0.08-0.509
			c0.092-0.669,0.188-1.361,0.915-2.293c0.191-0.244,0.191-0.244-0.039-0.55l-0.085-0.115c-0.369-0.517-0.75-2.071-0.835-2.748
			c-0.115-0.112-0.382-0.301-0.723-0.411c-0.21-0.068-0.34-0.076-0.419-0.076c-0.191,0-0.41,0.056-0.713,0.133l-0.186,0.047
			c-0.127,0.031-0.257,0.047-0.388,0.047c-0.607,0-1.063-0.332-1.429-0.6c-0.337-0.246-0.556-0.396-0.801-0.396
			c-0.758,0-1.449,0.352-2.114,1.075c-0.402,0.438-0.403,1.083-0.333,1.546l0.048,0.331c0.041,0.288,0.095,0.67,0.16,0.841
			c0.002,0,0.004,0,0.007,0c0.347,0,0.702-0.057,1.045-0.111C11.458,14.788,11.853,14.725,12.22,14.725z M21.261,10.693
			c0.262,0,0.458,0.089,0.601,0.153c0.073,0.033,0.176,0.082,0.331,0.121c0.98,0.246,1.241,1.352,1.471,2.327
			c0.029,0.125,0.067,0.284,0.103,0.418c0.032-0.004,0.058-0.011,0.082-0.019l1.149-0.366c-0.048-3.296-1.491-6.261-3.763-8.33
			L19.95,5.567c-0.142,0.063-0.297,0.181-0.422,0.276c-0.076,0.057-0.141,0.105-0.193,0.14c-0.297,0.198-1.59,0.855-2.273,0.855
			c-0.232,0-0.989-0.076-1.182-1.039c-0.474,0.041-1.088,0.245-1.476,0.436c-0.132,0.08-0.291,0.562-0.255,0.778
			c0.1,0.394,0.016,0.81-0.233,1.13c-0.103,0.132-0.231,0.243-0.376,0.331c0.177,0.099,0.319,0.22,0.433,0.316
			c0.187,0.158,0.311,0.263,0.542,0.308c0.477,0.093,0.731-0.001,1.044-0.137l0.211-0.087c0.799-0.303,1.958,0.107,2.62,0.89
			c0.404,0.479,0.894,1.515,1.444,2.727c0.11-0.212,0.158-0.386,0.208-0.569c0.053-0.192,0.104-0.361,0.175-0.516
			C20.515,10.763,21.046,10.693,21.261,10.693z M6.866,4.111C5.319,5.207,4.054,6.676,3.201,8.385L3.77,8.339
			c1.036-0.646,1.357-0.646,1.534-0.646c0.089,0,0.216,0.015,0.368,0.041C5.803,7.759,5.982,7.813,6.06,7.72
			c0.313-0.392,0.637-0.603,0.873-0.756c0.262-0.171,0.382-0.249,0.543-0.596c0.22-0.472,0.063-0.802,0.061-0.805l-0.064-0.12
			L6.866,4.111z"/>
	</defs>
	<use xlink:href="#SVGID_1_"  style="overflow:visible;fill:#FFFFFF;"/>
	<clipPath id="SVGID_2_">
		<use xlink:href="#SVGID_1_"  style="overflow:visible;"/>
	</clipPath>
</g>
</svg>
