<?xml version="1.0" encoding="utf-8"?>
<!-- Generator: Adobe Illustrator 18.1.1, SVG Export Plug-In . SVG Version: 6.00 Build 0)  -->
<svg version="1.1" id="Layer_1" xmlns="http://www.w3.org/2000/svg" xmlns:xlink="http://www.w3.org/1999/xlink" x="0px" y="0px"
	 viewBox="0 0 24.489 25" style="enable-background:new 0 0 24.489 25;" xml:space="preserve">
<g id="import-line.svg_1_">
	<g>
		<path style="fill:#FFFFFF;" d="M22.212,25H2.277C1.022,25,0,23.981,0,22.729v-6.963c0-1.252,1.022-2.271,2.277-2.271
			s2.277,1.019,2.277,2.271v4.692h15.381v-4.692c0-1.252,1.021-2.271,2.277-2.271c1.256,0,2.277,1.019,2.277,2.271v6.963
			C24.489,23.981,23.468,25,22.212,25z M2.277,15.454c-0.176,0-0.318,0.14-0.318,0.312v6.963c0,0.172,0.143,0.312,0.318,0.312
			h19.935c0.176,0,0.318-0.14,0.318-0.312v-6.963c0-0.172-0.143-0.312-0.318-0.312c-0.175,0-0.318,0.14-0.318,0.312v6.651H2.595
			v-6.651C2.595,15.594,2.453,15.454,2.277,15.454z"/>
	</g>
	<g>
		<path style="fill:#FFFFFF;" d="M12.245,18.746c-0.606,0-1.178-0.235-1.608-0.664l-5.232-5.208c-0.431-0.43-0.668-1-0.668-1.607
			c0-0.608,0.237-1.179,0.668-1.608c0.86-0.855,2.357-0.855,3.217,0l1.346,1.34V2.271C9.967,1.019,10.989,0,12.245,0
			s2.277,1.019,2.277,2.271v8.728l1.346-1.34c0.861-0.855,2.359-0.855,3.217,0.001c0.431,0.428,0.669,0.999,0.669,1.607
			c0,0.607-0.238,1.179-0.669,1.607l-5.232,5.208C13.426,18.509,12.853,18.746,12.245,18.746z M7.013,10.955
			c-0.05,0-0.145,0.011-0.226,0.093c-0.076,0.075-0.091,0.161-0.091,0.219c0,0.057,0.016,0.143,0.091,0.218l5.232,5.208
			c0.119,0.119,0.333,0.119,0.451,0.002l5.234-5.21c0.076-0.076,0.092-0.161,0.092-0.218c0-0.058-0.016-0.143-0.091-0.219
			c-0.163-0.163-0.291-0.163-0.453,0l-4.688,4.665V2.271c0-0.172-0.143-0.312-0.318-0.312s-0.318,0.14-0.318,0.312v13.442
			L7.24,11.048C7.159,10.967,7.063,10.955,7.013,10.955z"/>
	</g>
</g>
</svg>
