<svg version="1.2" baseProfile="tiny" xmlns="http://www.w3.org/2000/svg" xmlns:xlink="http://www.w3.org/1999/xlink" xmlns:a="http://ns.adobe.com/AdobeSVGViewerExtensions/3.0/" x="0px" y="0px" width="44px" height="20px" viewBox="0 0 44 20" xml:space="preserve"><defs></defs><path fill="#FFFFFF" d="M0,0v20h44V0H0z M32,2h4v4h-4V2z M33,8v4h-4V8H33z M26,2h4v4h-4V2z M27,8v4h-4V8H27z M20,2h4v4h-4V2z M21,8v4h-4V8H21z M14,2h4v4h-4V2z M15,8v4h-4V8H15z M8,2h4v4H8V2z M2,2h4v4H2V2z M2,8h7v4H2V8z M6,18H2v-4h4V18z M12,18H8v-4h4V18zM30,18H14v-4h16V18z M36,18h-4v-4h4V18z M42,18h-4v-4h4V18z M42,12h-7V8h7V12z M42,6h-4V2h4V6z"/></svg>