<?xml version="1.0" encoding="utf-8"?>
<!-- Generator: Adobe Illustrator 18.1.1, SVG Export Plug-In . SVG Version: 6.00 Build 0)  -->
<svg version="1.1" id="Layer_1" xmlns="http://www.w3.org/2000/svg" xmlns:xlink="http://www.w3.org/1999/xlink" x="0px" y="0px"
	 viewBox="0 0 24.999 25" style="enable-background:new 0 0 24.999 25;" xml:space="preserve">
<g id="minus-circle-rotate.svg">
	<path style="fill:#FFFFFF;" d="M24.191,16.868c0.513-1.364,0.807-2.832,0.807-4.369c0-1.537-0.295-3.005-0.808-4.368
		c-0.051-0.138-0.095-0.277-0.152-0.414c-0.055-0.133-0.12-0.262-0.181-0.394c-0.6-1.328-1.431-2.576-2.518-3.664l-0.011,0.011
		C19.062,1.406,15.937-0.001,12.499,0c-1.723,0-3.366,0.354-4.861,0.991l0-0.068C6.93,1.278,6.22,1.676,5.546,2.131
		C5.464,2.183,5.389,2.245,5.31,2.3c-0.585,0.41-1.146,0.856-1.65,1.36c-1.087,1.087-1.916,2.333-2.517,3.66
		C1.081,7.454,1.015,7.584,0.959,7.719C0.905,7.854,0.86,7.99,0.81,8.126C0.293,9.491,0,10.96,0,12.499h0.014
		c0,3.203,1.215,6.408,3.646,8.839c1.217,1.217,2.629,2.13,4.138,2.738L7.75,24.124c0.752,0.25,1.534,0.469,2.332,0.626
		c0.094,0.019,0.192,0.027,0.286,0.044C11.072,24.917,11.784,25,12.498,25c1.537,0,3.005-0.295,4.37-0.808
		c0.138-0.051,0.275-0.095,0.411-0.152c0.134-0.057,0.263-0.121,0.395-0.183c1.328-0.6,2.576-1.431,3.664-2.518
		s1.919-2.336,2.518-3.664c0.06-0.131,0.126-0.26,0.181-0.394C24.096,17.145,24.141,17.006,24.191,16.868z M2.522,12.275
		c0.013-0.574,0.064-1.138,0.172-1.685c0.018-0.1,0.049-0.198,0.071-0.297c0.128-0.565,0.291-1.116,0.513-1.639
		c0.014-0.035,0.032-0.07,0.048-0.105c0.761-1.754,2.007-3.252,3.571-4.318c0.02-0.013,0.039-0.025,0.059-0.038
		C8.545,3.127,10.452,2.5,12.5,2.5c4.099,0,7.634,2.501,9.175,6.049c0.014,0.035,0.034,0.07,0.048,0.105
		c0.22,0.524,0.383,1.076,0.511,1.64c0.022,0.098,0.052,0.196,0.072,0.293c0.107,0.548,0.159,1.114,0.171,1.689
		c0.004,0.15,0.004,0.298,0,0.445c-0.013,0.574-0.064,1.141-0.171,1.689c-0.019,0.099-0.049,0.196-0.072,0.293
		c-0.128,0.565-0.292,1.117-0.513,1.642c-0.014,0.035-0.033,0.068-0.048,0.103c-1.012,2.335-2.891,4.213-5.226,5.226
		c-0.034,0.015-0.068,0.033-0.103,0.048c-0.524,0.22-1.077,0.384-1.642,0.513c-0.098,0.022-0.194,0.053-0.293,0.072
		c-0.548,0.107-1.114,0.159-1.689,0.171c-0.292,0.007-0.585-0.002-0.877-0.021c-0.127-0.007-0.256-0.013-0.379-0.026
		c-0.278-0.028-0.555-0.067-0.831-0.119c-0.052-0.009-0.105-0.022-0.156-0.033c-1.854-0.378-3.62-1.278-5.051-2.708
		C3.427,17.569,2.463,14.913,2.522,12.275z"/>
	<path style="fill:#FFFFFF;" d="M17.518,9.484c0.553-0.553,0.553-1.45,0-2.003c-0.553-0.553-1.45-0.552-2.003,0l-8.033,8.033
		c-0.553,0.553-0.553,1.45,0,2.003s1.45,0.552,2.003,0L17.518,9.484z"/>
</g>
</svg>
