<?xml version="1.0" encoding="utf-8"?>
<!-- Generator: Adobe Illustrator 18.1.1, SVG Export Plug-In . SVG Version: 6.00 Build 0)  -->
<svg version="1.1" id="Layer_1" xmlns="http://www.w3.org/2000/svg" xmlns:xlink="http://www.w3.org/1999/xlink" x="0px" y="0px"
	 viewBox="0 0 25 25" style="enable-background:new 0 0 25 25;" xml:space="preserve">
<g id="remove-circle.svg">
	<path style="fill:#FFFFFF;" d="M17.678,23.857c1.327-0.602,2.573-1.432,3.66-2.518c1.087-1.087,1.917-2.333,2.517-3.66
		c0.062-0.133,0.128-0.263,0.185-0.4c0.055-0.133,0.1-0.27,0.15-0.407C24.705,15.508,25,14.038,25,12.5h-0.015
		c0-3.203-1.215-6.408-3.647-8.838c-1.218-1.218-2.63-2.13-4.138-2.737l0.048-0.048c-0.752-0.25-1.535-0.47-2.333-0.625
		c-0.095-0.022-0.192-0.03-0.287-0.047C13.925,0.082,13.213,0,12.5,0c-1.537,0-3.005,0.295-4.368,0.808
		C7.993,0.858,7.855,0.903,7.72,0.96C7.587,1.017,7.458,1.082,7.327,1.142c-1.33,0.6-2.577,1.432-3.665,2.52l0.01,0.01
		C1.407,5.937,0,9.062,0,12.5c0,1.722,0.353,3.365,0.99,4.862H0.922c0.355,0.708,0.753,1.417,1.207,2.092
		c0.053,0.08,0.117,0.155,0.172,0.233c0.41,0.585,0.855,1.147,1.36,1.652c1.087,1.087,2.333,1.917,3.662,2.518
		c0.133,0.062,0.262,0.127,0.398,0.183c0.135,0.055,0.272,0.1,0.408,0.15C9.492,24.705,10.962,25,12.5,25s3.008-0.295,4.372-0.81
		c0.135-0.05,0.273-0.095,0.407-0.15C17.415,23.985,17.545,23.918,17.678,23.857z M5.603,5.287c0.415-0.397,0.85-0.76,1.313-1.07
		C7,4.158,7.092,4.112,7.177,4.057c0.49-0.308,0.995-0.583,1.522-0.797C8.733,3.245,8.77,3.233,8.807,3.22
		c1.778-0.702,3.718-0.88,5.578-0.528c0.023,0.005,0.045,0.01,0.068,0.015c1.878,0.37,3.67,1.275,5.118,2.723
		c2.898,2.898,3.63,7.167,2.21,10.765c-0.015,0.035-0.025,0.073-0.04,0.108c-0.215,0.527-0.49,1.032-0.798,1.522
		C20.89,17.91,20.842,18,20.787,18.083c-0.312,0.463-0.675,0.9-1.073,1.315c-0.103,0.108-0.208,0.213-0.315,0.315
		c-0.415,0.397-0.852,0.762-1.315,1.073C18,20.843,17.91,20.89,17.825,20.943c-0.49,0.308-0.997,0.583-1.523,0.798
		c-0.035,0.015-0.072,0.025-0.107,0.038c-2.367,0.935-5.023,0.935-7.39,0c-0.035-0.013-0.072-0.025-0.107-0.038
		c-0.527-0.215-1.033-0.49-1.523-0.798C7.09,20.89,7,20.843,6.917,20.787c-0.463-0.312-0.9-0.675-1.315-1.073
		c-0.212-0.202-0.412-0.415-0.605-0.635c-0.085-0.095-0.172-0.19-0.25-0.287c-0.177-0.217-0.345-0.44-0.503-0.672
		c-0.03-0.043-0.058-0.09-0.087-0.133C3.113,16.408,2.5,14.523,2.5,12.5C2.5,9.67,3.697,7.11,5.603,5.287z"/>
	<path style="fill:#FFFFFF;" d="M15.515,7.482L12.5,10.497L9.485,7.482c-0.553-0.553-1.45-0.553-2.003,0
		c-0.553,0.553-0.552,1.45,0,2.003l3.015,3.015l-3.015,3.015c-0.553,0.553-0.552,1.45,0,2.003c0.553,0.553,1.45,0.553,2.003,0
		l3.015-3.015l3.015,3.015c0.553,0.553,1.45,0.553,2.003,0s0.552-1.45,0-2.003L14.503,12.5l3.015-3.015
		c0.553-0.553,0.552-1.45,0-2.003C16.965,6.93,16.068,6.928,15.515,7.482z"/>
</g>
</svg>
