<?xml version="1.0" encoding="utf-8"?>
<!-- Generator: Adobe Illustrator 18.1.1, SVG Export Plug-In . SVG Version: 6.00 Build 0)  -->
<svg version="1.1" id="Layer_1" xmlns="http://www.w3.org/2000/svg" xmlns:xlink="http://www.w3.org/1999/xlink" x="0px" y="0px"
	 viewBox="0 0 25 24.791" style="enable-background:new 0 0 25 24.791;" xml:space="preserve">
<g id="rocket-line.svg" style="fill:#ffffff;">
	<g>
		<defs>
			<path id="SVGID_1_" d="M17.514,9.044c1.018,0,1.844-0.826,1.844-1.844c0-1.018-0.826-1.844-1.844-1.844
				c-1.018,0-1.844,0.826-1.844,1.844C15.67,8.219,16.496,9.044,17.514,9.044z M10.735,10.054c-0.482,0.596-3.633,4.562-4.658,5.878
				c-0.359,0.461,2.198,3.028,2.656,2.672c1.31-1.018,5.305-4.191,5.918-4.687c2.853-2.31,4.987-4.134,6.065-5.211
				c1.025-1.025,1.715-2.678,2.067-4.688c0.131-0.745,0.125-0.947,0.125-0.947c0.061-0.677-0.442-1.163-1.115-1.085
				c0,0-0.266,0.027-1.061,0.127c-2.114,0.265-3.807,0.888-4.765,1.845C14.905,5.019,13.07,7.169,10.735,10.054z M5.053,18.358
				l-0.79,0.79c-0.36,0.36-0.36,0.944,0,1.304c0.36,0.36,0.944,0.36,1.304,0l0.79-0.79l1.909,1.909l2.255,3.22l1.36-0.952
				c0.996-0.697,1.66-2.24,1.483-3.449l-0.348-2.369c3.244-2.567,7.291-5.852,9.055-7.615c3.17-3.17,2.925-9.226,2.925-9.226
				c0.013-0.583-0.442-1.077-1.015-1.137c-0.025-0.003-0.05-0.004-0.075-0.005c0,0-6.528-0.543-9.637,2.566
				c-1.749,1.749-5.093,5.873-7.683,9.146l-2.183-0.32c-1.209-0.177-2.751,0.487-3.449,1.483L0,14.271l3.22,2.255L5.053,18.358z"/>
		</defs>
		<use xlink:href="#SVGID_1_"  style="overflow:visible;fill-rule:evenodd;clip-rule:evenodd;fill:#FFFFFF;"/>
		<clipPath id="SVGID_2_">
			<use xlink:href="#SVGID_1_"  style="overflow:visible;"/>
		</clipPath>
	</g>
</g>
</svg>
