<?xml version="1.0" encoding="utf-8"?>
<!-- Generator: Adobe Illustrator 18.1.1, SVG Export Plug-In . SVG Version: 6.00 Build 0)  -->
<svg version="1.1" id="Layer_1" xmlns="http://www.w3.org/2000/svg" xmlns:xlink="http://www.w3.org/1999/xlink" x="0px" y="0px"
	 viewBox="0 0 23.75 25" style="enable-background:new 0 0 23.75 25;" xml:space="preserve">
<g id="sync.svg">
	<path style="fill:#FFFFFF;" d="M13.794,2.38L9.891,0.142C9.331-0.18,8.879,0.064,8.88,0.685l0.005,0.93
		C3.776,2.872,0,7.261,0,12.496c0,3.363,1.559,6.38,4.027,8.44c1.911,1.686,3.098-0.564,1.896-1.426
		C3.76,17.859,2.5,15.331,2.5,12.496c0-3.984,2.613-7.349,6.396-8.535l0.006,1.225c0.001,0.621,0.459,0.866,1.023,0.546L13.79,3.54
		C14.354,3.22,14.355,2.701,13.794,2.38z"/>
	<path style="fill:#FFFFFF;" d="M23.75,12.496c0-3.41-1.6-6.46-4.128-8.522c-1.216-1.041-2.996,0.646-1.829,1.484
		c2.184,1.647,3.583,4.187,3.583,7.039c0,3.979-2.734,7.343-6.513,8.529l0.006-1.212c0.001-0.622-0.451-0.865-1.013-0.544
		l-3.9,2.236c-0.561,0.322-0.56,0.842,0.002,1.163l3.865,2.192c0.562,0.32,1.021,0.074,1.024-0.547l0.005-0.934
		C19.966,22.126,23.75,17.734,23.75,12.496z"/>
</g>
</svg>
