<?xml version="1.0" encoding="utf-8"?>
<!-- Generator: Adobe Illustrator 18.1.1, SVG Export Plug-In . SVG Version: 6.00 Build 0)  -->
<svg version="1.1" id="Layer_1" xmlns="http://www.w3.org/2000/svg" xmlns:xlink="http://www.w3.org/1999/xlink" x="0px" y="0px"
	 viewBox="0 0 24.78 25" style="enable-background:new 0 0 24.78 25;" xml:space="preserve">
<g id="to-back-line.svg">
	<g>
		<path style="fill:#FFFFFF;" d="M14.367,17.852c-0.39,0-0.788-0.115-1.183-0.341l-5.687-3.248
			c-0.713-0.408-1.122-1.037-1.123-1.726c-0.001-0.688,0.405-1.318,1.115-1.729l5.741-3.314c0.871-0.505,1.833-0.434,2.424,0.158
			c0.258,0.259,0.565,0.731,0.564,1.514l-0.002,0.376h5.837c1.503,0,2.727,1.229,2.727,2.738s-1.223,2.738-2.727,2.738h-5.864
			l-0.004,0.82C16.183,17.022,15.435,17.851,14.367,17.852z M8.502,12.533l5.674,3.241c0.003,0.002,0.006,0.003,0.009,0.005
			l0.013-2.761h7.854c0.4,0,0.727-0.331,0.727-0.738s-0.326-0.738-0.727-0.738h-7.848l0.012-2.309L8.502,12.533z"/>
	</g>
	<g>
		<path style="fill:#FFFFFF;" d="M18.968,25H2.315C1.039,25,0,23.957,0,22.676V2.325C0,1.043,1.039,0,2.315,0h16.653
			c1.382,0,2.507,1.129,2.507,2.518v3.36c0,1.282-1.039,2.325-2.315,2.325s-2.315-1.043-2.315-2.325V4.649H4.63v15.702h12.214
			v-1.229c0-1.282,1.039-2.325,2.315-2.325s2.315,1.043,2.315,2.325v3.36C21.475,23.871,20.351,25,18.968,25z M2.315,2
			C2.141,2,2,2.146,2,2.325v20.351C2,22.854,2.141,23,2.315,23h16.653c0.279,0,0.507-0.231,0.507-0.517v-3.36
			c0-0.18-0.142-0.325-0.315-0.325s-0.315,0.146-0.315,0.325v3.229H2.63V2.649h16.214v3.229c0,0.18,0.142,0.325,0.315,0.325
			s0.315-0.146,0.315-0.325v-3.36C19.475,2.232,19.248,2,18.968,2H2.315z"/>
	</g>
</g>
</svg>
