<?xml version="1.0" encoding="utf-8"?>
<!-- Generator: Adobe Illustrator 18.1.1, SVG Export Plug-In . SVG Version: 6.00 Build 0)  -->
<svg version="1.1" id="Layer_1" xmlns="http://www.w3.org/2000/svg" xmlns:xlink="http://www.w3.org/1999/xlink" x="0px" y="0px"
	 viewBox="0 0 20.123 25" style="enable-background:new 0 0 20.123 25;" xml:space="preserve">
<g id="unlocked.svg" style="fill:#ffffff;">
	<g>
		<defs>
			<path id="SVGID_1_" d="M10.063,0C6.19,0,3.051,3.094,3.051,6.911v4.063H5.49V7.255c0-2.651,2.04-4.816,4.573-4.816
				c2.357,0,4.286,1.873,4.544,4.268h2.465C16.963,2.985,13.867,0,10.063,0z M0,12.196c0-0.674,0.549-1.22,1.213-1.22h17.696
				c0.67,0,1.213,0.55,1.213,1.22V23.78c0,0.674-0.549,1.22-1.213,1.22H1.213C0.543,25,0,24.45,0,23.78V12.196z"/>
		</defs>
		<use xlink:href="#SVGID_1_"  style="overflow:visible;fill-rule:evenodd;clip-rule:evenodd;fill:#FFFFFF;"/>
		<clipPath id="SVGID_2_">
			<use xlink:href="#SVGID_1_"  style="overflow:visible;"/>
		</clipPath>
	</g>
</g>
</svg>
