<?xml version="1.0" encoding="utf-8"?>
<!-- Generator: Adobe Illustrator 18.1.1, SVG Export Plug-In . SVG Version: 6.00 Build 0)  -->
<svg version="1.1" id="Layer_1" xmlns="http://www.w3.org/2000/svg" xmlns:xlink="http://www.w3.org/1999/xlink" x="0px" y="0px"
	 viewBox="0 0 23.749 23.75" style="enable-background:new 0 0 23.749 23.75;" xml:space="preserve">
<path id="update.svg" style="fill:#FFFFFF;" d="M0.37,14.854c1.253,5.112,5.645,8.896,10.883,8.896c0.901,0,1.775-0.117,2.612-0.332
	c0.719-0.184,1.07-1.004,0.741-1.668l0,0c-0.242-0.489-0.788-0.755-1.317-0.623c-0.654,0.162-1.335,0.25-2.036,0.25
	c-3.979,0-7.343-2.734-8.529-6.513c0,0-1.67-4.908,1.515-8.94C5.89,3.76,8.418,2.5,11.253,2.5c3.984,0,7.349,2.612,8.535,6.396
	l-1.225,0.006c-0.621,0.001-0.866,0.459-0.546,1.023l2.193,3.866c0.318,0.56,0.839,0.561,1.159,0.003l2.237-3.903
	c0.323-0.56,0.079-1.012-0.542-1.011l-0.93,0.005C20.876,3.776,16.488,0,11.253,0c-3.363,0-6.38,1.559-8.44,4.028
	C2.813,4.028-1.217,8.164,0.37,14.854z"/>
</svg>
