<?xml version="1.0" encoding="utf-8"?>
<!-- Generator: Adobe Illustrator 18.1.1, SVG Export Plug-In . SVG Version: 6.00 Build 0)  -->
<svg version="1.1" id="Layer_1" xmlns="http://www.w3.org/2000/svg" xmlns:xlink="http://www.w3.org/1999/xlink" x="0px" y="0px"
	 viewBox="0 0 23.947 25" style="enable-background:new 0 0 23.947 25;" xml:space="preserve">
<g id="user-minus-line.svg" style="fill:#ffffff;">
	<defs>
		<path id="SVGID_1_" d="M11.457,21.579h-1.224H1.086H0.878c-0.582,0-0.966-0.462-0.861-1.033l0.038-0.204
			c0.038-0.205,0.116-0.538,0.244-0.957c0.212-0.695,0.492-1.391,0.851-2.048c0.39-0.713,0.854-1.339,1.402-1.852
			c1.498-1.4,3.384-2.238,5.026-2.586v-0.222c-1.83-1.178-2.972-3.402-2.972-5.906C4.606,3.001,6.957,0,10.263,0
			c3.3,0,5.658,3.017,5.658,6.771c0,2.504-1.142,4.728-2.972,5.906v0.222c0.302,0.064,0.612,0.144,0.927,0.242
			c0.128,0.04,0.256,0.082,0.385,0.127c-0.686,0.451-1.289,1.017-1.782,1.671c-0.038-0.009-0.075-0.017-0.112-0.025
			c-1.631-0.345-1.928-3.056-0.554-3.94c1.205-0.776,2.01-2.385,2.01-4.203c0-2.694-1.548-4.675-3.56-4.675
			c-2.02,0-3.56,1.965-3.56,4.675c0,1.818,0.805,3.428,2.01,4.203c1.374,0.884,1.077,3.595-0.554,3.94
			c-1.302,0.276-3.004,1.006-4.174,2.1c-0.372,0.348-0.705,0.798-0.995,1.327c-0.285,0.52-0.34,1.141-0.34,1.141h7.583h0.824
			C11.085,20.216,11.224,20.92,11.457,21.579L11.457,21.579L11.457,21.579z M18.158,25c3.197,0,5.789-2.592,5.789-5.79
			c0-3.197-2.592-5.789-5.789-5.789s-5.789,2.592-5.789,5.789C12.368,22.408,14.96,25,18.158,25L18.158,25z M18.158,23.421
			c-2.325,0-4.211-1.885-4.211-4.211c0-2.325,1.885-4.21,4.211-4.21s4.211,1.885,4.211,4.21
			C22.368,21.536,20.483,23.421,18.158,23.421L18.158,23.421z M20.186,18.421c0.479,0,0.867,0.35,0.867,0.789
			c0,0.436-0.389,0.789-0.867,0.789H16.13c-0.479,0-0.867-0.35-0.867-0.789c0-0.436,0.389-0.789,0.867-0.789H20.186L20.186,18.421z"
			/>
	</defs>
	<use xlink:href="#SVGID_1_"  style="overflow:visible;fill:#FFFFFF;"/>
	<clipPath id="SVGID_2_">
		<use xlink:href="#SVGID_1_"  style="overflow:visible;"/>
	</clipPath>
</g>
</svg>
