<?xml version="1.0" encoding="utf-8"?>
<!-- Generator: Adobe Illustrator 18.1.1, SVG Export Plug-In . SVG Version: 6.00 Build 0)  -->
<svg version="1.1" id="Layer_1" xmlns="http://www.w3.org/2000/svg" xmlns:xlink="http://www.w3.org/1999/xlink" x="0px" y="0px"
	 viewBox="0 0 23.78 25" style="enable-background:new 0 0 23.78 25;" xml:space="preserve">
<g id="user-line.svg" style="fill:#ffffff;">
	<defs>
		<path id="SVGID_1_" d="M3.465,21.25c0.336-0.614,0.721-1.135,1.152-1.538c1.356-1.268,3.328-2.114,4.836-2.433
			c1.889-0.4,2.234-3.541,0.642-4.565c-1.397-0.899-2.329-2.763-2.329-4.87c0-3.139,1.784-5.416,4.124-5.416
			c2.331,0,4.124,2.295,4.124,5.416c0,2.107-0.933,3.971-2.329,4.87c-1.592,1.024-1.248,4.165,0.642,4.565
			c1.508,0.319,3.48,1.166,4.836,2.433c0.431,0.403,0.816,0.924,1.152,1.538c0.33,0.603,0.554,1.322,0.554,1.322h-9.014H3.07
			C3.07,22.572,3.135,21.853,3.465,21.25L3.465,21.25z M0.02,23.803C-0.101,24.464,0.343,25,1.018,25h0.241h10.597h10.666h0.241
			c0.673,0,1.12-0.534,0.998-1.197l-0.043-0.237c-0.044-0.238-0.135-0.623-0.283-1.109c-0.246-0.805-0.57-1.611-0.986-2.373
			c-0.452-0.826-0.989-1.552-1.624-2.145c-1.416-1.324-3.132-2.214-4.749-2.715c-0.364-0.113-0.724-0.206-1.074-0.28v-0.257
			c2.121-1.364,3.443-3.941,3.443-6.842C18.445,3.495,15.714,0,11.89,0C8.06,0,5.336,3.476,5.336,7.844
			c0,2.901,1.323,5.478,3.443,6.842v0.257c-1.902,0.403-4.087,1.374-5.823,2.996c-0.635,0.594-1.172,1.319-1.624,2.145
			c-0.417,0.762-0.741,1.568-0.986,2.373c-0.148,0.486-0.239,0.871-0.283,1.109L0.02,23.803L0.02,23.803z"/>
	</defs>
	<use xlink:href="#SVGID_1_"  style="overflow:visible;fill:#FFFFFF;"/>
	<clipPath id="SVGID_2_">
		<use xlink:href="#SVGID_1_"  style="overflow:visible;"/>
	</clipPath>
</g>
</svg>
