<?xml version="1.0" encoding="utf-8"?>
<!-- Generator: Adobe Illustrator 18.1.1, SVG Export Plug-In . SVG Version: 6.00 Build 0)  -->
<svg version="1.1" id="Layer_1" xmlns="http://www.w3.org/2000/svg" xmlns:xlink="http://www.w3.org/1999/xlink" x="0px" y="0px"
	 viewBox="0 0 21.667 25.99" style="enable-background:new 0 0 21.667 25.99;" xml:space="preserve">
<path id="user-one-line.svg" style="fill:#FFFFFF;" d="M21.65,23.457c-0.604-4.49-3.177-8.917-6.641-10.847
	c1.66-1.262,2.737-3.385,2.737-5.631C17.746,3.161,14.651,0,10.834,0S3.921,3.062,3.921,6.879c0,2.244,1.074,4.215,2.73,5.478
	c-3.462,1.931-6.03,6.619-6.634,11.108c-0.143,1.061,0.613,2.525,1.545,2.525h18.543C21.037,25.99,21.793,24.518,21.65,23.457z
	 M5.917,6.846c0-2.711,2.205-4.916,4.916-4.916c2.711,0,4.916,2.205,4.916,4.916c0,2.371-1.687,4.354-3.923,4.815
	c-0.327,0.025-0.658,0.05-0.993,0.05c-0.236,0-0.469-0.01-0.701-0.02C7.755,11.348,5.917,9.317,5.917,6.846z M2.032,23.99
	c0.628-4,3.071-8.258,6.136-9.657c0.227-0.104,0.521-0.411,0.98-0.411c0.23,0,0.462-0.121,0.697-0.111
	c0.324,0.046,0.652,0.013,0.988,0.013c0.408,0,0.806-0.075,1.194-0.143c0.237-0.018,0.468-0.052,0.663-0.052
	c0.236,0,0.4,0.54,0.518,0.588c3.163,1.278,5.779,5.774,6.426,9.774H2.032z"/>
</svg>
