<?xml version="1.0" encoding="utf-8"?>
<!-- Generator: Adobe Illustrator 18.1.1, SVG Export Plug-In . SVG Version: 6.00 Build 0)  -->
<svg version="1.1" id="Layer_1" xmlns="http://www.w3.org/2000/svg" xmlns:xlink="http://www.w3.org/1999/xlink" x="0px" y="0px"
	 viewBox="0 0 23.537 25" style="enable-background:new 0 0 23.537 25;" xml:space="preserve">
<g id="view-tree-line.svg">
	<path style="fill:#FFFFFF;" d="M11.19,20.675c-0.005,0.318,0.251,0.58,0.57,0.585c0.319,0.005,0.582-0.25,0.586-0.569
		c0-0.005,0-0.011,0-0.016l0-16.587c0.005-0.318-0.251-0.58-0.57-0.585c-0.319-0.005-0.582,0.25-0.586,0.569
		c0,0.005,0,0.011,0,0.016L11.19,20.675z"/>
	<path style="fill:#FFFFFF;" d="M19.49,20.675c-0.005,0.318,0.251,0.58,0.57,0.585c0.319,0.005,0.582-0.25,0.586-0.569
		c0-0.005,0-0.011,0-0.016l0-8.287c0.005-0.318-0.251-0.58-0.57-0.585c-0.319-0.005-0.582,0.25-0.586,0.569c0,0.005,0,0.011,0,0.016
		L19.49,20.675z"/>
	<path style="fill:#FFFFFF;" d="M2.89,20.675c-0.005,0.318,0.251,0.58,0.57,0.585c0.319,0.005,0.582-0.25,0.586-0.569
		c0-0.005,0-0.011,0-0.016l0-8.287c0.005-0.318-0.251-0.58-0.57-0.585c-0.319-0.005-0.582,0.25-0.586,0.569c0,0.005,0,0.011,0,0.016
		L2.89,20.675z"/>
	<path style="fill:#FFFFFF;" d="M20.062,12.959c0.318,0.005,0.58-0.251,0.585-0.57c0.005-0.319-0.25-0.582-0.569-0.586
		c-0.005,0-0.011,0-0.016,0l-16.587,0c-0.318-0.005-0.58,0.251-0.585,0.57c-0.005,0.319,0.25,0.582,0.569,0.586
		c0.005,0,0.011,0,0.016,0L20.062,12.959z"/>
	<path style="fill:#FFFFFF;" d="M13.503,4.613c0.951,0,1.734-0.781,1.734-1.73V1.73c0-0.949-0.783-1.73-1.734-1.73l-3.468,0
		C9.083,0,8.3,0.781,8.3,1.73v1.153c0,0.949,0.783,1.73,1.734,1.73H13.503z M9.456,2.883V1.73c0-0.326,0.251-0.577,0.578-0.577
		h3.468c0.327,0,0.578,0.251,0.578,0.577v1.153c0,0.326-0.251,0.577-0.578,0.577h-1.626c-0.077-0.016-0.157-0.016-0.235,0h-1.608
		C9.708,3.46,9.456,3.209,9.456,2.883z"/>
	<path style="fill:#FFFFFF;" d="M13.503,25c0.951,0,1.734-0.781,1.734-1.73v-1.153c0-0.949-0.783-1.73-1.734-1.73h-3.468
		c-0.951,0-1.734,0.781-1.734,1.73v1.153c0,0.949,0.783,1.73,1.734,1.73H13.503z M9.456,23.27v-1.153
		c0-0.326,0.251-0.577,0.578-0.577h3.468c0.327,0,0.578,0.251,0.578,0.577v1.153c0,0.326-0.251,0.577-0.578,0.577h-1.626
		c-0.077-0.016-0.157-0.016-0.235,0h-1.608C9.708,23.847,9.456,23.596,9.456,23.27z"/>
	<path style="fill:#FFFFFF;" d="M21.803,25c0.951,0,1.734-0.781,1.734-1.73v-1.153c0-0.949-0.783-1.73-1.734-1.73h-3.468
		c-0.951,0-1.734,0.781-1.734,1.73v1.153c0,0.949,0.783,1.73,1.734,1.73H21.803z M17.756,23.27v-1.153
		c0-0.326,0.251-0.577,0.578-0.577h3.468c0.327,0,0.578,0.251,0.578,0.577v1.153c0,0.326-0.251,0.577-0.578,0.577h-1.626
		c-0.077-0.016-0.157-0.016-0.235,0h-1.608C18.008,23.847,17.756,23.596,17.756,23.27z"/>
	<path style="fill:#FFFFFF;" d="M5.203,25c0.951,0,1.734-0.781,1.734-1.73v-1.153c0-0.949-0.783-1.73-1.734-1.73H1.734
		C0.783,20.387,0,21.168,0,22.117l0,1.153C0,24.219,0.783,25,1.734,25H5.203z M1.156,23.27v-1.153c0-0.326,0.251-0.577,0.578-0.577
		h3.468c0.327,0,0.578,0.251,0.578,0.577v1.153c0,0.326-0.251,0.577-0.578,0.577H3.577c-0.077-0.016-0.157-0.016-0.235,0H1.734
		C1.408,23.847,1.156,23.596,1.156,23.27z"/>
</g>
</svg>
