<?xml version="1.0" encoding="utf-8"?>
<!-- Generator: Adobe Illustrator 18.1.1, SVG Export Plug-In . SVG Version: 6.00 Build 0)  -->
<svg version="1.1" id="Layer_1" xmlns="http://www.w3.org/2000/svg" xmlns:xlink="http://www.w3.org/1999/xlink" x="0px" y="0px"
	 viewBox="0 0 25.328 25" style="enable-background:new 0 0 25.328 25;" xml:space="preserve">
<g id="books.svg" sketch:type="MSPage">
	<path id="editor_books_library_collection_glyph" sketch:type="MSShapeGroup" style="fill:#FFFFFF;" d="M0,1.264v22.472
		c0,0.655,0.534,1.186,1.172,1.186h3.571c0.647,0,1.172-0.52,1.172-1.186V1.264c0-0.655-0.534-1.186-1.172-1.186H1.172
		C0.525,0.078,0,0.598,0,1.264z M7.098,1.264v22.472c0,0.655,0.534,1.186,1.172,1.186h3.571c0.647,0,1.172-0.52,1.172-1.186V1.264
		c0-0.655-0.534-1.186-1.172-1.186H8.271C7.623,0.078,7.098,0.598,7.098,1.264z M13.755,2.412l5.816,21.707
		c0.17,0.633,0.822,1.007,1.439,0.842l3.449-0.924c0.625-0.168,0.998-0.806,0.825-1.449L19.469,0.881
		c-0.17-0.633-0.822-1.007-1.439-0.842l-3.449,0.924C13.955,1.131,13.583,1.769,13.755,2.412z"/>
</g>
</svg>
