<?xml version="1.0" encoding="utf-8"?>
<!-- Generator: Adobe Illustrator 18.1.1, SVG Export Plug-In . SVG Version: 6.00 Build 0)  -->
<svg version="1.1" id="Layer_1" xmlns="http://www.w3.org/2000/svg" xmlns:xlink="http://www.w3.org/1999/xlink" x="0px" y="0px"
	 viewBox="0 0 20 24.505" style="enable-background:new 0 0 20 24.505;" xml:space="preserve">
<path id="bookmark-line.svg" style="fill:#FFFFFF;" d="M17.948,2C17.977,2,18,2.023,18,2.052v18.455l-6.395-5.761
	c-0.441-0.397-1.011-0.616-1.605-0.616c-0.594,0-1.164,0.219-1.605,0.616L2,20.506V2.052C2,2.023,2.023,2,2.052,2H17.948 M17.948,0
	H2.052C0.919,0,0,0.919,0,2.052v22.054c0,0.238,0.195,0.399,0.4,0.399c0.091,0,0.185-0.032,0.264-0.103l9.069-8.171
	c0.076-0.068,0.171-0.102,0.266-0.102s0.191,0.034,0.266,0.102l9.069,8.171c0.079,0.071,0.172,0.103,0.264,0.103
	c0.205,0,0.4-0.16,0.4-0.399V2.052C20,0.919,19.081,0,17.948,0L17.948,0z"/>
</svg>
