<?xml version="1.0" encoding="utf-8"?>
<!-- Generator: Adobe Illustrator 18.1.1, SVG Export Plug-In . SVG Version: 6.00 Build 0)  -->
<svg version="1.1" id="Layer_1" xmlns="http://www.w3.org/2000/svg" xmlns:xlink="http://www.w3.org/1999/xlink" x="0px" y="0px"
	 viewBox="0 0 25.628 25.3" style="enable-background:new 0 0 25.628 25.3;" xml:space="preserve">
<g id="books-line.svg" sketch:type="MSPage">
	<g id="editor_books_library_collection_outline_stroke">
		<path sketch:type="MSShapeGroup" style="fill:#FFFFFF;" d="M0.15,1.413v22.472c0,0.655,0.534,1.186,1.172,1.186h3.571
			c0.647,0,1.172-0.52,1.172-1.186V1.413c0-0.655-0.534-1.186-1.172-1.186H1.322C0.674,0.227,0.15,0.747,0.15,1.413z M4.882,1.413
			c-0.01,0-0.008,22.473-0.008,22.473c0,0.01-3.552,0.003-3.552,0.003c0.01,0,0.008-22.473,0.008-22.473
			C1.33,1.406,4.882,1.413,4.882,1.413z M7.248,1.413v22.472c0,0.655,0.534,1.186,1.172,1.186h3.571c0.647,0,1.172-0.52,1.172-1.186
			V1.413c0-0.655-0.534-1.186-1.172-1.186H8.42C7.773,0.227,7.248,0.747,7.248,1.413z M11.98,1.413
			c-0.01,0-0.008,22.473-0.008,22.473c0,0.01-3.552,0.003-3.552,0.003c0.01,0,0.008-22.473,0.008-22.473
			C8.428,1.406,11.98,1.413,11.98,1.413z M13.905,2.562l5.816,21.707c0.17,0.633,0.822,1.007,1.439,0.842l3.449-0.924
			c0.625-0.168,0.998-0.806,0.825-1.449L19.619,1.031c-0.17-0.633-0.822-1.007-1.439-0.842L14.73,1.113
			C14.105,1.28,13.733,1.918,13.905,2.562z M18.476,1.337c-0.01,0.003,5.809,21.709,5.809,21.709c0.003,0.009-3.43,0.922-3.43,0.922
			c0.01-0.003-5.809-21.709-5.809-21.709C15.043,2.249,18.476,1.337,18.476,1.337z"/>
		<path style="fill:#FFFFFF;" d="M20.865,25.3c-0.602-0.001-1.132-0.408-1.289-0.992L13.76,2.601
			c-0.093-0.349-0.048-0.71,0.128-1.017c0.175-0.306,0.46-0.524,0.803-0.615l3.449-0.925C18.25,0.015,18.362,0,18.475,0
			c0.602,0,1.132,0.408,1.289,0.992l5.816,21.706c0.194,0.724-0.215,1.44-0.931,1.633l-3.45,0.924
			C21.09,25.284,20.978,25.3,20.865,25.3z M18.475,0.3c-0.086,0-0.173,0.011-0.257,0.033L14.77,1.258
			c-0.265,0.071-0.485,0.24-0.621,0.476c-0.136,0.237-0.171,0.518-0.099,0.789l5.816,21.707c0.122,0.453,0.532,0.77,0.999,0.77
			c0.086,0,0.173-0.011,0.257-0.033l3.449-0.924c0.553-0.149,0.869-0.705,0.719-1.266L19.474,1.07
			C19.353,0.616,18.942,0.3,18.475,0.3z M11.991,25.222H8.42c-0.729,0-1.322-0.6-1.322-1.336V1.413c0-0.749,0.581-1.336,1.322-1.336
			h3.571c0.729,0,1.322,0.6,1.322,1.336v22.473C13.313,24.635,12.733,25.222,11.991,25.222z M8.42,0.378
			c-0.573,0-1.022,0.454-1.022,1.035v22.473c0,0.571,0.458,1.035,1.022,1.035h3.571c0.573,0,1.022-0.454,1.022-1.035V1.413
			c0-0.571-0.458-1.035-1.022-1.035H8.42z M4.893,25.222H1.322c-0.729,0-1.322-0.6-1.322-1.336V1.413
			c0-0.749,0.581-1.336,1.322-1.336h3.571c0.729,0,1.322,0.6,1.322,1.336v22.473C6.215,24.635,5.634,25.222,4.893,25.222z
			 M1.322,0.378C0.749,0.378,0.3,0.832,0.3,1.413v22.473c0,0.571,0.458,1.035,1.022,1.035h3.571c0.573,0,1.022-0.454,1.022-1.035
			V1.413c0-0.571-0.458-1.035-1.022-1.035H1.322z M20.518,24.212l0.175-0.271c-0.325-1.247-5.736-21.435-5.792-21.644
			c-0.039-0.156-0.039-0.156,3.537-1.105l0.375-0.101l-0.175,0.271c0.325,1.247,5.736,21.435,5.792,21.644
			c0.039,0.156,0.039,0.156-3.537,1.105L20.518,24.212z M15.229,2.362c4.533,16.911,5.52,20.593,5.715,21.427
			c1.138-0.303,2.696-0.719,3.158-0.847C19.569,6.033,18.582,2.35,18.387,1.516C17.249,1.818,15.691,2.234,15.229,2.362z
			 M10.636,24.041c-1.007,0-2.216-0.002-2.216-0.002l0-0.15l-0.15-0.008C8.28,23.609,8.278,1.638,8.278,1.416
			c0-0.155,0-0.155,1.486-0.155c1.007,0,2.216,0.002,2.216,0.002l0,0.15l0.15,0.008c-0.01,0.275-0.008,22.243-0.008,22.465
			C12.122,24.041,12.122,24.041,10.636,24.041z M8.565,23.739c0.351,0,1.273,0.002,2.07,0.002c0.69,0,1.026-0.001,1.187-0.003
			l0.005-21.359c0-0.396,0.001-0.651,0.008-0.816c-0.35,0-1.273-0.002-2.07-0.002c-0.69,0-1.026,0.001-1.187,0.003L8.574,22.923
			C8.573,23.319,8.573,23.574,8.565,23.739z M3.537,24.041c-1.007,0-2.216-0.002-2.216-0.002l0-0.15l-0.15-0.008
			C1.182,23.605,1.18,1.638,1.18,1.416c0-0.155,0-0.155,1.486-0.155c1.007,0,2.216,0.002,2.216,0.002l0,0.15l0.15,0.008
			c-0.01,0.275-0.008,22.243-0.008,22.465C5.023,24.041,5.023,24.041,3.537,24.041z M1.467,23.739c0.35,0,1.273,0.002,2.07,0.002
			c0.69,0,1.026-0.001,1.187-0.003L4.729,2.379c0-0.396,0.001-0.651,0.008-0.816c-0.35,0-1.273-0.002-2.07-0.002
			c-0.69,0-1.026,0.001-1.187,0.003L1.475,22.923C1.475,23.319,1.474,23.574,1.467,23.739z"/>
	</g>
</g>
</svg>
