<?xml version="1.0" encoding="utf-8"?>
<!-- Generator: Adobe Illustrator 18.1.1, SVG Export Plug-In . SVG Version: 6.00 Build 0)  -->
<svg version="1.1" id="Layer_1" xmlns="http://www.w3.org/2000/svg" xmlns:xlink="http://www.w3.org/1999/xlink" x="0px" y="0px"
	 viewBox="0 0 23.537 23.88" style="enable-background:new 0 0 23.537 23.88;" xml:space="preserve">
<g id="burger.svg">
	<path style="fill:#FFFFFF;" d="M21.803,23.88c0.951,0,1.734-0.781,1.734-1.73v-1.153c0-0.949-0.783-1.73-1.734-1.73H1.734
		C0.783,19.267,0,20.049,0,20.997l0,1.153c0,0.949,0.783,1.73,1.734,1.73H21.803z"/>
	<path style="fill:#FFFFFF;" d="M21.803,14.247c0.951,0,1.734-0.781,1.734-1.73v-1.153c0-0.949-0.783-1.73-1.734-1.73H1.734
		C0.783,9.634,0,10.415,0,11.364l0,1.153c0,0.949,0.783,1.73,1.734,1.73H21.803z"/>
	<path style="fill:#FFFFFF;" d="M21.803,4.613c0.951,0,1.734-0.781,1.734-1.73V1.73c0-0.949-0.783-1.73-1.734-1.73L1.734,0
		C0.783,0,0,0.781,0,1.73l0,1.153c0,0.949,0.783,1.73,1.734,1.73H21.803z"/>
</g>
</svg>
