<?xml version="1.0" encoding="utf-8"?>
<!-- Generator: Adobe Illustrator 18.1.1, SVG Export Plug-In . SVG Version: 6.00 Build 0)  -->
<svg version="1.1" id="Layer_1" xmlns="http://www.w3.org/2000/svg" xmlns:xlink="http://www.w3.org/1999/xlink" x="0px" y="0px"
	 viewBox="0 0 23.537 23.88" style="enable-background:new 0 0 23.537 23.88;" xml:space="preserve">
<g id="burger-line.svg">
	<g>
		<path style="fill:#FFFFFF;" d="M21.803,23.88c0.951,0,1.734-0.781,1.734-1.73v-1.153c0-0.949-0.783-1.73-1.734-1.73H1.734
			C0.783,19.267,0,20.049,0,20.997l0,1.153c0,0.949,0.783,1.73,1.734,1.73H21.803z M1.156,22.15v-1.153
			c0-0.326,0.251-0.577,0.578-0.577h20.068c0.327,0,0.578,0.251,0.578,0.577v1.153c0,0.326-0.251,0.577-0.578,0.577H3.577
			c-0.077-0.016-0.157-0.016-0.235,0H1.734C1.408,22.727,1.156,22.476,1.156,22.15z"/>
	</g>
	<g>
		<path style="fill:#FFFFFF;" d="M21.803,14.247c0.951,0,1.734-0.781,1.734-1.73v-1.153c0-0.949-0.783-1.73-1.734-1.73H1.734
			C0.783,9.634,0,10.415,0,11.364l0,1.153c0,0.949,0.783,1.73,1.734,1.73H21.803z M1.156,12.517v-1.153
			c0-0.326,0.251-0.577,0.578-0.577h20.068c0.327,0,0.578,0.251,0.578,0.577v1.153c0,0.326-0.251,0.577-0.578,0.577H3.577
			c-0.077-0.016-0.157-0.016-0.235,0H1.734C1.408,13.094,1.156,12.843,1.156,12.517z"/>
	</g>
	<g>
		<path style="fill:#FFFFFF;" d="M21.803,4.613c0.951,0,1.734-0.781,1.734-1.73V1.73c0-0.949-0.783-1.73-1.734-1.73L1.734,0
			C0.783,0,0,0.781,0,1.73l0,1.153c0,0.949,0.783,1.73,1.734,1.73H21.803z M1.156,2.883V1.73c0-0.326,0.251-0.577,0.578-0.577
			h20.068c0.327,0,0.578,0.251,0.578,0.577v1.153c0,0.326-0.251,0.577-0.578,0.577H3.577c-0.077-0.016-0.157-0.016-0.235,0H1.734
			C1.408,3.46,1.156,3.209,1.156,2.883z"/>
	</g>
</g>
</svg>
