<?xml version="1.0" encoding="utf-8"?>
<!-- Generator: Adobe Illustrator 18.1.1, SVG Export Plug-In . SVG Version: 6.00 Build 0)  -->
<svg version="1.1" id="Layer_1" xmlns="http://www.w3.org/2000/svg" xmlns:xlink="http://www.w3.org/1999/xlink" x="0px" y="0px"
	 viewBox="0 0 25 25" style="enable-background:new 0 0 25 25;" xml:space="preserve">
<path id="control-vertical-line.svg" style="fill:#FFFFFF;" d="M3.21,0.002c-0.023,0.004-0.046,0.01-0.068,0.017
	C2.889,0.076,2.711,0.303,2.717,0.562v3.8H1.63C0.736,4.362,0,5.098,0,5.991v1.086C0,7.97,0.736,8.706,1.63,8.706h3.261
	c0.894,0,1.63-0.736,1.63-1.629V5.991c0-0.893-0.736-1.629-1.63-1.629H3.804v-3.8C3.815,0.263,3.581,0.011,3.281,0
	C3.257,0,3.233,0,3.21,0.002z M12.449,0.002c-0.023,0.004-0.046,0.01-0.068,0.017c-0.253,0.057-0.431,0.284-0.425,0.543v15.201
	H10.87c-0.894,0-1.63,0.736-1.63,1.629v1.086c0,0.893,0.736,1.629,1.63,1.629h3.261c0.894,0,1.63-0.736,1.63-1.629v-1.086
	c0-0.893-0.736-1.629-1.63-1.629h-1.087V0.562C13.054,0.263,12.82,0.011,12.52,0C12.496,0,12.473,0,12.449,0.002z M21.688,0.002
	c-0.023,0.004-0.046,0.01-0.068,0.017c-0.253,0.057-0.431,0.284-0.425,0.543v5.429h-1.087c-0.894,0-1.63,0.736-1.63,1.629v1.086
	c0,0.893,0.736,1.629,1.63,1.629h3.261c0.894,0,1.63-0.736,1.63-1.629V7.62c0-0.893-0.736-1.629-1.63-1.629h-1.087V0.562
	c0.011-0.3-0.224-0.551-0.524-0.562C21.735,0,21.712,0,21.688,0.002z M1.63,5.448h1.529H3.38h1.512c0.307,0,0.543,0.236,0.543,0.543
	v1.086c0,0.307-0.236,0.543-0.543,0.543H1.63c-0.307,0-0.543-0.236-0.543-0.543V5.991C1.087,5.684,1.323,5.448,1.63,5.448z
	 M20.109,7.077h1.529h0.221h1.512c0.307,0,0.543,0.236,0.543,0.543v1.086c0,0.307-0.236,0.543-0.543,0.543h-3.261
	c-0.307,0-0.543-0.236-0.543-0.543V7.62C19.565,7.313,19.802,7.077,20.109,7.077z M2.717,9.248v3.698
	c-0.003,0.034-0.003,0.068,0,0.102v7.6v3.8c-0.004,0.3,0.236,0.546,0.536,0.551c0.3,0.004,0.547-0.235,0.551-0.535
	c0-0.005,0-0.01,0-0.015V13.049c0.003-0.034,0.003-0.068,0-0.102V9.248H2.717z M21.196,10.877v3.698
	c-0.003,0.034-0.003,0.068,0,0.102v7.6v2.172c-0.004,0.3,0.236,0.546,0.536,0.551c0.3,0.004,0.547-0.235,0.551-0.535
	c0-0.005,0-0.01,0-0.015v-9.772c0.003-0.034,0.003-0.068,0-0.102v-3.698H21.196z M10.87,16.849h3.261
	c0.307,0,0.543,0.236,0.543,0.543v1.086c0,0.307-0.236,0.543-0.543,0.543H10.87c-0.307,0-0.543-0.236-0.543-0.543v-1.086
	C10.326,17.085,10.562,16.849,10.87,16.849z M11.957,20.649v0.984c-0.003,0.034-0.003,0.068,0,0.102v1.086v1.629
	c-0.004,0.3,0.236,0.546,0.536,0.551c0.3,0.004,0.547-0.235,0.551-0.535c0-0.005,0-0.01,0-0.015v-2.714
	c0.003-0.034,0.003-0.068,0-0.102v-0.984H11.957z"/>
</svg>
