<?xml version="1.0" encoding="utf-8"?>
<!-- Generator: Adobe Illustrator 18.1.1, SVG Export Plug-In . SVG Version: 6.00 Build 0)  -->
<svg version="1.1" id="Layer_1" xmlns="http://www.w3.org/2000/svg" xmlns:xlink="http://www.w3.org/1999/xlink" x="0px" y="0px"
	 viewBox="0 0 25 25.027" style="enable-background:new 0 0 25 25.027;" xml:space="preserve">
<path id="control-vertical.svg" style="fill:#FFFFFF;" d="M3.21,0.002c-0.023,0.004-0.046,0.01-0.068,0.017
	C2.889,0.076,2.711,0.304,2.717,0.563v3.804H1.63C0.736,4.367,0,5.104,0,5.998v1.087c0,0.894,0.736,1.63,1.63,1.63h3.261
	c0.894,0,1.63-0.736,1.63-1.63V5.998c0-0.894-0.736-1.63-1.63-1.63H3.804V0.563C3.815,0.263,3.581,0.011,3.281,0
	C3.257,0,3.233,0,3.21,0.002z M12.449,0.002c-0.023,0.004-0.046,0.01-0.068,0.017c-0.253,0.057-0.431,0.284-0.425,0.543V15.78H10.87
	c-0.894,0-1.63,0.736-1.63,1.63v1.087c0,0.894,0.736,1.63,1.63,1.63h3.261c0.894,0,1.63-0.736,1.63-1.63v-1.087
	c0-0.894-0.736-1.63-1.63-1.63h-1.087V0.563C13.054,0.263,12.82,0.011,12.52,0C12.496,0,12.473,0,12.449,0.002z M21.688,0.002
	c-0.023,0.004-0.046,0.01-0.068,0.017c-0.253,0.057-0.431,0.284-0.425,0.543v5.435h-1.087c-0.894,0-1.63,0.736-1.63,1.63v1.087
	c0,0.894,0.736,1.63,1.63,1.63h3.261c0.894,0,1.63-0.736,1.63-1.63V7.628c0-0.894-0.736-1.63-1.63-1.63h-1.087V0.563
	c0.011-0.3-0.224-0.552-0.524-0.563C21.735,0,21.712,0,21.688,0.002z M2.717,9.259v3.702c-0.003,0.034-0.003,0.068,0,0.102v7.609
	v3.804c-0.004,0.3,0.236,0.547,0.536,0.551c0.3,0.004,0.547-0.236,0.551-0.536c0-0.005,0-0.01,0-0.015V13.063
	c0.003-0.034,0.003-0.068,0-0.102V9.259H2.717z M21.196,10.889v3.702c-0.003,0.034-0.003,0.068,0,0.102v7.609v2.174
	c-0.004,0.3,0.236,0.547,0.536,0.551c0.3,0.004,0.547-0.236,0.551-0.536c0-0.005,0-0.01,0-0.015v-9.783
	c0.003-0.034,0.003-0.068,0-0.102v-3.702H21.196z M11.957,20.672v0.985c-0.003,0.034-0.003,0.068,0,0.102v1.087v1.63
	c-0.004,0.3,0.236,0.547,0.536,0.551c0.3,0.004,0.547-0.236,0.551-0.536c0-0.005,0-0.01,0-0.015v-2.717
	c0.003-0.034,0.003-0.068,0-0.102v-0.985H11.957z"/>
</svg>
