<?xml version="1.0" encoding="utf-8"?>
<!-- Generator: Adobe Illustrator 18.1.1, SVG Export Plug-In . SVG Version: 6.00 Build 0)  -->
<svg version="1.1" id="Layer_1" xmlns="http://www.w3.org/2000/svg" xmlns:xlink="http://www.w3.org/1999/xlink" x="0px" y="0px"
	 viewBox="0 0 25 25" style="enable-background:new 0 0 25 25;" xml:space="preserve">
<path id="control-horizontal.svg" style="fill:#FFFFFF;" d="M7.643,0C6.752,0,6.017,0.736,6.017,1.63v1.087H0.595
	c-0.017-0.001-0.034-0.001-0.051,0C0.245,2.731,0.014,2.986,0.028,3.286s0.268,0.532,0.568,0.518h5.422v1.087
	c0,0.894,0.735,1.63,1.626,1.63h1.084c0.892,0,1.626-0.736,1.626-1.63V1.63C10.354,0.736,9.62,0,8.728,0H7.643z M10.896,2.717v1.087
	h11.385h2.169C24.75,3.809,24.996,3.569,25,3.269c0.004-0.3-0.235-0.547-0.534-0.551c-0.005,0-0.01,0-0.015,0h-2.169H10.896z
	 M17.402,9.239c-0.892,0-1.626,0.736-1.626,1.63v1.087H0.595c-0.017-0.001-0.034-0.001-0.051,0
	c-0.299,0.014-0.531,0.269-0.517,0.569s0.268,0.532,0.568,0.518h15.18v1.087c0,0.894,0.735,1.63,1.626,1.63h1.084
	c0.892,0,1.626-0.736,1.626-1.63V10.87c0-0.894-0.735-1.63-1.626-1.63H17.402z M20.655,11.957v1.087h2.169h1.626
	c0.299,0.004,0.546-0.236,0.55-0.536c0.004-0.3-0.235-0.547-0.534-0.551c-0.005,0-0.01,0-0.015,0h-1.626H20.655z M6.017,18.478
	c-0.892,0-1.626,0.736-1.626,1.63v1.087H0.595c-0.017-0.001-0.034-0.001-0.051,0c-0.017-0.001-0.034-0.001-0.051,0
	c-0.299,0.028-0.519,0.294-0.491,0.594c0.028,0.3,0.294,0.521,0.593,0.493H4.39v1.087c0,0.894,0.735,1.63,1.626,1.63h1.084
	c0.892,0,1.626-0.736,1.626-1.63v-3.261c0-0.894-0.735-1.63-1.626-1.63H6.017z M9.27,21.196v1.087h11.385h3.795
	c0.299,0.004,0.546-0.236,0.55-0.536c0.004-0.3-0.235-0.547-0.534-0.551c-0.005,0-0.01,0-0.015,0h-3.795H9.27z"/>
</svg>
