<?xml version="1.0" encoding="utf-8"?>
<!-- Generator: Adobe Illustrator 18.1.1, SVG Export Plug-In . SVG Version: 6.00 Build 0)  -->
<svg version="1.1" id="Layer_1" xmlns="http://www.w3.org/2000/svg" xmlns:xlink="http://www.w3.org/1999/xlink" x="0px" y="0px"
	 viewBox="0 0 24.856 24.855" style="enable-background:new 0 0 24.856 24.855;" xml:space="preserve">
<g id="edit-line.svg">
	<path style="fill:#FFFFFF;" d="M18.992,1c0.53,0,1.029,0.206,1.403,0.581l2.879,2.879c0.375,0.375,0.581,0.873,0.581,1.403
		c0,0.53-0.206,1.029-0.581,1.403l-0.637,0.637c-0.026,0.026-0.058,0.039-0.095,0.039s-0.069-0.013-0.095-0.039l-5.497-5.497
		c-0.052-0.052-0.052-0.137,0-0.189l0.637-0.637C17.963,1.206,18.461,1,18.992,1 M18.992,0c-0.764,0-1.528,0.291-2.111,0.874
		l-0.637,0.637c-0.443,0.443-0.443,1.161,0,1.603l5.497,5.497c0.221,0.221,0.512,0.332,0.802,0.332c0.29,0,0.58-0.111,0.802-0.332
		l0.637-0.637c1.166-1.166,1.166-3.055,0-4.221l-2.879-2.879C20.519,0.291,19.755,0,18.992,0L18.992,0z"/>
	<path style="fill:#FFFFFF;" d="M19.483,10.442c0.048,0,0.119,0.013,0.181,0.075c0.1,0.1,0.1,0.262,0,0.361L9.606,20.935
		c-0.062,0.062-0.132,0.075-0.181,0.075c-0.048,0-0.119-0.013-0.181-0.075c-0.062-0.062-0.075-0.132-0.075-0.181
		c0-0.048,0.013-0.119,0.075-0.181l10.057-10.057C19.364,10.455,19.435,10.442,19.483,10.442 M19.483,9.442
		c-0.321,0-0.643,0.123-0.888,0.368L8.538,19.867c-0.49,0.49-0.49,1.285,0,1.775c0.245,0.245,0.566,0.368,0.888,0.368
		s0.643-0.123,0.888-0.368l10.057-10.057c0.49-0.49,0.49-1.285,0-1.775h0C20.125,9.565,19.804,9.442,19.483,9.442L19.483,9.442z"/>
	<path style="fill:#FFFFFF;" d="M16.821,7.78c0.048,0,0.119,0.013,0.181,0.075c0.1,0.1,0.1,0.262,0,0.361L6.944,18.273
		c-0.062,0.062-0.132,0.075-0.181,0.075s-0.119-0.013-0.181-0.075c-0.062-0.062-0.075-0.132-0.075-0.181
		c0-0.048,0.013-0.119,0.075-0.181L16.64,7.855C16.702,7.793,16.772,7.78,16.821,7.78 M16.821,6.78
		c-0.321,0-0.643,0.123-0.888,0.368L5.876,17.205c-0.49,0.49-0.49,1.285,0,1.775c0.245,0.245,0.566,0.368,0.888,0.368
		s0.643-0.123,0.888-0.368L17.708,8.923c0.49-0.49,0.49-1.285,0-1.775C17.463,6.902,17.142,6.78,16.821,6.78L16.821,6.78z"/>
	<path style="fill:#FFFFFF;" d="M14.158,5.118c0.048,0,0.119,0.013,0.181,0.075c0.1,0.1,0.1,0.262,0,0.361L4.281,15.611
		c-0.062,0.062-0.132,0.075-0.181,0.075c-0.048,0-0.119-0.013-0.181-0.075c-0.062-0.062-0.075-0.132-0.075-0.181
		c0-0.048,0.013-0.119,0.075-0.181L13.977,5.192C14.039,5.131,14.11,5.118,14.158,5.118 M14.158,4.118
		c-0.321,0-0.643,0.123-0.888,0.368L3.213,14.542c-0.49,0.49-0.49,1.285,0,1.775c0.245,0.245,0.566,0.368,0.888,0.368
		c0.321,0,0.643-0.123,0.888-0.368L15.046,6.261c0.49-0.49,0.49-1.285,0-1.775C14.801,4.24,14.479,4.118,14.158,4.118L14.158,4.118z
		"/>
	<path style="fill:#FFFFFF;" d="M1.746,18.838l4.272,4.271l-4.983,0.714L1.746,18.838 M1.508,17.453
		c-0.307,0-0.605,0.215-0.655,0.566l-0.844,5.914c-0.07,0.494,0.316,0.922,0.797,0.922c0.038,0,0.077-0.003,0.117-0.008l5.915-0.846
		c0.537-0.077,0.755-0.733,0.372-1.116l-5.239-5.238C1.836,17.514,1.671,17.453,1.508,17.453L1.508,17.453z"/>
</g>
</svg>
