<?xml version="1.0" encoding="utf-8"?>
<!-- Generator: Adobe Illustrator 18.1.1, SVG Export Plug-In . SVG Version: 6.00 Build 0)  -->
<svg version="1.1" id="Layer_1" xmlns="http://www.w3.org/2000/svg" xmlns:xlink="http://www.w3.org/1999/xlink" x="0px" y="0px"
	 viewBox="0 0 25 27.532" style="enable-background:new 0 0 25 27.532;" xml:space="preserve">
<path id="floppy-line.svg" style="fill:#FFFFFF;" d="M23.929,1C23.968,1,24,1.032,24,1.071v25.39c0,0.039-0.032,0.071-0.071,0.071
	H1.071C1.032,26.532,1,26.5,1,26.461V1.071C1,1.032,1.032,1,1.071,1H23.929 M5.856,10.888h13.288c1.142,0,2.071-0.929,2.071-2.071
	V4.602c0-1.142-0.929-2.071-2.071-2.071H5.856c-1.142,0-2.071,0.929-2.071,2.071v4.216C3.785,9.96,4.714,10.888,5.856,10.888
	 M5.107,25.564h14.783c1.142,0,2.071-0.929,2.071-2.071v-7.68c0-1.142-0.929-2.071-2.071-2.071H5.107
	c-1.142,0-2.071,0.929-2.071,2.071v7.68C3.036,24.635,3.965,25.564,5.107,25.564 M16.928,5.601c0.039,0,0.07,0.032,0.07,0.071v2.144
	c0,0.039-0.032,0.071-0.071,0.071c-0.039,0-0.071-0.032-0.071-0.071V5.672c0-0.039,0.032-0.071,0.07-0.071H16.928 M23.929,0H1.071
	C0.479,0,0,0.479,0,1.071v25.39c0,0.591,0.479,1.071,1.071,1.071h22.859c0.591,0,1.071-0.479,1.071-1.071V1.071
	C25,0.479,24.521,0,23.929,0L23.929,0z M5.856,9.888c-0.591,0-1.071-0.479-1.071-1.071V4.602c0-0.591,0.479-1.071,1.071-1.071
	h13.288c0.591,0,1.071,0.479,1.071,1.071v4.216c0,0.591-0.479,1.071-1.071,1.071H5.856L5.856,9.888z M5.107,24.564
	c-0.591,0-1.071-0.479-1.071-1.071v-7.68c0-0.591,0.479-1.071,1.071-1.071h14.783c0.591,0,1.071,0.479,1.071,1.071v7.68
	c0,0.591-0.479,1.071-1.071,1.071H5.107L5.107,24.564z M16.928,4.601h-0.001c-0.591,0.001-1.07,0.48-1.07,1.071v2.144
	c0,0.591,0.479,1.071,1.071,1.071c0.591,0,1.071-0.479,1.071-1.071V5.672C17.999,5.08,17.519,4.601,16.928,4.601L16.928,4.601z
	 M18.98,16.104H6.016v0.852h12.967L18.98,16.104L18.98,16.104z M18.98,19.098H6.016v0.861h12.967L18.98,19.098L18.98,19.098z
	 M18.98,21.995H6.016v0.854h12.967L18.98,21.995L18.98,21.995z"/>
</svg>
