<?xml version="1.0" encoding="utf-8"?>
<!-- Generator: Adobe Illustrator 18.1.1, SVG Export Plug-In . SVG Version: 6.00 Build 0)  -->
<svg version="1.1" id="Layer_1" xmlns="http://www.w3.org/2000/svg" xmlns:xlink="http://www.w3.org/1999/xlink" x="0px" y="0px"
	 viewBox="0 0 25 27.532" style="enable-background:new 0 0 25 27.532;" xml:space="preserve">
<path id="floppy.svg" style="fill:#FFFFFF;" d="M25,26.461V1.071C25,0.479,24.521,0,23.929,0H1.071C0.479,0,0,0.479,0,1.071v25.39
	c0,0.591,0.479,1.071,1.071,1.071h22.859C24.521,27.532,25,27.052,25,26.461z M4.785,8.818V4.602c0-0.591,0.479-1.071,1.071-1.071
	h13.288c0.591,0,1.071,0.479,1.071,1.071v4.216c0,0.591-0.479,1.071-1.071,1.071H5.856C5.265,9.888,4.785,9.409,4.785,8.818z
	 M20.96,15.813v7.68c0,0.591-0.479,1.071-1.071,1.071H5.107c-0.591,0-1.071-0.479-1.071-1.071v-7.68
	c0-0.591,0.479-1.071,1.071-1.071h14.783C20.481,14.743,20.96,15.222,20.96,15.813z M15.857,7.816V5.672
	c0-0.591,0.479-1.07,1.07-1.071h0c0.592-0.001,1.072,0.479,1.072,1.071v2.144c0,0.591-0.479,1.071-1.071,1.071h0
	C16.337,8.886,15.857,8.407,15.857,7.816z M6.016,16.104H18.98l0.002,0.852H6.016V16.104z M6.016,19.098H18.98l0.002,0.861H6.016
	V19.098z M6.016,21.995H18.98l0.002,0.854H6.016V21.995z"/>
</svg>
