<?xml version="1.0" encoding="utf-8"?>
<!-- Generator: Adobe Illustrator 18.1.1, SVG Export Plug-In . SVG Version: 6.00 Build 0)  -->
<svg version="1.1" id="Layer_1" xmlns="http://www.w3.org/2000/svg" xmlns:xlink="http://www.w3.org/1999/xlink" x="0px" y="0px"
	 viewBox="0 0 23.793 25" style="enable-background:new 0 0 23.793 25;" xml:space="preserve">
<g id="font-plus.svg">
	<path style="fill:#FFFFFF;" d="M18.323,18.18v-2.786c0-0.933,0.251-1.683-0.675-1.683c-0.932,0-0.675,0.753-0.675,1.683v2.786
		h-2.629c-1.014,0-1.84-0.251-1.84,0.675c0,0.932,0.824,0.675,1.84,0.675h2.629v3.787c0,0.933-0.251,1.683,0.675,1.683
		c0.932,0,0.675-0.753,0.675-1.683V19.53h2.629c1.014,0,1.84,0.251,1.84-0.675c0-0.932-0.824-0.675-1.84-0.675H18.323L18.323,18.18z
		"/>
	<path style="fill:#FFFFFF;" d="M21,22v1.317c0,0.624-0.57,1.203-0.899,1.683h2.284c0.97,0,1.648-0.959,1.326-1.874l-0.539-1.445
		C22.797,21.832,22.385,22,21.953,22H21z"/>
	<path style="fill:#FFFFFF;" d="M14.116,0h-3.59c-1.432,0-2.71,0.901-3.191,2.25l-1.1,3.085l-6.157,17.8
		C-0.238,24.048,0.441,25,1.407,25h0.928c0.601,0,1.135-0.382,1.33-0.95L5.741,18h4.611c0.391-1.222,1.576-2,2.992-2H15v-1.606
		c0-1.645,1.171-2.982,2.812-2.982c0.542,0,0.993,0.157,1.431,0.411L14.116,0z M6.641,14.191l3.025-8.404l2.982,8.406L6.641,14.191z
		"/>
</g>
</svg>
