<?xml version="1.0" encoding="utf-8"?>
<!-- Generator: Adobe Illustrator 18.1.1, SVG Export Plug-In . SVG Version: 6.00 Build 0)  -->
<svg version="1.1" id="Layer_1" xmlns="http://www.w3.org/2000/svg" xmlns:xlink="http://www.w3.org/1999/xlink" x="0px" y="0px"
	 viewBox="0 0 20.123 24.39" style="enable-background:new 0 0 20.123 24.39;" xml:space="preserve">
<g id="locked-line.svg" style="fill: #FFFFFF;">
	<defs>
		<path id="SVGID_1_" d="M2.439,21.951h15.244v-9.146H2.439V21.951L2.439,21.951z M0,11.586c0-0.674,0.549-1.22,1.213-1.22h17.696
			c0.67,0,1.213,0.55,1.213,1.22V23.17c0,0.674-0.549,1.22-1.213,1.22H1.213C0.543,24.39,0,23.84,0,23.17V11.586L0,11.586L0,11.586z
			 M17.073,10.366h-2.439V6.911c0-2.462-2.04-4.472-4.573-4.472c-2.534,0-4.573,2.01-4.573,4.472v3.455H3.049H17.073L17.073,10.366z
			 M3.049,6.911C3.049,3.094,6.188,0,10.061,0s7.012,3.094,7.012,6.911v4.062H3.049V6.911L3.049,6.911z"/>
	</defs>
	<use xlink:href="#SVGID_1_"  style="overflow:visible;fill:#FFFFFF;"/>
	<clipPath id="SVGID_2_">
		<use xlink:href="#SVGID_1_"  style="overflow:visible;"/>
	</clipPath>
</g>
</svg>
