<?xml version="1.0" encoding="utf-8"?>
<!-- Generator: Adobe Illustrator 18.1.1, SVG Export Plug-In . SVG Version: 6.00 Build 0)  -->
<svg version="1.1" id="Layer_1" xmlns="http://www.w3.org/2000/svg" xmlns:xlink="http://www.w3.org/1999/xlink" x="0px" y="0px"
	 viewBox="0 0 24.878 24.934" style="enable-background:new 0 0 24.878 24.934;" xml:space="preserve">
<g id="mode-toolbar.svg">
	<path style="fill:#FFFFFF;" d="M19,2.574C19,1.152,17.848,0,16.426,0H2.574C1.152,0,0,1.152,0,2.574v13.852
		C0,17.848,1.152,19,2.574,19h13.852C17.848,19,19,17.848,19,16.426V2.574z M14.927,8.867l-8.118,8.062l2.854-5.433
		c0.088-0.169-0.043-0.37-0.234-0.356l-5.167,0.376c-0.22,0.016-0.347-0.246-0.197-0.408l7.467-8.088L8.785,8.641
		c-0.083,0.171,0.053,0.368,0.242,0.35l5.706-0.539C14.96,8.43,15.089,8.706,14.927,8.867z"/>
	<path style="fill:#FFFFFF;" d="M21.111,5.022v12.916c0,1.776-1.453,3.229-3.229,3.229H4.966v1.076c0,1.507,1.184,2.691,2.691,2.691
		h14.53c1.507,0,2.691-1.184,2.691-2.691V7.713c0-1.507-1.184-2.691-2.691-2.691H21.111z"/>
</g>
</svg>
