<?xml version="1.0" encoding="utf-8"?>
<!-- Generator: Adobe Illustrator 18.1.1, SVG Export Plug-In . SVG Version: 6.00 Build 0)  -->
<svg version="1.1" id="Layer_1" xmlns="http://www.w3.org/2000/svg" xmlns:xlink="http://www.w3.org/1999/xlink" x="0px" y="0px"
	 viewBox="0 0 24.878 24.951" style="enable-background:new 0 0 24.878 24.951;" xml:space="preserve">
<g id="mode-folder.svg">
	<path style="fill:#FFFFFF;" d="M19,2.574C19,1.152,17.848,0,16.426,0H2.574C1.152,0,0,1.152,0,2.574v13.852
		C0,17.848,1.152,19,2.574,19h13.852C17.848,19,19,17.848,19,16.426V2.574z M16,13.722C16,14.098,15.105,15,14.729,15H3.951
		C3.575,15,3,14.098,3,13.722V5.215C3,4.84,3.575,4,3.951,4h2.958c0.239,0,0.46,0.393,0.583,0.598l0.7,1.116
		C8.317,5.923,8.544,6,8.788,6h5.942C15.105,6,16,6.675,16,7.05V13.722z"/>
	<path style="fill:#FFFFFF;" d="M21.111,5.039v12.916c0,1.776-1.453,3.229-3.229,3.229H4.966v1.076c0,1.507,1.184,2.691,2.691,2.691
		h14.53c1.507,0,2.691-1.184,2.691-2.691V7.73c0-1.507-1.184-2.691-2.691-2.691H21.111z"/>
</g>
</svg>
