<?xml version="1.0" encoding="utf-8"?>
<!-- Generator: Adobe Illustrator 18.1.1, SVG Export Plug-In . SVG Version: 6.00 Build 0)  -->
<svg version="1.1" id="Layer_1" xmlns="http://www.w3.org/2000/svg" xmlns:xlink="http://www.w3.org/1999/xlink" x="0px" y="0px"
	 viewBox="0 0 25 14.031" style="enable-background:new 0 0 25 14.031;" xml:space="preserve">
<g id="redo.svg">
	<g>
		<g>
			<path style="fill:#FFFFFF;" d="M0.432,14.023C0.179,13.97,0,13.75,0,13.496C0,4.735,10.4,2.869,12.816,2.554V0.536
				c0-0.198,0.109-0.379,0.284-0.475c0.178-0.092,0.388-0.079,0.551,0.029l11.115,5.48C24.912,5.669,25,5.833,25,6.016
				c0,0.178-0.088,0.343-0.234,0.442l-11.109,5.479c-0.165,0.109-0.378,0.121-0.552,0.028c-0.176-0.094-0.285-0.277-0.285-0.476
				V9.166C11.072,9.177,9.625,9.254,8.42,9.399c-5.78,0.685-7.325,4.155-7.388,4.304l0,0c-0.086,0.199-0.281,0.327-0.495,0.327
				C0.501,14.032,0.465,14.03,0.432,14.023z"/>
		</g>
	</g>
</g>
</svg>
