<?xml version="1.0" encoding="utf-8"?>
<!-- Generator: Adobe Illustrator 18.1.1, SVG Export Plug-In . SVG Version: 6.00 Build 0)  -->
<svg version="1.1" id="Layer_1" xmlns="http://www.w3.org/2000/svg" xmlns:xlink="http://www.w3.org/1999/xlink" x="0px" y="0px"
	 viewBox="0 0 25 24.682" style="enable-background:new 0 0 25 24.682;" xml:space="preserve">
<g id="relink.svg">
	<g>
		<g>
			<path style="fill:#FFFFFF;" d="M4.024,21.378c0.386,0.382,1.052,0.382,1.439,0l4.467-4.468c0.191-0.192,0.298-0.447,0.298-0.72
				c0-0.271-0.106-0.528-0.297-0.72c-0.193-0.191-0.448-0.298-0.72-0.298c-0.271,0-0.526,0.106-0.72,0.298l-4.468,4.467
				C3.629,20.334,3.629,20.979,4.024,21.378z"/>
			<path style="fill:#FFFFFF;" d="M19.547,21.378c0.404,0.405,1.13,0.374,1.501-0.068c0.335-0.4,0.299-1.013-0.084-1.396
				l-4.445-4.445c-0.193-0.191-0.448-0.297-0.72-0.297c-0.256,0-0.5,0.095-0.688,0.266c-0.2,0.182-0.313,0.438-0.319,0.716
				c-0.006,0.291,0.108,0.575,0.313,0.781L19.547,21.378z"/>
		</g>
		<g>
			<path style="fill:#FFFFFF;" d="M12.574,14.767c0.441,0.039,0.765,0.438,0.765,0.88v8.151c0,0.442-0.324,0.841-0.765,0.88
				c-0.499,0.044-0.916-0.347-0.916-0.838v-8.237C11.657,15.114,12.076,14.723,12.574,14.767z"/>
		</g>
	</g>
	<g>
		<g>
			<path style="fill:#FFFFFF;" d="M20.439,3.473c-0.361-0.357-0.985-0.357-1.347,0l-4.183,4.182c-0.179,0.18-0.278,0.42-0.278,0.674
				c0,0.254,0.099,0.494,0.278,0.674c0.181,0.179,0.42,0.279,0.674,0.279c0.254,0,0.493-0.1,0.674-0.279l4.183-4.182
				C20.809,4.451,20.809,3.846,20.439,3.473z"/>
			<path style="fill:#FFFFFF;" d="M5.909,3.473C5.53,3.094,4.851,3.123,4.504,3.536C4.19,3.911,4.224,4.484,4.582,4.843l4.161,4.16
				c0.179,0.179,0.419,0.279,0.673,0.279c0.24,0,0.467-0.089,0.644-0.25c0.186-0.171,0.292-0.409,0.299-0.67
				c0.006-0.273-0.1-0.539-0.293-0.731L5.909,3.473z"/>
		</g>
		<g>
			<path style="fill:#FFFFFF;" d="M12.436,9.281c-0.414-0.036-0.716-0.41-0.716-0.824v-7.63c0-0.415,0.302-0.787,0.716-0.824
				c0.466-0.041,0.857,0.326,0.857,0.784v7.71C13.294,8.954,12.902,9.321,12.436,9.281z"/>
		</g>
	</g>
	<g>
		<g>
			<path style="fill:#FFFFFF;" d="M7.691,15.964c0.004-0.004,0-0.01-0.005-0.009c-0.291,0.046-0.56,0.055-0.764,0.055
				c-2.439,0-4.422-1.73-4.422-3.689s1.984-3.894,4.423-3.894c0.219,0,0.51,0.001,0.825,0.046c0.005,0.001,0.009-0.005,0.005-0.009
				L5.32,6.036C5.319,6.034,5.316,6.033,5.315,6.034C2.267,6.697,0,9.191,0,12.048c0,2.879,2.3,5.54,5.38,6.223
				c0.001,0,0.004,0,0.005-0.001L7.691,15.964z"/>
		</g>
		<g>
			<path style="fill:#FFFFFF;" d="M19.674,6.042l-2.372,2.373c-0.004,0.004,0,0.01,0.005,0.009c0.294-0.049,0.566-0.057,0.772-0.057
				c2.438,0,4.421,1.727,4.421,3.685c0,1.959-1.984,3.893-4.422,3.893c-0.219,0-0.51-0.001-0.825-0.048
				c-0.005-0.001-0.009,0.005-0.005,0.009l2.425,2.425c0.001,0.001,0.004,0.002,0.005,0.001C22.729,17.641,25,15.046,25,12.186
				s-2.27-5.456-5.321-6.145C19.676,6.039,19.675,6.041,19.674,6.042z"/>
		</g>
	</g>
</g>
</svg>
