<?xml version="1.0" encoding="utf-8"?>
<!-- Generator: Adobe Illustrator 18.1.1, SVG Export Plug-In . SVG Version: 6.00 Build 0)  -->
<svg version="1.1" id="Layer_1" xmlns="http://www.w3.org/2000/svg" xmlns:xlink="http://www.w3.org/1999/xlink" x="0px" y="0px"
	 viewBox="0 0 24.997 25.003" style="enable-background:new 0 0 24.997 25.003;" xml:space="preserve">
<path id="search-line.svg" style="fill:#FFFFFF;" d="M24.878,10.76C23.893,3.764,17.295-1.06,10.277,0.201
	C3.939,1.339-0.592,7.354,0.063,13.76c0.725,7.094,7.182,12.104,14.178,11.12c2.53-0.356,4.773-1.449,6.55-3.028l0.539-0.494
	c0.203-0.199,0.314-0.465,0.314-0.749c0-0.283-0.111-0.549-0.314-0.748l-5.692-5.632c0.625-0.862,0.966-1.898,0.966-2.964
	c0-2.822-2.344-5.118-5.226-5.118s-5.226,2.296-5.226,5.118c0,2.821,2.344,5.117,5.226,5.117c0.961,0,1.886-0.254,2.699-0.737
	l5.059,4.973c-1.966,1.613-4.533,2.557-7.422,2.358c-4.221-0.29-7.935-3.206-9.21-7.241C0.353,8.93,5.328,2.114,12.373,2
	c4.1-0.066,7.923,2.382,9.65,6.101c0.829,1.786,1.083,3.579,0.934,5.282c-0.038,0.431,0.194,0.84,0.598,0.995l0.103,0.04
	c0.583,0.224,1.226-0.168,1.285-0.79C25.03,12.692,25.014,11.732,24.878,10.76z M11.379,14.65c-1.917,0-3.476-1.519-3.476-3.385
	c0-1.867,1.56-3.386,3.476-3.386s3.476,1.519,3.476,3.386C14.855,13.131,13.296,14.65,11.379,14.65z"/>
</svg>
