<?xml version="1.0" encoding="utf-8"?>
<!-- Generator: Adobe Illustrator 18.1.1, SVG Export Plug-In . SVG Version: 6.00 Build 0)  -->
<svg version="1.1" id="Layer_1" xmlns="http://www.w3.org/2000/svg" xmlns:xlink="http://www.w3.org/1999/xlink" x="0px" y="0px"
	 viewBox="0 0 24.78 25" style="enable-background:new 0 0 24.78 25;" xml:space="preserve">
<g id="to-next-line.svg">
	<g>
		<path style="fill:#FFFFFF;" d="M10.413,17.852L10.413,17.852c-1.068-0.001-1.815-0.829-1.818-2.016L8.59,15.019H2.726
			C1.223,15.019,0,13.79,0,12.28s1.223-2.738,2.726-2.738h5.837L8.562,9.169C8.56,8.384,8.867,7.911,9.125,7.652
			c0.591-0.592,1.548-0.667,2.426-0.156l5.738,3.313c0.71,0.41,1.117,1.04,1.116,1.729c-0.001,0.688-0.411,1.317-1.123,1.725
			l-5.688,3.248C11.201,17.736,10.803,17.852,10.413,17.852z M2.726,11.542C2.326,11.542,2,11.873,2,12.28s0.326,0.738,0.726,0.738
			h7.854l0.014,2.761c0.003-0.002,0.005-0.003,0.008-0.005l5.675-3.241l-5.715-3.3l0.012,2.309H2.726z"/>
	</g>
	<g>
		<path style="fill:#FFFFFF;" d="M22.464,25H5.811c-1.382,0-2.506-1.129-2.506-2.517l0-3.36c0-1.282,1.039-2.325,2.315-2.325
			s2.315,1.043,2.315,2.325v1.229h12.214V4.649H7.935v1.229c0,1.282-1.039,2.325-2.315,2.325S3.304,7.16,3.304,5.878l0-3.36
			C3.305,1.129,4.429,0,5.811,0h16.653c1.277,0,2.315,1.043,2.315,2.325v20.351C24.78,23.957,23.741,25,22.464,25z M5.62,18.798
			c-0.174,0-0.315,0.146-0.315,0.325l0,3.36C5.305,22.769,5.532,23,5.811,23h16.653c0.174,0,0.315-0.146,0.315-0.324V2.325
			C22.78,2.146,22.638,2,22.464,2H5.811C5.532,2,5.305,2.232,5.305,2.518l0,3.36c0,0.18,0.142,0.325,0.315,0.325
			s0.315-0.146,0.315-0.325V2.649h16.214v19.702H5.935v-3.229C5.935,18.943,5.793,18.798,5.62,18.798z"/>
	</g>
</g>
</svg>
