<?xml version="1.0" encoding="utf-8"?>
<!-- Generator: Adobe Illustrator 18.1.1, SVG Export Plug-In . SVG Version: 6.00 Build 0)  -->
<svg version="1.1" id="Layer_1" xmlns="http://www.w3.org/2000/svg" xmlns:xlink="http://www.w3.org/1999/xlink" x="0px" y="0px"
	 viewBox="0 0 24.935 25" style="enable-background:new 0 0 24.935 25;" xml:space="preserve">
<g id="to-next.svg">
	<path style="fill:#FFFFFF;" d="M1.889,14.15h7.508l0.01,1.973c0.002,1.001,0.739,1.395,1.647,0.88l6.225-3.531
		c0.903-0.512,0.904-1.353,0.004-1.869L11,8C10.098,7.48,9.369,7.873,9.371,8.873l0.008,1.498h-7.49C0.846,10.371,0,11.217,0,12.261
		v0C0,13.304,0.846,14.15,1.889,14.15z"/>
	<path style="fill:#FFFFFF;" d="M3.617,5.302c0,0.795,0.645,1.44,1.44,1.44h0c0.795,0,1.44-0.645,1.44-1.44V2.88h15.558V22.12H6.497
		v-2.422c0-0.795-0.645-1.44-1.44-1.44h0c-0.795,0-1.44,0.645-1.44,1.44l0,3.653C3.617,24.262,4.356,25,5.266,25h18.229
		c0.795,0,1.44-0.645,1.44-1.44V1.44c0-0.795-0.645-1.44-1.44-1.44L5.266,0C4.356,0,3.617,0.738,3.617,1.649L3.617,5.302z"/>
</g>
</svg>
