<?xml version="1.0" encoding="utf-8"?>
<!-- Generator: Adobe Illustrator 18.1.1, SVG Export Plug-In . SVG Version: 6.00 Build 0)  -->
<svg version="1.1" id="Layer_1" xmlns="http://www.w3.org/2000/svg" xmlns:xlink="http://www.w3.org/1999/xlink" x="0px" y="0px"
	 viewBox="0 0 19.599 25" style="enable-background:new 0 0 19.599 25;" xml:space="preserve">
<path id="trash.svg" style="fill:#FFFFFF;" d="M7.635,0c-0.894,0-1.63,0.736-1.63,1.63v1.087H0.57c-0.017-0.001-0.034-0.001-0.051,0
	c-0.3,0.014-0.532,0.269-0.518,0.569S0.269,3.818,0.57,3.804h0.543V23.37c0,0.899,0.732,1.63,1.63,1.63h14.13
	c0.899,0,1.63-0.732,1.63-1.63V3.804h0.543c0.3,0.004,0.547-0.236,0.551-0.536c0.004-0.3-0.236-0.547-0.536-0.551
	c-0.005,0-0.01,0-0.015,0h-5.435V1.63c0-0.894-0.736-1.63-1.63-1.63H7.635z M7.635,1.087h4.348c0.301,0,0.543,0.242,0.543,0.543
	v1.087H7.091V1.63C7.091,1.329,7.333,1.087,7.635,1.087z M6.548,6.522c0.3,0,0.543,0.243,0.543,0.543v13.587
	c0,0.301-0.243,0.543-0.543,0.543c-0.3,0-0.543-0.243-0.543-0.543V7.065C6.004,6.765,6.248,6.522,6.548,6.522z M9.809,6.522
	c0.3,0,0.543,0.243,0.543,0.543v13.587c0,0.301-0.243,0.543-0.543,0.543s-0.543-0.243-0.543-0.543V7.065
	C9.265,6.765,9.509,6.522,9.809,6.522z M13.07,6.522c0.301,0,0.543,0.243,0.543,0.543v13.587c0,0.301-0.243,0.543-0.543,0.543
	c-0.301,0-0.543-0.243-0.543-0.543V7.065C12.526,6.765,12.769,6.522,13.07,6.522z"/>
</svg>
