<?xml version="1.0" encoding="utf-8"?>
<!-- Generator: Adobe Illustrator 18.1.1, SVG Export Plug-In . SVG Version: 6.00 Build 0)  -->
<svg version="1.1" id="Layer_1" xmlns="http://www.w3.org/2000/svg" xmlns:xlink="http://www.w3.org/1999/xlink" x="0px" y="0px"
	 viewBox="0 0 23.781 25" style="enable-background:new 0 0 23.781 25;" xml:space="preserve">
<g id="user.svg" style="fill:#ffffff;">
	<defs>
		<path id="SVGID_1_" d="M0.02,23.804C-0.101,24.464,0.343,25,1.018,25h0.241h10.597h10.666h0.241c0.672,0,1.119-0.534,0.998-1.196
			l-0.043-0.237c-0.044-0.238-0.135-0.623-0.283-1.109c-0.245-0.805-0.569-1.611-0.986-2.373c-0.452-0.826-0.989-1.552-1.624-2.146
			c-1.416-1.324-3.132-2.214-4.749-2.715c-0.365-0.113-0.724-0.206-1.074-0.28v-0.257c2.121-1.364,3.443-3.941,3.443-6.842
			C18.445,3.495,15.714,0,11.89,0C8.06,0,5.336,3.476,5.336,7.844c0,2.901,1.323,5.478,3.444,6.842v0.257
			c-1.902,0.403-4.087,1.374-5.823,2.996c-0.635,0.594-1.172,1.319-1.624,2.146c-0.417,0.762-0.741,1.568-0.986,2.373
			c-0.148,0.486-0.239,0.871-0.283,1.109L0.02,23.804L0.02,23.804z"/>
	</defs>
	<use xlink:href="#SVGID_1_"  style="overflow:visible;fill:#FFFFFF;"/>
	<clipPath id="SVGID_2_">
		<use xlink:href="#SVGID_1_"  style="overflow:visible;"/>
	</clipPath>
</g>
</svg>
