<?xml version="1.0" encoding="utf-8"?>
<!-- Generator: Adobe Illustrator 18.1.1, SVG Export Plug-In . SVG Version: 6.00 Build 0)  -->
<svg version="1.1" id="Layer_1" xmlns="http://www.w3.org/2000/svg" xmlns:xlink="http://www.w3.org/1999/xlink" x="0px" y="0px"
	 viewBox="0 0 23.537 22.998" style="enable-background:new 0 0 23.537 22.998;" xml:space="preserve">
<g id="view-list.svg">
	<path style="fill:#FFFFFF;" d="M5.203,4.613c0.951,0,1.734-0.781,1.734-1.73V1.73C6.937,0.781,6.154,0,5.203,0L1.734,0
		C0.783,0,0,0.781,0,1.73l0,1.153c0,0.949,0.783,1.73,1.734,1.73H5.203z"/>
	<path style="fill:#FFFFFF;" d="M21.803,22.998c0.951,0,1.734-0.781,1.734-1.73v-1.153c0-0.949-0.783-1.73-1.734-1.73H10.034
		c-0.951,0-1.734,0.781-1.734,1.73v1.153c0,0.949,0.783,1.73,1.734,1.73H21.803z"/>
	<path style="fill:#FFFFFF;" d="M21.803,13.806c0.951,0,1.734-0.781,1.734-1.73v-1.153c0-0.949-0.783-1.73-1.734-1.73H10.034
		c-0.951,0-1.734,0.781-1.734,1.73v1.153c0,0.949,0.783,1.73,1.734,1.73H21.803z"/>
	<path style="fill:#FFFFFF;" d="M21.803,4.613c0.951,0,1.734-0.781,1.734-1.73V1.73c0-0.949-0.783-1.73-1.734-1.73L10.034,0
		C9.083,0,8.3,0.781,8.3,1.73v1.153c0,0.949,0.783,1.73,1.734,1.73H21.803z"/>
	<path style="fill:#FFFFFF;" d="M5.203,22.998c0.951,0,1.734-0.781,1.734-1.73v-1.153c0-0.949-0.783-1.73-1.734-1.73H1.734
		C0.783,18.385,0,19.166,0,20.115l0,1.153c0,0.949,0.783,1.73,1.734,1.73H5.203z"/>
	<path style="fill:#FFFFFF;" d="M5.203,13.806c0.951,0,1.734-0.781,1.734-1.73v-1.153c0-0.949-0.783-1.73-1.734-1.73H1.734
		C0.783,9.192,0,9.974,0,10.922l0,1.153c0,0.949,0.783,1.73,1.734,1.73H5.203z"/>
</g>
</svg>
